<svg xmlns="http://www.w3.org/2000/svg" width="40" height="40" viewBox="0 0 40 40"><g><g><path fill="#2aacc8" d="M20 0c11.046 0 20 8.954 20 20s-8.954 20-20 20S0 31.046 0 20 8.954 0 20 0z"/></g><g><path fill="#fff" d="M25.624 27.99v-1.316h2.882v-2.72h1.486v4.037zm2.882-15.677h-2.882v-1.317h4.368v4.036h-1.486zm-18.014 2.719H9.006v-4.036h4.368v1.317h-2.882zm1.396-1.317H27.11v11.557H11.888zm1.486 10.24h12.25v-8.923h-12.25zm1.441-7.521h9.413v6.119h-9.413zm-4.323 10.24h2.882v1.317H9.006v-4.036h1.486z"/></g></g></svg>