<?xml version="1.0" standalone="no"?>
<!DOCTYPE svg PUBLIC "-//W3C//DTD SVG 20010904//EN"
 "http://www.w3.org/TR/2001/REC-SVG-20010904/DTD/svg10.dtd">
<svg version="1.0" xmlns="http://www.w3.org/2000/svg"
 width="410.000000pt" height="410.000000pt" viewBox="0 0 410.000000 410.000000"
 preserveAspectRatio="xMidYMid meet">
<metadata>
Created by potrace 1.11, written by Peter Selinger 2001-2013
</metadata>
<g transform="translate(0.000000,410.000000) scale(0.100000,-0.100000)"
fill="#000000" stroke="none">
<path d="M1575 3760 c-3 -5 -1 -10 4 -10 6 0 11 5 11 10 0 6 -2 10 -4 10 -3 0
-8 -4 -11 -10z"/>
<path d="M1479 3708 c-10 -33 6 -46 28 -24 4 4 1 6 -7 4 -8 -1 -14 3 -12 10 2
10 -6 19 -9 10z"/>
<path d="M1500 3660 c-9 -6 -10 -10 -3 -10 6 0 15 5 18 10 8 12 4 12 -15 0z"/>
<path d="M1464 3639 c-5 -8 -3 -9 6 -4 9 5 10 2 6 -13 -4 -11 -3 -23 2 -26 5
-3 10 6 10 19 0 29 -13 41 -24 24z"/>
<path d="M1513 3634 c-3 -8 -2 -19 3 -24 5 -5 9 1 9 16 0 28 -3 30 -12 8z"/>
<path d="M1430 3619 c0 -5 5 -7 10 -4 6 3 10 8 10 11 0 2 -4 4 -10 4 -5 0 -10
-5 -10 -11z"/>
<path d="M1502 3580 c0 -14 2 -19 5 -12 2 6 2 18 0 25 -3 6 -5 1 -5 -13z"/>
<path d="M1436 3575 c-11 -8 -16 -15 -10 -15 5 0 18 7 28 15 11 8 16 15 10 15
-5 0 -18 -7 -28 -15z"/>
<path d="M1455 3560 c-3 -5 -3 -10 1 -10 4 0 -1 -7 -12 -16 -18 -14 -18 -15 4
-4 13 6 20 16 16 22 -5 7 -1 9 9 5 10 -3 17 -2 17 3 0 13 -27 13 -35 0z"/>
<path d="M1494 3539 c-3 -6 -1 -16 5 -22 9 -9 10 -7 5 7 -6 15 -4 17 6 11 9
-5 11 -4 6 3 -9 15 -13 15 -22 1z"/>
<path d="M1473 3504 c0 -17 2 -22 7 -13 5 6 6 18 3 26 -8 19 -10 16 -10 -13z"/>
<path d="M1418 3508 c6 -6 18 -8 28 -6 14 3 12 5 -9 10 -19 3 -25 2 -19 -4z"/>
<path d="M1539 3493 c-13 -16 -12 -17 4 -4 16 13 21 21 13 21 -2 0 -10 -8 -17
-17z"/>
<path d="M1398 3488 c-7 -17 15 -19 29 -3 4 4 3 5 -4 2 -6 -4 -13 -2 -15 5 -3
8 -6 6 -10 -4z"/>
<path d="M1510 3491 c0 -7 -5 -9 -12 -5 -7 5 -8 3 -3 -5 5 -9 10 -10 18 -2 6
6 8 14 4 18 -4 3 -7 1 -7 -6z"/>
<path d="M1472 3454 c-7 -8 -8 -14 -3 -14 10 0 25 19 20 25 -2 1 -10 -3 -17
-11z"/>
<path d="M1524 3462 c4 -3 14 -7 22 -8 9 -1 13 0 10 4 -4 3 -14 7 -22 8 -9 1
-13 0 -10 -4z"/>
<path d="M1398 3428 c2 -10 6 -18 7 -18 1 0 5 8 7 18 3 11 0 19 -7 19 -7 0
-10 -8 -7 -19z"/>
<path d="M1494 3438 c-5 -7 -2 -8 6 -3 10 6 12 4 6 -11 -4 -10 -4 -15 0 -12 4
4 14 3 24 -2 12 -6 17 -5 17 5 0 7 -7 11 -15 7 -9 -3 -13 -1 -9 5 4 6 0 13 -8
17 -8 3 -17 0 -21 -6z"/>
<path d="M2035 3440 c-3 -5 -1 -10 4 -10 6 0 11 5 11 10 0 6 -2 10 -4 10 -3 0
-8 -4 -11 -10z"/>
<path d="M2110 3442 c0 -5 7 -9 15 -9 8 0 12 4 9 9 -3 4 -9 8 -15 8 -5 0 -9
-4 -9 -8z"/>
<path d="M1468 3412 c9 -10 19 -17 21 -16 6 5 -20 34 -30 34 -5 0 -1 -8 9 -18z"/>
<path d="M1425 3400 c-3 -6 1 -7 9 -4 18 7 21 14 7 14 -6 0 -13 -4 -16 -10z"/>
<path d="M1995 3401 c-3 -5 -2 -12 3 -15 5 -3 9 1 9 9 0 17 -3 19 -12 6z"/>
<path d="M2120 3395 c-11 -13 -11 -18 0 -28 10 -9 11 -9 6 1 -4 7 -2 19 4 27
7 8 10 15 7 15 -2 0 -10 -7 -17 -15z"/>
<path d="M1395 3391 c-3 -5 -2 -12 3 -15 5 -3 9 1 9 9 0 17 -3 19 -12 6z"/>
<path d="M1450 3385 c-11 -13 -11 -18 0 -28 10 -9 11 -9 6 1 -4 7 -2 19 4 27
7 8 10 15 7 15 -2 0 -10 -7 -17 -15z"/>
<path d="M1953 3353 c0 -9 4 -10 14 -2 7 6 13 12 13 14 0 1 -6 2 -13 2 -8 0
-14 -6 -14 -14z"/>
<path d="M1533 3345 c0 -8 3 -13 5 -10 3 3 12 -1 21 -7 10 -8 9 -4 -3 10 -23
26 -23 26 -23 7z"/>
<path d="M2093 3343 c1 -17 4 -19 14 -11 15 12 18 22 4 14 -5 -4 -11 0 -14 6
-3 7 -4 3 -4 -9z"/>
<path d="M1430 3341 c0 -6 4 -13 10 -16 6 -3 7 1 4 9 -7 18 -14 21 -14 7z"/>
<path d="M2034 3334 c1 -8 6 -17 11 -21 4 -5 5 -2 0 6 -6 11 -4 13 8 8 10 -4
14 -2 11 7 -6 17 -32 16 -30 0z"/>
<path d="M1470 3316 c7 -7 13 -7 20 0 6 6 3 10 -10 10 -13 0 -16 -4 -10 -10z"/>
<path d="M1534 3306 c1 -8 5 -18 8 -22 4 -3 5 1 4 10 -1 8 -5 18 -8 22 -4 3
-5 -1 -4 -10z"/>
<path d="M1626 3302 c-3 -5 1 -9 9 -9 8 0 12 4 9 9 -3 4 -7 8 -9 8 -2 0 -6 -4
-9 -8z"/>
<path d="M1940 3295 c-19 -22 -8 -25 13 -3 9 10 13 18 8 18 -5 0 -14 -7 -21
-15z"/>
<path d="M2060 3300 c-8 -5 -10 -10 -5 -10 6 0 17 5 25 10 8 5 11 10 5 10 -5
0 -17 -5 -25 -10z"/>
<path d="M1956 3273 c-6 -14 -5 -15 5 -6 7 7 10 15 7 18 -3 3 -9 -2 -12 -12z"/>
<path d="M2030 3280 c0 -6 7 -10 15 -10 8 0 15 2 15 4 0 2 -7 6 -15 10 -8 3
-15 1 -15 -4z"/>
<path d="M1983 3268 c5 -15 0 -18 -31 -19 -210 -5 -427 -20 -427 -29 0 -1 -11
-3 -25 -6 -199 -35 -331 -78 -416 -135 -52 -36 -75 -71 -79 -122 -4 -50 12
-84 59 -125 30 -26 35 -38 41 -89 4 -32 8 -71 10 -88 2 -16 8 -61 14 -100 5
-38 13 -92 16 -120 3 -27 8 -63 10 -80 3 -16 7 -50 10 -75 3 -25 8 -61 10 -80
3 -19 10 -73 15 -120 15 -114 19 -148 26 -190 3 -19 7 -51 9 -70 3 -19 7 -53
10 -75 3 -22 7 -62 10 -90 3 -27 7 -61 10 -74 4 -22 14 -100 21 -166 1 -16 3
-30 4 -30 1 0 3 -17 5 -38 2 -21 6 -53 9 -70 3 -18 8 -54 11 -82 3 -27 8 -63
10 -80 2 -16 7 -52 10 -80 4 -27 8 -61 11 -75 2 -14 6 -50 9 -80 3 -30 8 -66
10 -80 3 -14 7 -52 10 -84 3 -33 7 -62 9 -65 2 -3 7 -35 11 -71 3 -36 8 -77
11 -91 6 -37 13 -96 20 -159 3 -30 10 -62 15 -71 4 -9 5 -19 2 -23 -3 -3 2 -6
12 -6 10 0 16 -3 12 -6 -3 -4 0 -13 8 -20 17 -17 29 -18 19 -2 -4 7 -3 8 4 4
6 -4 9 -13 6 -21 -5 -11 1 -13 24 -10 26 3 30 0 28 -19 -2 -13 3 -23 10 -23 6
0 10 6 7 13 -2 6 1 15 8 20 8 4 10 3 5 -4 -7 -12 5 -16 33 -13 7 2 10 -2 7 -7
-3 -6 1 -13 10 -16 8 -3 13 -2 9 3 -3 5 2 8 11 7 8 -1 19 -8 24 -16 6 -9 15
-10 36 -3 31 10 80 -6 66 -23 -4 -4 2 -2 12 6 13 10 17 10 12 3 -4 -9 -1 -13
9 -13 11 0 15 5 11 16 -4 10 -2 13 7 7 6 -4 15 -8 19 -8 3 0 10 -4 15 -9 4 -5
3 -6 -4 -2 -6 3 -15 1 -19 -5 -4 -8 -3 -9 4 -5 7 4 12 1 12 -6 0 -8 3 -9 8 -3
4 6 16 10 27 10 11 0 29 6 40 15 16 11 17 11 8 0 -16 -18 -17 -33 -1 -24 7 4
23 9 36 10 19 2 21 0 11 -12 -9 -12 -15 -12 -28 -2 -14 12 -14 11 -2 -5 8 -10
18 -14 25 -9 17 13 58 13 50 0 -4 -6 3 -4 15 5 13 8 30 13 39 10 11 -5 13 -3
7 8 -5 8 3 4 17 -9 19 -17 28 -20 33 -11 6 8 4 10 -5 4 -9 -5 -11 -4 -6 3 4 7
2 12 -5 12 -7 0 -9 3 -6 7 4 3 15 -1 24 -9 30 -25 41 -29 49 -17 4 7 3 9 -3 6
-6 -4 -17 1 -24 11 -13 15 -12 16 4 3 14 -11 17 -11 17 0 0 12 2 12 9 1 11
-17 21 -17 33 0 8 10 9 10 5 -2 -2 -8 -9 -14 -15 -13 -6 2 -9 -4 -5 -13 3 -9
8 -12 12 -5 4 5 15 8 26 7 11 -2 28 0 37 5 9 5 18 6 21 1 2 -4 2 -1 0 6 -1 8
2 10 9 6 8 -5 9 -2 5 10 -4 10 -3 15 4 11 5 -4 7 -16 3 -28 -6 -21 -6 -21 8
-3 12 15 17 16 23 6 6 -9 4 -11 -5 -5 -9 5 -11 4 -6 -3 9 -15 11 -15 27 5 12
14 12 16 0 8 -11 -6 -12 -5 -5 6 5 8 9 17 9 21 0 3 3 10 7 14 4 3 6 -3 3 -15
-2 -11 1 -21 7 -21 6 0 5 -7 -3 -17 -13 -15 -12 -15 9 -2 12 8 22 17 22 22 0
4 -4 6 -8 3 -5 -3 -9 1 -9 9 0 11 4 12 13 4 9 -7 15 -5 23 8 9 16 10 16 8 -4
0 -12 -5 -19 -9 -17 -4 3 -8 0 -8 -5 0 -10 12 -14 27 -8 4 1 8 10 8 19 1 10 4
19 6 21 2 2 17 11 32 21 34 21 30 33 -5 15 -21 -11 -22 -11 -9 4 7 10 22 17
33 17 10 0 16 5 13 10 -4 6 -9 8 -13 6 -4 -2 -21 7 -37 21 -23 19 -24 22 -7
13 27 -13 44 -4 22 11 -12 9 -11 10 4 5 13 -4 17 -2 13 8 -3 7 -1 18 5 24 6 6
6 12 -1 16 -6 4 -11 2 -11 -3 0 -6 -5 -11 -11 -11 -8 0 -8 4 1 14 6 8 19 12
28 9 15 -6 16 -5 2 12 -12 15 -12 17 -1 10 11 -6 13 -4 8 8 -3 9 -2 19 3 22 6
4 10 11 10 18 0 8 -3 8 -12 -1 -7 -7 -17 -12 -23 -12 -5 0 -3 5 5 10 8 5 10
10 4 10 -6 0 -10 14 -9 33 5 56 15 161 20 187 5 31 15 111 30 233 8 57 16 119
20 147 2 14 7 52 10 85 6 58 10 92 20 145 2 14 7 50 10 80 3 30 8 66 10 80 3
14 7 50 10 81 3 31 7 64 9 75 2 10 7 48 11 84 3 36 8 72 10 80 2 8 7 40 10 70
3 30 8 66 10 80 4 29 22 162 30 235 4 28 8 60 10 73 2 13 7 53 11 90 3 37 8
70 10 73 2 3 6 30 9 60 5 49 10 88 20 159 2 14 7 50 10 80 20 183 22 188 75
241 46 46 60 76 50 114 -2 6 -5 21 -8 35 -15 81 -182 165 -412 209 -101 19
-100 19 -254 36 -21 3 -84 8 -140 11 -76 4 -104 10 -115 22 -13 16 -13 16 -8
0z m530 -2943 c-3 -9 -8 -14 -10 -11 -3 3 -2 9 2 15 9 16 15 13 8 -4z m-47
-127 c4 -7 3 -8 -4 -4 -10 6 -16 -4 -14 -24 0 -3 -8 -6 -18 -6 -10 0 -16 6
-13 13 3 7 9 11 13 8 4 -3 10 2 14 10 7 18 12 19 22 3z m16 -30 c-7 -7 -12 -8
-12 -2 0 14 12 26 19 19 2 -3 -1 -11 -7 -17z m-12 -28 c0 -5 -4 -10 -10 -10
-5 0 -10 5 -10 10 0 6 5 10 10 10 6 0 10 -4 10 -10z m-110 -40 c0 -5 -5 -10
-11 -10 -5 0 -7 5 -4 10 3 6 8 10 11 10 2 0 4 -4 4 -10z m-326 -18 c2 -4 -4
-8 -14 -8 -10 0 -16 4 -14 8 3 4 9 8 14 8 5 0 11 -4 14 -8z m256 -3 c0 -5 -4
-7 -10 -4 -5 3 -10 1 -10 -6 0 -7 -3 -10 -6 -6 -8 7 4 27 17 27 5 0 9 -5 9
-11z"/>
<path d="M2527 404 c-8 -9 4 -35 13 -29 13 8 23 -14 13 -28 -5 -7 -8 -25 -8
-42 0 -16 -4 -33 -9 -37 -5 -3 -10 -15 -12 -25 -1 -10 -5 -26 -9 -36 -4 -10
-4 -17 1 -16 47 8 42 -26 -10 -65 -21 -17 -34 -32 -27 -34 6 -2 9 -7 7 -11 -3
-4 1 -8 9 -8 8 0 17 9 21 19 3 10 10 16 15 12 5 -3 6 -11 2 -17 -5 -8 -2 -8 9
0 8 7 19 9 23 5 5 -4 5 -2 2 4 -4 7 1 18 10 25 14 12 15 11 9 -11 -4 -14 -4
-20 1 -15 9 12 80 55 90 55 3 0 -2 -9 -12 -20 -22 -25 -12 -27 13 -2 16 16 16
18 -6 37 -25 22 -39 69 -19 62 7 -2 11 -11 9 -19 -4 -23 26 -44 40 -30 9 9 9
15 -1 25 -11 10 -13 9 -8 -5 7 -20 -8 -25 -19 -6 -4 6 2 17 12 25 19 14 19 14
0 11 -10 -2 -21 3 -23 10 -3 8 1 10 14 6 13 -5 12 -2 -4 10 -13 10 -23 22 -23
28 0 6 9 3 20 -7 11 -10 20 -13 20 -8 0 6 -8 14 -17 18 -16 6 -14 9 10 21 16
9 25 20 21 26 -5 8 -2 9 9 5 10 -3 17 -2 17 4 0 6 -8 9 -17 7 -10 -2 -17 -10
-15 -16 1 -7 -4 -13 -10 -14 -7 0 -17 -2 -23 -2 -5 -1 -16 -5 -22 -9 -16 -10
-17 5 -2 20 6 6 19 9 28 6 11 -4 10 -1 -4 10 -16 13 -17 17 -6 31 8 9 9 16 3
16 -6 0 -13 -6 -15 -12 -4 -10 -8 -9 -16 2 -6 8 -11 10 -11 5 0 -6 5 -16 12
-23 18 -18 1 -15 -29 6 -15 9 -24 12 -20 5 4 -6 3 -14 -3 -18 -5 -3 -10 1 -10
9 0 8 -9 18 -20 21 -11 4 -18 11 -15 16 7 10 2 12 -8 3z m89 -59 c5 -13 9 -13
23 -3 14 12 14 11 2 -4 -7 -10 -17 -16 -21 -13 -4 3 -11 -2 -14 -11 -3 -8 -2
-12 3 -9 5 3 13 1 16 -5 5 -8 12 -7 23 2 15 12 16 11 3 -5 -11 -13 -11 -21 -3
-29 9 -9 8 -15 0 -26 -17 -20 -18 -60 -1 -66 7 -3 13 -10 13 -15 0 -13 -55
-42 -64 -34 -10 10 -7 43 3 43 6 0 8 -9 6 -19 -3 -15 0 -18 13 -14 10 4 12 8
4 11 -7 2 -10 8 -7 12 3 5 13 7 23 4 14 -5 14 -4 2 4 -8 6 -18 8 -23 5 -11 -6
-5 30 6 38 5 3 1 9 -8 12 -10 5 -14 3 -9 -5 5 -7 2 -8 -7 -3 -8 5 -11 5 -7 0
4 -4 2 -15 -5 -23 -10 -13 -9 -15 3 -8 13 6 13 6 0 -6 -9 -7 -15 -20 -15 -28
2 -26 -26 -52 -41 -39 -11 9 -15 7 -20 -5 -3 -9 -11 -16 -17 -16 -6 0 0 11 13
25 12 13 26 22 30 20 4 -3 13 2 20 10 10 12 10 15 -1 16 -10 0 -11 2 -1 6 19
7 14 21 -10 29 l-21 6 24 14 c13 7 20 13 15 14 -6 0 -5 5 2 12 7 7 12 17 12
22 -1 6 -11 -1 -23 -16 -20 -24 -23 -25 -23 -9 0 11 3 18 7 15 4 -2 12 2 18
10 7 8 8 16 3 18 -5 1 0 12 10 23 19 20 19 20 13 0 -5 -16 -5 -17 3 -5 12 16
6 32 -12 28 -6 -2 -13 2 -14 7 -1 6 2 10 7 10 5 0 13 3 17 8 12 11 24 8 30 -8z"/>
<path d="M2590 339 c0 -5 5 -7 10 -4 6 3 10 8 10 11 0 2 -4 4 -10 4 -5 0 -10
-5 -10 -11z"/>
<path d="M2600 291 c-8 -6 -19 -7 -25 -3 -5 3 -4 -2 4 -11 11 -14 11 -20 1
-32 -7 -8 -9 -15 -4 -15 5 0 0 -7 -10 -15 -11 -8 -14 -15 -8 -15 7 0 14 0 17
0 3 0 5 3 6 8 2 15 21 31 33 26 13 -5 31 24 21 34 -3 3 -5 -1 -5 -9 0 -11 -2
-11 -10 1 -13 20 -12 33 2 24 7 -4 8 -3 4 4 -9 14 -7 14 -26 3z m11 -33 c6
-13 8 -20 4 -16 -5 4 -15 2 -24 -5 -14 -10 -14 -10 -3 5 8 9 11 22 7 28 -3 5
-4 10 -1 10 3 0 11 -10 17 -22z"/>
<path d="M2555 130 c-4 -6 -11 -7 -17 -4 -7 4 -8 2 -4 -5 6 -9 11 -9 22 0 14
11 18 19 10 19 -3 0 -8 -5 -11 -10z"/>
<path d="M2560 400 c18 -12 30 -13 30 -2 0 4 -10 9 -22 9 -18 2 -20 0 -8 -7z"/>
<path d="M2670 360 c0 -5 5 -10 10 -10 6 0 10 5 10 10 0 6 -4 10 -10 10 -5 0
-10 -4 -10 -10z"/>
<path d="M2737 293 c3 -7 6 -13 8 -13 2 0 5 6 8 13 3 8 -1 14 -8 14 -7 0 -11
-6 -8 -14z"/>
<path d="M2779 293 c-13 -17 -13 -17 6 -3 11 8 22 16 24 17 2 2 0 3 -6 3 -6 0
-17 -8 -24 -17z"/>
<path d="M2690 294 c0 -2 9 -8 20 -14 11 -6 20 -7 20 -2 0 6 -9 12 -20 15 -11
3 -20 3 -20 1z"/>
<path d="M2795 270 c-4 -6 -10 -8 -14 -6 -4 3 -8 -1 -8 -9 0 -13 4 -12 19 2
18 16 22 23 14 23 -3 0 -8 -5 -11 -10z"/>
<path d="M2701 254 c0 -11 3 -14 6 -6 3 7 2 16 -1 19 -3 4 -6 -2 -5 -13z"/>
<path d="M2735 259 c-4 -6 -5 -12 -2 -15 2 -3 7 2 10 11 7 17 1 20 -8 4z"/>
<path d="M2810 240 c0 -5 5 -10 11 -10 5 0 7 5 4 10 -3 6 -8 10 -11 10 -2 0
-4 -4 -4 -10z"/>
<path d="M2710 218 c0 -4 4 -8 9 -8 6 0 12 4 15 8 3 5 -1 9 -9 9 -8 0 -15 -4
-15 -9z"/>
<path d="M2760 216 c-5 -5 -10 -15 -10 -20 0 -6 5 -3 11 7 6 9 14 15 19 12 5
-3 11 -2 14 3 7 12 -21 11 -34 -2z"/>
<path d="M2730 191 c0 -6 4 -13 10 -16 6 -3 7 1 4 9 -7 18 -14 21 -14 7z"/>
<path d="M2710 160 c0 -5 5 -10 10 -10 6 0 10 5 10 10 0 6 -4 10 -10 10 -5 0
-10 -4 -10 -10z"/>
<path d="M1720 108 c-12 -8 -12 -9 2 -5 9 3 19 1 22 -6 3 -9 5 -9 5 0 1 18
-13 23 -29 11z"/>
<path d="M2090 61 c0 -6 4 -13 10 -16 6 -3 7 1 4 9 -7 18 -14 21 -14 7z"/>
</g>
</svg>
