<?xml version="1.0" standalone="no"?>
<!DOCTYPE svg PUBLIC "-//W3C//DTD SVG 1.1//EN" "http://www.w3.org/Graphics/SVG/1.1/DTD/svg11.dtd" >
<svg>
<metadata>
Created by FontForge 20090914 at Fri Sep  6 13:08:51 2019
 By www-data
</metadata>
<defs>
<font id="ArialMT" horiz-adv-x="278" >
  <font-face 
    font-family="ArialMT"
    font-weight="500"
    font-stretch="normal"
    units-per-em="1000"
    panose-1="0 0 0 0 0 0 0 0 0 0"
    ascent="800"
    descent="-200"
    x-height="517.995"
    cap-height="716"
    bbox="-222 -250 1006 921.999"
    underline-thickness="50"
    underline-position="-55"
    unicode-range="U+0020-U+F002"
  />
<missing-glyph 
 />
    <glyph glyph-name=".notdef" 
 />
    <glyph glyph-name="space" unicode=" " 
 />
    <glyph glyph-name="space" unicode="&#xa0;" 
 />
    <glyph glyph-name="exclam" unicode="!" 
d="M89 0v100h100v-100h-100v0v0zM112 178l-27 379v159h109v-159l-25 -379h-57v0v0z" />
    <glyph glyph-name="quotedbl" unicode="&#x22;" horiz-adv-x="355" 
d="M70 462l-19 137v117h80v-117l-17 -137h-44v0v0zM242 462l-19 137v117h80v-117l-17 -137h-44v0v0z" />
    <glyph glyph-name="numbersign" unicode="#" horiz-adv-x="556" 
d="M51 -12l43 208h-83v72h97l37 178h-134v72h148l43 210h73l-42 -210h153l43 210h73l-42 -210h85v-72h-100l-36 -178h136v-72h-151l-42 -208h-74l43 208h-154l-42 -208h-74v0v0zM218 446l-36 -178h153l37 178h-154v0v0z" />
    <glyph glyph-name="dollar" unicode="$" horiz-adv-x="556" 
d="M251 -103l-0.000976562 87.999c-5.33301 0.666992 -11.5 1.66699 -18.5 3s-15.167 2.66602 -24.5 3.99902l-27 6.5c-9.33301 2.33301 -18.666 5.5 -27.999 9.5c-13.333 6.66699 -26.333 15.167 -39 25.5s-24.667 22.833 -36 37.5c-11.333 14 -20.333 31.5 -27 52.5
s-11 45.5 -13 73.5l88 18c0 -4.66699 0.5 -9.5 1.5 -14.5s2.16699 -11.167 3.5 -18.5c1.33301 -6.66699 3.33301 -13.834 6 -21.501s5.66699 -15.167 9 -22.5c4 -9.33301 9.16699 -18.5 15.5 -27.5s13.5 -17.5 21.5 -25.5s17.667 -14.333 29 -19s24.333 -7.66699 39 -9v281
c-6.66699 0.666992 -13.834 2 -21.501 4s-15.834 4.33301 -24.501 7l-28.5 11.5c-10.333 4.33301 -21.166 9.5 -32.499 15.5c-10.667 5.33301 -20.167 11.166 -28.5 17.499s-15.5 13.5 -21.5 21.5c-6 7.33301 -11.167 15 -15.5 23s-8.16602 16.333 -11.499 25
c-2.66699 6.66699 -4.83398 13.167 -6.50098 19.5s-3.16699 12.833 -4.5 19.5c-0.666992 6.66699 -1.33398 13 -2.00098 19s-1 11.667 -1 17c0 23.333 2.83301 44.5 8.5 63.5s13.834 36.167 24.501 51.5c11.333 15.333 23.333 28.333 36 39s26.334 19 41.001 25
c8.66699 3.33301 17 6.33301 25 9s16 4.66699 24 6c7.33301 1.33301 14.333 2.5 21 3.5s12.667 1.83301 18 2.5v44h52v-42c24 -3.33301 46.5 -9.16602 67.5 -17.499s40.167 -19.166 57.5 -32.499c17.333 -14 31.5 -31.667 42.5 -53s18.833 -46.666 23.5 -75.999l-91 -11
c-2 12.667 -4.83301 24.334 -8.5 35.001s-8.16699 20 -13.5 28c-4.66699 7.33301 -9.83398 13.833 -15.501 19.5s-11.167 10.5 -16.5 14.5c-4.66699 2.66699 -9.16699 5 -13.5 7s-8.5 3.33301 -12.5 4c-4 1.33301 -7.66699 2.5 -11 3.5s-6.33301 1.83301 -9 2.5v-253
c4.66699 -2 9.33398 -3.66699 14.001 -5l14 -4c5.33301 -1.33301 10.5 -2.83301 15.5 -4.5s9.83301 -3.16699 14.5 -4.5c19.333 -6 37.5 -14 54.5 -24s33.167 -22 48.5 -36s27 -32 35 -54s12 -48 12 -78v-1.5v-0.5v0v0v-1v0c-0.666992 -26 -5.5 -51 -14.5 -75
s-22.167 -47 -39.5 -69s-38.833 -38.5 -64.5 -49.5s-55.5 -17.167 -89.5 -18.5v-89h-52v0v0zM302.999 326.999v-268.002c3.33301 -0.666992 6.5 -0.666992 9.5 0s6.16699 1.33398 9.5 2.00098c3.33301 1.33301 6.83301 2.5 10.5 3.5s7.16699 2.5 10.5 4.5
c9.33301 4.66699 18.5 10.667 27.5 18s17.5 16 25.5 26s14.167 21.833 18.5 35.5s6.5 29.167 6.5 46.5c0 21.333 -3 39.333 -9 54s-14.667 26.334 -26 35.001c-12 8 -24.833 15.5 -38.5 22.5s-28.5 13.167 -44.5 18.5v2v0zM250.999 422.997l-0.000976562 244.001
c-17.333 -4 -32.5 -9.33301 -45.5 -16s-23.833 -15 -32.5 -25s-15.667 -20.5 -21 -31.5s-8.66602 -22.167 -9.99902 -33.5v-2v-2c-0.666992 -0.666992 -1 -1.33398 -1 -2.00098v-2v-4v-4v-11.5c0 -3.66699 0.333008 -7.16699 1 -10.5c0 -2 0.333008 -4 1 -6s1 -3.66699 1 -5
l2 -6l2 -6c3.33301 -7.33301 7.5 -14.5 12.5 -21.5s11.5 -14.167 19.5 -21.5c7.33301 -6.66699 17 -13 29 -19s26 -11.667 42 -17v2v0z" />
    <glyph glyph-name="percent" unicode="%" horiz-adv-x="889" 
d="M514 168l0.00195312 4.00098v6v3.5c0 1 0.333008 1.83301 1 2.5v3.5v3.5c1.33301 19.333 5.33301 38.166 12 56.499s16 35.833 28 52.5c11.333 16.667 26.166 29.167 44.499 37.5s39.833 12.5 64.5 12.5c4 0 8 -0.166992 12 -0.5s8 -0.833008 12 -1.5
s8.16699 -1.5 12.5 -2.5s8.83301 -2.16699 13.5 -3.5c13.333 -4.66699 26 -11.5 38 -20.5s23.333 -20.5 34 -34.5c11.333 -14 19.666 -31.5 24.999 -52.5s8 -45.833 8 -74.5c0 -28 -2.66699 -52.333 -8 -73s-13.666 -38 -24.999 -52c-10.667 -14 -22 -25.167 -34 -33.5
s-24.667 -14.833 -38 -19.5l-6 -2l-6 -2c-2.66699 -0.666992 -5 -1.16699 -7 -1.5s-4 -0.833008 -6 -1.5c-4.66699 -0.666992 -9 -1.16699 -13 -1.5s-7.66699 -0.5 -11 -0.5c-4.66699 0 -9.33398 0.166992 -14.001 0.5s-9.66699 1.16602 -15 2.49902
c-5.33301 0.666992 -10.833 2 -16.5 4s-11.5 4.33301 -17.5 7c-10.667 4.66699 -21.167 11.334 -31.5 20.001s-20.166 20 -29.499 34c-8.66699 13.333 -15.334 30.5 -20.001 51.5s-7 45.5 -7 73.5v2v0zM666.002 292.001c-12 -1.33301 -22.167 -4.00098 -30.5 -8.00098
s-15.166 -9.66699 -20.499 -17c-4.66699 -8 -8.83398 -16 -12.501 -24s-6.5 -16.667 -8.5 -26c-0.666992 -6 -1.5 -11.833 -2.5 -17.5s-1.5 -11.167 -1.5 -16.5v-14.5v-11.5v-10.5v-14.5c0 -5.33301 0.5 -11 1.5 -17s2.5 -12 4.5 -18c2 -8 4.83301 -15.667 8.5 -23
s7.83398 -14.666 12.501 -21.999c5.33301 -6.66699 12.166 -11.667 20.499 -15s17.833 -5 28.5 -5c12 0 22.333 1.83301 31 5.5s15.334 9.16699 20.001 16.5c5.33301 7.33301 9.83301 15.333 13.5 24s6.5 17.667 8.5 27c1.33301 5.33301 2.16602 10.833 2.49902 16.5
s0.5 11.167 0.5 16.5v7.5c0 2.33301 0.333008 4.5 1 6.5v6v6v4.5v5.5c-0.666992 2 -1 4.33301 -1 7v8c0 5.33301 -0.5 11 -1.5 17s-2.16699 12 -3.5 18c-2 8 -4.83301 15.833 -8.5 23.5s-8.16699 14.834 -13.5 21.501c-5.33301 7.33301 -12 12.666 -20 15.999
s-17.667 5 -29 5v2v0zM214.002 -25l391 753h71l-389 -753h-73v0v0zM73.002 543l0.00195312 3.99902v6v3.5c0 1 0.333008 1.83301 1 2.5v3.5v3.5c1.33301 19.333 5.33301 38.166 12 56.499s16 35.833 28 52.5c11.333 16.667 26.166 29.167 44.499 37.5s39.833 12.5 64.5 12.5
c4 0 8 -0.166992 12 -0.5s8 -0.833008 12 -1.5s8.16699 -1.5 12.5 -2.5s8.83301 -2.16699 13.5 -3.5c13.333 -4.66699 26 -11.5 38 -20.5s23.333 -20.5 34 -34.5c11.333 -14 19.666 -31.5 24.999 -52.5s8 -45.833 8 -74.5c0 -28 -2.66699 -52.333 -8 -73
s-13.666 -38 -24.999 -52c-10.667 -14 -22 -25.667 -34 -35s-24.667 -16 -38 -20c-2 -0.666992 -4 -1.5 -6 -2.5s-4 -1.83301 -6 -2.5c-2.66699 0 -5 -0.333008 -7 -1s-4 -1 -6 -1c-4.66699 -0.666992 -9 -1.16699 -13 -1.5s-7.66699 -0.5 -11 -0.5
c-4.66699 0 -9.33398 0.333008 -14.001 1s-9.66699 1.33398 -15 2.00098c-5.33301 1.33301 -10.833 2.83301 -16.5 4.5s-11.5 3.83398 -17.5 6.50098c-10.667 5.33301 -21.167 12.5 -31.5 21.5s-20.166 20.5 -29.499 34.5c-8.66699 13.333 -15.334 30.5 -20.001 51.5
s-7 45.5 -7 73.5v2v0zM225.004 666.999c-12 -1.33301 -22.167 -4.00098 -30.5 -8.00098s-15.166 -9.66699 -20.499 -17c-4.66699 -8 -8.83398 -16 -12.501 -24s-6.5 -16.667 -8.5 -26c-0.666992 -6 -1.5 -11.833 -2.5 -17.5s-1.5 -11.167 -1.5 -16.5v-14.5v-11.5v-10.5
v-14.5c0 -5.33301 0.5 -11 1.5 -17s2.5 -12 4.5 -18c2 -8 4.83301 -15.667 8.5 -23s7.83398 -14.666 12.501 -21.999c5.33301 -6.66699 12.166 -11.667 20.499 -15s17.833 -5 28.5 -5c12 0 22.333 1.83301 31 5.5s15.334 9.16699 20.001 16.5
c5.33301 7.33301 9.83301 15.333 13.5 24s6.5 17.667 8.5 27c1.33301 5.33301 2.16602 10.833 2.49902 16.5s0.5 11.167 0.5 16.5v7.5c0 2.33301 0.333008 4.5 1 6.5v6v6v4.5v5.5c-0.666992 2 -1 4.33301 -1 7v8c0 5.33301 -0.5 11 -1.5 17s-2.16699 12 -3.5 18
c-2 8 -4.83301 15.833 -8.5 23.5s-8.16699 14.834 -13.5 21.501c-5.33301 7.33301 -12 12.666 -20 15.999s-17.667 5 -29 5v2v0z" />
    <glyph glyph-name="ampersand" unicode="&#x26;" horiz-adv-x="667" 
d="M342 401l128.99 -164.003c0 -0.666992 0.166992 -0.666992 0.5 0s0.833008 1.33398 1.5 2.00098v0.5c0 0.333008 0.333008 0.833008 1 1.5v0.5v0.5c4.66699 10 8.66699 20 12 30l9 28l6.5 22.5c1.66699 5.66699 2.83398 9.83398 3.50098 12.501l91 -17
c-4 -16.667 -8.16699 -32.167 -12.5 -46.5s-9.16602 -27.833 -14.499 -40.5c-4.66699 -12.667 -10.167 -24.667 -16.5 -36s-13.166 -22.666 -20.499 -33.999l22.5 -27.5c7.66699 -9 15.834 -17.833 24.501 -26.5c8 -8.66699 16.167 -16.667 24.5 -24
s16.833 -14.333 25.5 -21c0.666992 -0.666992 1.33398 -1.16699 2.00098 -1.5s1.33398 -0.833008 2.00098 -1.5c0 -0.666992 0.333008 -1.16699 1 -1.5s1.33398 -0.833008 2.00098 -1.5s1.33398 -1.16699 2.00098 -1.5s1.33398 -0.5 2.00098 -0.5
c0.666992 -0.666992 1.33398 -1.16699 2.00098 -1.5s1.33398 -0.833008 2.00098 -1.5l-59 -68l-6 4l-6 4c-2 2 -4 3.66699 -6 5l-6 4c-4 2 -7.83301 4.5 -11.5 7.5l-10.5 8.5l-22 20.5c-6.66699 6.33301 -12.667 12.5 -18 18.5c-6 6 -11 11.333 -15 16s-7 8.33398 -9 11.001
c-14 -16 -28.667 -29.833 -44 -41.5s-31.666 -21.5 -48.999 -29.5c-16.667 -7.33301 -34.334 -13 -53.001 -17s-38.334 -6 -59.001 -6c-32 0 -60.5 3.83301 -85.5 11.5s-46.5 19.834 -64.5 36.501c-18 16 -32.833 33.167 -44.5 51.5s-20.167 37.5 -25.5 57.5l-2 6
c-0.666992 2 -1.33398 4.33301 -2.00098 7c0 2 -0.333008 4 -1 6s-1 4 -1 6s-0.166992 4 -0.5 6s-0.5 4.33301 -0.5 7v6v6c0 20 3.16699 39.5 9.5 58.5s15.833 37.5 28.5 55.5s30 35.333 52 52s48.667 32.667 80 48c-14 16 -26 31 -36 45s-18 26.333 -24 37
c-6 11.333 -10.5 22.166 -13.5 32.499s-5.16699 20.5 -6.5 30.5v3.5v2.5v3.5v2.5c0 21.333 4 41.166 12 59.499s20.333 35.5 37 51.5s35.667 28.167 57 36.5s45.333 12.5 72 12.5c25.333 0 48 -3.83301 68 -11.5s37.333 -19.167 52 -34.5
c15.333 -14.667 26.833 -31 34.5 -49s11.5 -37.333 11.5 -58c0 -16.667 -2.66699 -32.667 -8 -48s-13.333 -30.333 -24 -45s-24.667 -28.667 -42 -42s-37.666 -26.333 -60.999 -39v2v0zM419.99 153.997l-161.003 200l-44 -32c-14 -10.667 -27.333 -22 -40 -34
s-22 -25.167 -28 -39.5s-9 -30.166 -9 -47.499c0 -4 0.333008 -8 1 -12s1.33398 -8.66699 2.00098 -14c0.666992 -2.66699 1.33398 -5.16699 2.00098 -7.5s1.33398 -4.5 2.00098 -6.5c0.666992 -2.66699 1.5 -5.16699 2.5 -7.5s2.16699 -4.83301 3.5 -7.5
c4 -10 9.5 -19.667 16.5 -29s15.5 -18.333 25.5 -27s21.5 -15.167 34.5 -19.5s27.5 -6.5 43.5 -6.5h1.5h1.5h0.5h1.5h3.5c1 0 1.83301 0.333008 2.5 1c13.333 1.33301 26.5 4.16602 39.5 8.49902s25.833 10.833 38.5 19.5s24 18 34 28s18.667 20.333 26 31v2v0z
M257.987 502.997l38.9971 -46.002c0 -0.666992 0.166992 -1 0.5 -1h1.5c0.666992 0 1.33398 0.166992 2.00098 0.5s1.33398 0.833008 2.00098 1.5c10 6 19.833 12.667 29.5 20s18.834 15 27.501 23c9.33301 8 16.166 18 20.499 30s6.5 25.333 6.5 40
c0 13.333 -2 24.833 -6 34.5s-9.66699 17.834 -17 24.501c-8 7.33301 -16 13 -24 17s-16.667 6.33301 -26 7h-2h-2h-2h-2h-2.5h-3.5h-1.5h-1.5c-0.666992 -0.666992 -1.16699 -1 -1.5 -1h-1.5c-8.66699 -1.33301 -17.167 -4 -25.5 -8s-16.166 -9.33301 -23.499 -16
s-12.833 -14.5 -16.5 -23.5s-5.5 -19.167 -5.5 -30.5c0 -4.66699 0.5 -9.66699 1.5 -15s2.5 -10.666 4.5 -15.999c2 -6 5.5 -12.5 10.5 -19.5s11.167 -14.833 18.5 -23.5v2v0z" />
    <glyph glyph-name="quotesingle" unicode="'" horiz-adv-x="191" 
d="M74 462l-19 137v117h80v-117l-17 -137h-44v0v0z" />
    <glyph glyph-name="parenleft" unicode="(" horiz-adv-x="333" 
d="M234 728l62.9971 0.00390625l-6 -10c-1.33301 -3.33301 -2.66602 -6.33301 -3.99902 -9l-4 -8c-2 -2.66699 -3.66699 -5.33398 -5 -8.00098l-4 -8c-1.33301 -2.66699 -2.83301 -5.33398 -4.5 -8.00098l-4.5 -7c-1.33301 -2.66699 -2.83301 -5.33398 -4.5 -8.00098
s-3.16699 -5.33398 -4.5 -8.00098c-12.667 -24 -25 -50 -37 -78s-23.667 -58 -35 -90c-10.667 -32 -18.834 -67 -24.501 -105s-8.5 -79 -8.5 -123c0 -36 2.83301 -72.667 8.5 -110s13.834 -75.666 24.501 -114.999c11.333 -38 26.333 -77.333 45 -118
s41.334 -82.334 68.001 -125.001h-63c-4 4.66699 -9 11 -15 19s-12.667 17.667 -20 29l-23 35c-8 12.667 -16 26.667 -24 42c-11.333 22 -22.333 45.5 -33 70.5s-20.667 51.833 -30 80.5c-10 29.333 -17.333 59.833 -22 91.5s-7 64.834 -7 99.501
c0 25.333 1.33301 50.166 4 74.499s6.33398 47.833 11.001 70.5c5.33301 22.667 11.833 45.167 19.5 67.5s16.5 44.833 26.5 67.5c4 9.33301 8.33301 18.5 13 27.5l14 26.5l15.5 27.5c5 9 10.5 18.167 16.5 27.5l18 28.5l15 22.5c4.66699 6 8.66699 11.5 12 16.5
s6.33301 9.16699 9 12.5v2v0z" />
    <glyph glyph-name="parenright" unicode=")" horiz-adv-x="333" 
d="M99 -210l-62.9961 -0.00292969l6 10l8 13.5l8 13.5c1.33301 2.66699 2.66602 5.16699 3.99902 7.5s2.66602 4.5 3.99902 6.5c1.33301 2.66699 2.83301 5.16699 4.5 7.5s3.16699 4.83301 4.5 7.5c13.333 24.667 26.166 51.167 38.499 79.5s23.833 57.833 34.5 88.5
c11.333 32 19.833 67.5 25.5 106.5s8.5 80.833 8.5 125.5c0 35.333 -2.66699 71.833 -8 109.5s-13.666 76.167 -24.999 115.5c-10.667 39.333 -25.5 79.333 -44.5 120s-41.833 82.334 -68.5 125.001l63 2l14.5 -21c5.66699 -8 12.167 -17.667 19.5 -29l23 -35
c8 -12.667 16.333 -26.667 25 -42c11.333 -22 22.166 -45.667 32.499 -71s20.5 -52.666 30.5 -81.999c9.33301 -29.333 16.5 -60 21.5 -92s7.5 -65 7.5 -99c0 -26 -1.33301 -51 -4 -75s-6.66699 -47.333 -12 -70c-4.66699 -22.667 -10.834 -45.167 -18.501 -67.5
s-16.5 -44.166 -26.5 -65.499c-4 -9.33301 -8.16699 -18.5 -12.5 -27.5s-9.16602 -17.833 -14.499 -26.5c-4.66699 -9.33301 -9.83398 -18.5 -15.501 -27.5l-16.5 -27.5l-18 -28.5l-15 -22.5c-4.66699 -6 -8.66699 -11.5 -12 -16.5s-6.33301 -9.16699 -9 -12.5v0v0z" />
    <glyph glyph-name="asterisk" unicode="*" horiz-adv-x="389" 
d="M33 584l23.0049 70.002c3.33301 -2.66699 7.5 -5 12.5 -7s10.5 -4 16.5 -6c6 -2.66699 12.333 -5.16699 19 -7.5s13.334 -4.83301 20.001 -7.5c2 -0.666992 4 -1.5 6 -2.5s4 -1.83301 6 -2.5c1.33301 -1.33301 3 -2.33301 5 -3s4 -1.66699 6 -3
c2 -0.666992 4 -1.5 6 -2.5l5 -2.5c2 -1.33301 3.83301 -2.33301 5.5 -3s3.5 -1.66699 5.5 -3c-2 13.333 -3.5 25.333 -4.5 36l-2.5 26l-2 21c-0.666992 6.66699 -1 13 -1 19v4.5v5.5v4.5v5.5l70 2c0 -7.33301 -0.166992 -14.5 -0.5 -21.5s-0.833008 -14.5 -1.5 -22.5
l-2.5 -29c-1 -11.333 -2.5 -24.333 -4.5 -39v0v-1c-0.666992 0 -1 -0.166992 -1 -0.5v-0.5v-2v-2c-0.666992 -0.666992 -1 -1.16699 -1 -1.5v-1.5v-1.5v-0.5c3.33301 1.33301 6.66602 2.83301 9.99902 4.5s6.66602 3.5 9.99902 5.5
c3.33301 1.33301 6.83301 2.83301 10.5 4.5s7.5 3.16699 11.5 4.5c7.33301 3.33301 14.166 6.16602 20.499 8.49902l19.5 7.5l18 7c5.33301 2 10.333 3.66699 15 5l23 -68c-0.666992 -1.33301 -1.5 -2.16602 -2.5 -2.49902s-1.83301 -0.833008 -2.5 -1.5l-3 -1.5
c-0.666992 -0.333008 -1.66699 -0.5 -3 -0.5c-0.666992 0 -1.66699 -0.166992 -3 -0.5s-2.33301 -0.5 -3 -0.5c-1.33301 -0.666992 -2.5 -1.16699 -3.5 -1.5s-2.16699 -0.5 -3.5 -0.5c-3.33301 -0.666992 -7 -1.5 -11 -2.5s-8 -2.16699 -12 -3.5
c-2 -0.666992 -4 -1.16699 -6 -1.5s-4 -0.5 -6 -0.5c-2 -0.666992 -4 -1.16699 -6 -1.5s-4 -0.833008 -6 -1.5c-4.66699 -0.666992 -9.16699 -1.5 -13.5 -2.5s-8.5 -1.83301 -12.5 -2.5c-4.66699 -0.666992 -9 -1.33398 -13 -2.00098l-12 -2l7.5 -7.5l9.5 -9.5l10 -10.5
c3.33301 -3.66699 7 -7.5 11 -11.5c0 -0.666992 0.166992 -1.16699 0.5 -1.5s0.833008 -0.5 1.5 -0.5c0 -0.666992 0.166992 -1.16699 0.5 -1.5s0.833008 -0.5 1.5 -0.5l14.5 -17l13.5 -16c4 -4.66699 7.33301 -8.33398 10 -11.001l5 -5l-59 -40
c-2.66699 2.66699 -5.5 5.83398 -8.5 9.50098s-5.5 7.16699 -7.5 10.5c-2.66699 3.33301 -5.16699 6.83301 -7.5 10.5l-6.5 10.5c-0.666992 0.666992 -1.16699 1.33398 -1.5 2.00098s-0.5 1.33398 -0.5 2.00098c-0.666992 0 -1.16699 0.333008 -1.5 1
s-0.5 1.33398 -0.5 2.00098c-0.666992 1.33301 -1.33398 2.5 -2.00098 3.5s-1.33398 1.83301 -2.00098 2.5c-2.66699 3.33301 -5.16699 7 -7.5 11s-4.5 8 -6.5 12c-2.66699 4 -5.16699 8.16699 -7.5 12.5l-7.5 13.5c-4.66699 -9.33301 -9.33398 -17.833 -14.001 -25.5
s-8.66699 -14.5 -12 -20.5l-9.5 -17c-3 -5.33301 -6.16699 -10.666 -9.5 -15.999c-0.666992 -0.666992 -1.16699 -1.33398 -1.5 -2.00098s-0.833008 -1 -1.5 -1c-0.666992 -0.666992 -1.16699 -1.33398 -1.5 -2.00098s-0.5 -1.33398 -0.5 -2.00098l-1.5 -1.5
c-0.333008 -0.333008 -0.5 -0.833008 -0.5 -1.5l-1.5 -1.5l-1.5 -1.5c-0.666992 -0.666992 -1.16699 -1.33398 -1.5 -2.00098l-0.5 -1c-0.666992 -0.666992 -1.16699 -1.33398 -1.5 -2.00098s-0.833008 -1.33398 -1.5 -2.00098s-1.33398 -1.5 -2.00098 -2.5
s-1.33398 -2.16699 -2.00098 -3.5l-57 44l41 49c6 6 11 11.333 15 16s7.33301 8.33398 10 11.001s5.16699 5 7.5 7s4.5 4 6.5 6v0v0v0v0v0v0v0l1 1v0v0l-10 2l-10 2l-10 2l-10 2l-19.5 4c-6.33301 1.33301 -12.833 3 -19.5 5l-10 2
c-3.33301 0.666992 -6.66602 1.66699 -9.99902 3c-4 0.666992 -7.66699 1.5 -11 2.5s-6.66602 1.83301 -9.99902 2.5v2v0z" />
    <glyph glyph-name="plus" unicode="+" horiz-adv-x="584" 
d="M251 116v196h-196v82h196v196h82v-196h196v-82h-196v-196h-82v0v0z" />
    <glyph glyph-name="comma" unicode="," 
d="M90 0l-0.00195312 100.003h100v-100c0 -4 -0.166992 -8.66699 -0.5 -14s-0.833008 -11.333 -1.5 -18c-0.666992 -6 -1.66699 -12.333 -3 -19s-3.33301 -13.334 -6 -20.001s-6 -13.167 -10 -19.5s-8.66699 -12.5 -14 -18.5c-6 -6 -12.833 -11.667 -20.5 -17
s-16.5 -10.333 -26.5 -15l-24 37c11.333 5.33301 20.833 11.666 28.5 18.999s12.834 15.666 15.501 24.999c3.33301 9.33301 5.83301 19 7.5 29s2.83398 20.333 3.50098 31h-49v0v0z" />
    <glyph glyph-name="hyphen" unicode="-" horiz-adv-x="333" 
d="M32 215v88h269v-88h-269v0v0z" />
    <glyph glyph-name="period" unicode="." 
d="M89 0v100h100v-100h-100v0v0z" />
    <glyph glyph-name="slash" unicode="/" 
d="M0 -24l207 740h71l-207 -740h-71v0v0z" />
    <glyph glyph-name="zero" unicode="0" horiz-adv-x="556" 
d="M45 353c0 6.66699 0.166016 16.001 0.499023 28.001s0.833008 26 1.5 42s2.33398 32.5 5.00098 49.5s6.33398 34.5 11.001 52.5c6 24 14.5 47 25.5 69s24.5 43 40.5 63s36.333 35 61 45s54 15 88 15c33.333 0 62.5 -5.16699 87.5 -15.5s45.5 -25.5 61.5 -45.5
s29.667 -41 41 -63s20 -45 26 -69c4 -17.333 7.33301 -34.333 10 -51s4.33398 -33 5.00098 -49s1.16699 -30.167 1.5 -42.5s0.5 -22.5 0.5 -30.5s-0.166992 -18 -0.5 -30s-0.833008 -26 -1.5 -42s-2.33398 -32.5 -5.00098 -49.5s-6.33398 -34.167 -11.001 -51.5
c-6 -24 -14.5 -47 -25.5 -69s-24.5 -43 -40.5 -63s-36.5 -34.667 -61.5 -44s-54.167 -14 -87.5 -14c-34.667 0 -64.5 4.83301 -89.5 14.5s-45.5 24.5 -61.5 44.5s-29.5 41.167 -40.5 63.5s-19.5 45.833 -25.5 70.5c-4 16.667 -7.16699 33 -9.5 49s-3.83301 32 -4.5 48
c-0.666992 15.333 -1.16699 29.166 -1.5 41.499s-0.5 22.833 -0.5 31.5v2v0zM134.999 353.001l0.000976562 -23.4961v-23.5c0 -4 0.166992 -8 0.5 -12s0.5 -7.66699 0.5 -11c0.666992 -4 1.16699 -8 1.5 -12s0.833008 -8 1.5 -12c2 -24.667 5.83301 -48.5 11.5 -71.5
s13.5 -45.167 23.5 -66.5c9.33301 -20.667 22.833 -36.334 40.5 -47.001s38.834 -16 63.501 -16c25.333 0 46.666 5.33301 63.999 16s31 26.667 41 48c9.33301 21.333 17 44 23 68s10 49 12 75c0.666992 7.33301 1.16699 14.666 1.5 21.999s0.5 14.666 0.5 21.999v10.5
c0 3.66699 0.333008 7.16699 1 10.5v10.5v10.5v9.5v9.5c-0.666992 3.33301 -1 6.66602 -1 9.99902v10c0 7.33301 -0.166992 14.5 -0.5 21.5s-0.833008 13.833 -1.5 20.5c-2 26.667 -5.83301 52.167 -11.5 76.5s-13.167 47.5 -22.5 69.5c-10 22 -23.833 38.667 -41.5 50
s-39.5 17 -65.5 17c-28.667 0 -52.334 -7 -71.001 -21s-32.667 -35 -42 -63c-8.66699 -28 -15.5 -57.333 -20.5 -88s-7.83301 -62.667 -8.5 -96v-3v-3v-3.5v-3.5v-3v-3v-3.5v-3.5v2v0z" />
    <glyph glyph-name="one" unicode="1" horiz-adv-x="556" 
d="M375 0l-88.0049 0.00292969v560c-4.66699 -6 -9.83398 -11.5 -15.501 -16.5s-11.5 -9.5 -17.5 -13.5l-9 -6.5l-9 -6.5c-3.33301 -2 -6.5 -4 -9.5 -6s-6.16699 -4 -9.5 -6c-10.667 -6.66699 -21.167 -12.834 -31.5 -18.501s-20.5 -10.834 -30.5 -15.501l-25.5 -11.5
c-7 -3 -13.167 -5.5 -18.5 -7.5v87c0.666992 -0.666992 1.33398 -1 2.00098 -1s1.33398 0.333008 2.00098 1l1 0.5c0.666992 0.333008 1.33398 0.5 2.00098 0.5s1.33398 0.166992 2.00098 0.5s1.33398 0.833008 2.00098 1.5l1 0.5
c0.666992 0.333008 1.33398 0.833008 2.00098 1.5c20 10 39.5 21.333 58.5 34s37.5 26.334 55.5 41.001c18 15.333 33.5 31.166 46.5 47.499s23.833 33.166 32.5 50.499l57 2v-719v0v0z" />
    <glyph glyph-name="two" unicode="2" horiz-adv-x="556" 
d="M505 85l-0.00585938 -85.001h-474v0v0v0v1v0v0v0.5v1.5c0 21.333 3.5 41.833 10.5 61.5s17.5 38.834 31.5 57.501s29 36.5 45 53.5s32.667 32.833 50 47.5c5.33301 5.33301 10.666 10.166 15.999 14.499l16 13.5l8 6c2.66699 2 5.33398 4.33301 8.00098 7
c2 2 4.33301 4 7 6l8 6l25 20.5c8 6.33301 15.333 12.5 22 18.5c7.33301 6 14.166 12 20.499 18l18.5 18l4.5 4.5l5.5 5.5l4.5 4.5c1.66699 1.66699 3.16699 3.5 4.5 5.5s2.83301 3.83301 4.5 5.5l5.5 5.5l4.5 4.5c1.66699 1.66699 3.16699 3.5 4.5 5.5
c12.667 14 23 27 31 39s13.667 23.333 17 34s5.83301 20.5 7.5 29.5s2.5 17.5 2.5 25.5c0 18 -3.16699 34.333 -9.5 49s-15.833 28 -28.5 40s-27.167 21 -43.5 27s-34.166 9 -53.499 9c-2 0 -5 -0.166992 -9 -0.5s-9.66699 -0.833008 -17 -1.5
c-6.66699 -0.666992 -13.667 -2.16699 -21 -4.5s-14.666 -5.5 -21.999 -9.5c-8.66699 -4.66699 -17.167 -10.5 -25.5 -17.5s-16.166 -15.5 -23.499 -25.5s-12.833 -22 -16.5 -36s-5.5 -30.667 -5.5 -50l-90 12l2.5 15c1 6 1.83301 12.333 2.5 19
c1.33301 7.33301 3.16602 14.833 5.49902 22.5s5.16602 15.5 8.49902 23.5c6 14.667 13.167 27.667 21.5 39s17.5 21.333 27.5 30s20.333 16.167 31 22.5s21.334 11.5 32.001 15.5c9.33301 3.33301 18.5 6.33301 27.5 9s17.833 4.33398 26.5 5.00098
c9.33301 1.33301 17.833 2.33301 25.5 3s14.834 1 21.501 1c33.333 0 62.833 -4 88.5 -12s46.834 -20 63.501 -36c17.333 -16 31.333 -32.5 42 -49.5s18.334 -35.167 23.001 -54.5c1.33301 -4 2.16602 -8 2.49902 -12s0.833008 -8 1.5 -12s1.16699 -8 1.5 -12
s0.5 -7.66699 0.5 -11c0 -17.333 -2.66699 -35.5 -8 -54.5s-13.666 -38.5 -24.999 -58.5c-10.667 -20.667 -27.834 -43.667 -51.501 -69s-53.834 -53.666 -90.501 -84.999c-1.33301 -0.666992 -3.16602 -2 -5.49902 -4s-5.16602 -4.66699 -8.49902 -8
c-2 -1.33301 -3.83301 -2.83301 -5.5 -4.5s-3.5 -3.16699 -5.5 -4.5c-1.33301 -2 -3 -3.83301 -5 -5.5s-4 -3.16699 -6 -4.5l-11.5 -9.5c-3.66699 -3 -7.16699 -6.16699 -10.5 -9.5c-3.33301 -2.66699 -6.16602 -4.83398 -8.49902 -6.50098s-4.16602 -3.16699 -5.49902 -4.5
c-20 -16 -36.333 -29.833 -49 -41.5s-22 -21.167 -28 -28.5c-6 -8 -11 -15 -15 -21l-11 -16l352 2v0v0z" />
    <glyph glyph-name="three" unicode="3" horiz-adv-x="556" 
d="M44 189l87.9961 11.998c0.666992 -4.66699 1.5 -9.5 2.5 -14.5s2.16699 -10.5 3.5 -16.5s3.33301 -12 6 -18l8 -18c4.66699 -9.33301 10.5 -18.333 17.5 -27s15.167 -17 24.5 -25s20.5 -14 33.5 -18s27.833 -6 44.5 -6c20.667 0 39.667 3.5 57 10.5s33 17.833 47 32.5
c14 14 24.667 30 32 48s11 37.333 11 58c0 19.333 -3.16699 37.333 -9.5 54s-16.166 31.667 -29.499 45c-12.667 13.333 -27.334 23.333 -44.001 30s-35.667 10 -57 10c-5.33301 0 -10.5 -0.166992 -15.5 -0.5s-9.5 -0.833008 -13.5 -1.5
c-2 -0.666992 -4.16699 -1.16699 -6.5 -1.5s-4.5 -0.5 -6.5 -0.5c-2 -0.666992 -3.83301 -1.16699 -5.5 -1.5s-3.5 -0.833008 -5.5 -1.5h-1.5h-0.5c-0.666992 -0.666992 -1.16699 -1 -1.5 -1h-1.5h-1.5h-0.5c-0.666992 -0.666992 -1.16699 -1 -1.5 -1h-0.5l10 79
c0.666992 -1.33301 1.33398 -2 2.00098 -2h2h2h2c0.666992 -0.666992 1.33398 -1 2.00098 -1h2h2h2h12c4 0 8.33301 0.333008 13 1c4 0.666992 8.33301 1.5 13 2.5s9.33398 2.16699 14.001 3.5c11.333 3.33301 22.333 8 33 14s20.667 13.333 30 22
c9.33301 9.33301 16.5 20.333 21.5 33s7.5 27.334 7.5 44.001c0 17.333 -2.66699 32.833 -8 46.5s-13.666 24.834 -24.999 33.501c-10.667 9.33301 -21.834 16.666 -33.501 21.999s-24.167 8.33301 -37.5 9h-2c-0.666992 0 -1 0.333008 -1 1h-2h-2h-2.5h-3.5
c-20 0 -37.667 -3.16699 -53 -9.5s-28 -16.166 -38 -29.499c-10 -12.667 -18.167 -26.667 -24.5 -42s-10.833 -31.666 -13.5 -48.999l-88 18c4.66699 25.333 11.5 47.833 20.5 67.5s19.833 35.834 32.5 48.501c13.333 13.333 27 24.666 41 33.999s28.333 16.333 43 21
c3.33301 1.33301 6.66602 2.33301 9.99902 3s7 1.66699 11 3l10 2l10 2c6.66699 1.33301 13 2.16602 19 2.49902s12 0.5 18 0.5c30 0 57.5 -4.5 82.5 -13.5s47.5 -22.5 67.5 -40.5c19.333 -18 34 -38 44 -60s15 -46 15 -72c0 -4.66699 -0.333008 -9.83398 -1 -15.501
s-1.66699 -11.834 -3 -18.501c-0.666992 -6.66699 -2.33398 -13.167 -5.00098 -19.5s-5.66699 -12.833 -9 -19.5s-7.5 -13.334 -12.5 -20.001s-10.833 -13 -17.5 -19s-14.167 -11.667 -22.5 -17s-17.5 -10.333 -27.5 -15v0l13.5 -4.5c5 -1.66699 9.83301 -3.5 14.5 -5.5
c5.33301 -2 10.666 -4.33301 15.999 -7s11 -5.66699 17 -9c2.66699 -2 5.33398 -4.16699 8.00098 -6.5s5.33398 -4.83301 8.00098 -7.5s5.33398 -5.16699 8.00098 -7.5s5.33398 -5.16602 8.00098 -8.49902c4.66699 -6 9 -12.333 13 -19s7.66699 -14 11 -22l4 -12l4 -12
c1.33301 -4.66699 2.5 -9 3.5 -13s1.83301 -8 2.5 -12c0.666992 -2.66699 1.16699 -5.33398 1.5 -8.00098s0.5 -5.33398 0.5 -8.00098v-4c0 -1.33301 0.333008 -2.66602 1 -3.99902v-4v-4c0 -34.667 -6.16699 -65.834 -18.5 -93.501s-31.166 -51.167 -56.499 -70.5
c-24.667 -19.333 -50.834 -33.666 -78.501 -42.999s-56.834 -14 -87.501 -14c-36 0 -67.667 4.83301 -95 14.5s-50.333 24.834 -69 45.501s-33.167 42.334 -43.5 65.001s-17.166 46.334 -20.499 71.001v0v1v0v0v0.5v1.5v2v0z" />
    <glyph glyph-name="four" unicode="4" horiz-adv-x="556" 
d="M325 0v171h-310v81l326 464h72v-464h97v-81h-97v-171h-88v0v0zM101 252h224v323h-2l-222 -323v0v0z" />
    <glyph glyph-name="five" unicode="5" horiz-adv-x="556" 
d="M42 188l91.9941 6.99609c2.66699 -18 6.33398 -33.667 11.001 -47s10.334 -24.666 17.001 -33.999c6.66699 -8.66699 13.5 -16.5 20.5 -23.5s14.5 -12.5 22.5 -16.5c6.66699 -4 13.167 -7 19.5 -9s12.5 -3.66699 18.5 -5c6 -0.666992 11.5 -1.16699 16.5 -1.5
s9.16699 -0.5 12.5 -0.5c23.333 0 44.333 4.33301 63 13s34.334 22 47.001 40c13.333 17.333 23.333 36.333 30 57s10 42.334 10 65.001c0 27.333 -3.66699 51 -11 71s-18.666 36.667 -33.999 50c-14.667 13.333 -31 23.5 -49 30.5s-37.333 10.5 -58 10.5
c-14.667 0 -28.667 -1.66699 -42 -5s-25.666 -8.33301 -36.999 -15c-10.667 -6.66699 -20.334 -14.167 -29.001 -22.5s-16 -17.166 -22 -26.499l-83 12l70 368h355v-85h-285l-39 -191c9.33301 5.33301 19.333 10.666 30 15.999s22 10 34 14c11.333 4 23 7.16699 35 9.5
s24.333 3.5 37 3.5h4.5h5.5c1.33301 -0.666992 2.83301 -1 4.5 -1h5.5c3.33301 -0.666992 6.66602 -1.16699 9.99902 -1.5s7 -0.833008 11 -1.5c22.667 -4 44.334 -11.667 65.001 -23s40.334 -26.666 59.001 -45.999c19.333 -18.667 33.666 -41.334 42.999 -68.001
s14 -57 14 -91c0 -32 -5.16699 -62.667 -15.5 -92s-26.166 -57 -47.499 -83c-20.667 -26.667 -46.167 -46.334 -76.5 -59.001s-65.166 -19 -104.499 -19h-8.5c-3 0 -5.83301 0.333008 -8.5 1c-3.33301 0 -6.33301 0.166992 -9 0.5s-5.66699 0.5 -9 0.5
c-2.66699 0.666992 -5.66699 1.16699 -9 1.5s-6.33301 0.833008 -9 1.5c-3.33301 0.666992 -6.5 1.33398 -9.5 2.00098s-6.16699 1.33398 -9.5 2.00098c-18.667 4 -36.5 10.833 -53.5 20.5s-33.5 21.834 -49.5 36.501s-28.5 33 -37.5 55s-14.833 47.667 -17.5 77v2v0z" />
    <glyph glyph-name="six" unicode="6" horiz-adv-x="556" 
d="M502 541l-88 -8.00293c-0.666992 1.33301 -1.5 3.83301 -2.5 7.5l-3.5 12.5c-1.33301 5.33301 -3 10.5 -5 15.5s-4.33301 10.167 -7 15.5c-4 7.33301 -9 14.5 -15 21.5s-13 13.833 -21 20.5c-8 6 -17.667 10.667 -29 14s-24 5 -38 5c-17.333 0 -33.5 -3.16699 -48.5 -9.5
s-29.167 -15.833 -42.5 -28.5c-12.667 -12.667 -24 -27.667 -34 -45s-18 -36.666 -24 -57.999l-2 -6c-0.666992 -2 -1 -4 -1 -6c0 -0.666992 -0.166992 -1.5 -0.5 -2.5s-0.5 -1.83301 -0.5 -2.5l-1.5 -3c-0.333008 -0.666992 -0.5 -1.66699 -0.5 -3
c-2 -8.66699 -3.5 -17.5 -4.5 -26.5s-1.83301 -18.167 -2.5 -27.5c-0.666992 -8.66699 -1.16699 -18 -1.5 -28s-0.5 -20.667 -0.5 -32l2 2c9.33301 14.667 20.166 27.667 32.499 39s25.833 21 40.5 29s30.167 14.167 46.5 18.5s33.833 6.5 52.5 6.5
c28 0 54.5 -5.16699 79.5 -15.5s47.833 -26.166 68.5 -47.499c21.333 -20.667 37.166 -45 47.499 -73s15.5 -59.667 15.5 -95v-2v-1v-2v-2v-2v-1v-2v-2c-1.33301 -28.667 -7 -56.334 -17 -83.001s-24.333 -52 -43 -76s-41.667 -41.667 -69 -53s-59 -17 -95 -17
c-25.333 0 -49 2.83301 -71 8.5s-42 14.834 -60 27.501s-33.667 26.5 -47 41.5s-24 31.167 -32 48.5c-6 12.667 -11.333 26.5 -16 41.5s-8.66699 30.833 -12 47.5c-3.33301 17.333 -5.83301 36.666 -7.5 57.999s-2.5 45.333 -2.5 72c0 9.33301 0.166992 20.333 0.5 33
s0.833008 27 1.5 43c1.33301 16 3.33301 32.5 6 49.5s6.33398 34.5 11.001 52.5c6.66699 25.333 16 49.833 28 73.5s27 46.167 45 67.5c17.333 21.333 39.833 37.5 67.5 48.5s59.834 16.5 96.501 16.5h5.5h5.5c1.33301 -0.666992 3 -1 5 -1h6
c4 -0.666992 8 -1.16699 12 -1.5s8 -0.833008 12 -1.5c17.333 -3.33301 34.333 -9.16602 51 -17.499s33 -19.166 49 -32.499c15.333 -12.667 27.833 -29.5 37.5 -50.5s16.5 -45.5 20.5 -73.5v2v0zM143 231.997c0 -23.333 3.33301 -45.166 10 -65.499
s16.334 -39.166 29.001 -56.499c13.333 -17.333 28.833 -30.333 46.5 -39s37.5 -13 59.5 -13s41.333 4.33301 58 13s31 21.667 43 39c11.333 17.333 20 35.666 26 54.999s9 39.333 9 60c0 22.667 -3.16699 43.5 -9.5 62.5s-15.5 36.167 -27.5 51.5
c-12.667 15.333 -27.5 26.833 -44.5 34.5s-36.167 11.5 -57.5 11.5h-4h-4h-2h-2c-0.666992 -0.666992 -1.16699 -1 -1.5 -1h-1.5c-16 -2 -31.333 -6.5 -46 -13.5s-28.667 -17.167 -42 -30.5c-12.667 -12.667 -22.334 -28.334 -29.001 -47.001s-10 -39.667 -10 -63v2v0z" />
    <glyph glyph-name="seven" unicode="7" horiz-adv-x="556" 
d="M48 621l-0.000976562 85.0029h463v-68c-6.66699 -8.66699 -14.667 -18.5 -24 -29.5s-19.666 -24.167 -30.999 -39.5c-11.333 -14.667 -22.833 -30.834 -34.5 -48.501s-23.5 -36.834 -35.5 -57.501c-16.667 -29.333 -33 -61.333 -49 -96s-31.333 -71.667 -46 -111
s-26.334 -80.5 -35.001 -123.5s-14.667 -87.167 -18 -132.5h-90c0 21.333 1.66699 44.666 5 69.999s8.33301 52.333 15 81c6 29.333 13.667 58.666 23 87.999s20.333 59.333 33 90c10 25.333 21.333 50.833 34 76.5s26.334 50.834 41.001 75.501
c14.667 25.333 30.167 49.5 46.5 72.5s33.833 44.833 52.5 65.5l-350 2v0v0z" />
    <glyph glyph-name="eight" unicode="8" horiz-adv-x="556" 
d="M178 387l0.000976562 2.00195c-2.66699 0 -6 0.5 -10 1.5s-8 2.5 -12 4.5c-2 0.666992 -4 1.5 -6 2.5s-4 2.16699 -6 3.5c-2.66699 1.33301 -5 2.66602 -7 3.99902l-6 4c-8 5.33301 -15.5 11.5 -22.5 18.5s-13.5 15.5 -19.5 25.5c-6 9.33301 -10.5 20.666 -13.5 33.999
s-4.5 28.333 -4.5 45c0 25.333 4.5 48.666 13.5 69.999s22.5 41.333 40.5 60c18 18 39.5 31.667 64.5 41s53.833 14 86.5 14c33.333 0 62.833 -4.83301 88.5 -14.5s47.5 -24.167 65.5 -43.5c18 -18.667 31.5 -38.834 40.5 -60.501s13.5 -44.5 13.5 -68.5
c0 -16 -1.66699 -30.333 -5 -43s-8 -23.667 -14 -33c-6 -10 -12.5 -18.5 -19.5 -25.5s-14.167 -13.167 -21.5 -18.5l-12 -8c-4 -2.66699 -8 -5 -12 -7s-7.66699 -3.5 -11 -4.5s-6.66602 -2.16699 -9.99902 -3.5v0c19.333 -7.33301 37 -16.166 53 -26.499
s30.333 -23.166 43 -38.499c12.667 -14.667 22.167 -32 28.5 -52s9.5 -42.667 9.5 -68c0 -30 -5.33301 -57.5 -16 -82.5s-26.667 -48.167 -48 -69.5c-21.333 -20.667 -46.333 -36.167 -75 -46.5s-60.667 -15.5 -96 -15.5c-36 0 -68.333 5.16699 -97 15.5
s-53.667 25.833 -75 46.5c-21.333 21.333 -37.333 44.833 -48 70.5s-16 53.834 -16 84.501c0 5.33301 0.333008 11.166 1 17.499l2 19.5c1.33301 7.33301 3 14.666 5 21.999s4.66699 14.666 8 21.999c1.33301 3.33301 2.66602 6.33301 3.99902 9s2.66602 5.66699 3.99902 9
c1.33301 2.66699 3 5.5 5 8.5s4 5.83301 6 8.5c4 6 8.5 11.833 13.5 17.5s10.833 10.834 17.5 15.501c6.66699 5.33301 13 9.83301 19 13.5s12 6.5 18 8.5c5.33301 2 10.833 3.83301 16.5 5.5s11.167 2.83398 16.5 3.50098v2v0zM132.001 206.002
c0 -21.333 3.33203 -40.665 9.99902 -57.998s16.667 -33 30 -47c13.333 -14.667 28.833 -25.5 46.5 -32.5s37.5 -10.5 59.5 -10.5c19.333 0 37.5 3.16699 54.5 9.5s32.833 15.833 47.5 28.5c14 13.333 24.667 28.666 32 45.999s11 37.333 11 60s-3.66699 43 -11 61
s-18.333 33.333 -33 46c-14.667 13.333 -30.667 23.166 -48 29.499s-35.666 9.5 -54.999 9.5c-22.667 0 -43 -3.66699 -61 -11s-33.333 -18.666 -46 -33.999c-12.667 -14.667 -22 -30.334 -28 -47.001s-9 -34 -9 -52v2v0zM161 537.003
c0 -19.333 2.83398 -36.167 8.50098 -50.5s14.167 -26.166 25.5 -35.499s23.166 -16.5 35.499 -21.5s25.5 -8.16699 39.5 -9.5h2h2h2h2c16 0 31 2.5 45 7.5s26.333 12.833 37 23.5c11.333 10 19.833 21.667 25.5 35s8.5 28 8.5 44s-2.83301 31 -8.5 45
s-14.167 26.333 -25.5 37c-10.667 11.333 -23 19.666 -37 24.999s-29.333 8 -46 8c-18 0 -34 -2.83301 -48 -8.5s-26.333 -14.167 -37 -25.5s-18.5 -23.333 -23.5 -36s-7.5 -26 -7.5 -40v2v0z" />
    <glyph glyph-name="nine" unicode="9" horiz-adv-x="556" 
d="M56 166l84.0039 7c0.666992 -3.33301 1.5 -7 2.5 -11s1.83301 -8.66699 2.5 -14c0.666992 -2.66699 1.33398 -5.16699 2.00098 -7.5s1.33398 -4.5 2.00098 -6.5c0.666992 -2.66699 1.66699 -5.16699 3 -7.5s2.66602 -4.83301 3.99902 -7.5c3.33301 -8 8 -15.5 14 -22.5
s13 -13.5 21 -19.5c8 -6.66699 17.667 -11.5 29 -14.5s24.333 -4.5 39 -4.5c23.333 0 43.666 3.83301 60.999 11.5s31.666 19.167 42.999 34.5s21.166 31.666 29.499 48.999s14.833 35.333 19.5 54c3.33301 12.667 5.83301 25 7.5 37s2.83398 23.667 3.50098 35
c1.33301 11.333 2.16602 21.833 2.49902 31.5s0.5 17.834 0.5 24.501l-2 2c-1.33301 -3.33301 -2.83301 -6.16602 -4.5 -8.49902l-4.5 -6.5c-0.666992 -0.666992 -1.33398 -1.66699 -2.00098 -3s-1.66699 -2.33301 -3 -3c-0.666992 -1.33301 -1.33398 -2.5 -2.00098 -3.5
s-1.66699 -2.16699 -3 -3.5c-8 -8.66699 -17 -16.834 -27 -24.501s-21.333 -15.167 -34 -22.5c-12.667 -6.66699 -26.334 -11.834 -41.001 -15.501s-30.667 -5.5 -48 -5.5c-27.333 0 -53.333 5 -78 15s-47.667 25.333 -69 46c-22 20 -38.333 44.5 -49 73.5
s-16 62.167 -16 99.5c0 35.333 5.33301 67.5 16 96.5s26.334 54.833 47.001 77.5c21.333 22.667 45.5 39.667 72.5 51s56.833 17 89.5 17c17.333 0 34.333 -1.83301 51 -5.5s32.667 -9.16699 48 -16.5c15.333 -6.66699 29.666 -15.334 42.999 -26.001
s25.666 -22.667 36.999 -36c9.33301 -11.333 18 -24.666 26 -39.999s15 -32.666 21 -51.999c6 -18.667 10.667 -42.334 14 -71.001s5 -61.667 5 -99c0 -8.66699 -0.166992 -19.167 -0.5 -31.5s-1.16602 -27.166 -2.49902 -44.499
c-0.666992 -16.667 -2.33398 -34 -5.00098 -52s-6.66699 -36.333 -12 -55c-6.66699 -25.333 -16.167 -49.5 -28.5 -72.5s-27.166 -45.167 -44.499 -66.5c-18 -20.667 -40.5 -36 -67.5 -46s-58.833 -15 -95.5 -15c-4.66699 0 -10.167 0.166992 -16.5 0.5
s-14.166 1.16602 -23.499 2.49902c-8.66699 0.666992 -17.834 2.33398 -27.501 5.00098s-19.5 6 -29.5 10c-12 5.33301 -23.333 12.333 -34 21s-21 19 -31 31s-18.167 27 -24.5 45s-11.166 38.333 -14.499 61v2v0zM416.004 481c0 21.333 -3.16699 41.667 -9.5 61
s-15.833 37.333 -28.5 54c-12.667 16 -27.167 28.167 -43.5 36.5s-35.166 12.5 -56.499 12.5c-20.667 0 -39.834 -4.16699 -57.501 -12.5s-33.167 -21.166 -46.5 -38.499c-14 -16.667 -24.333 -35.334 -31 -56.001s-10 -42.667 -10 -66s3.5 -44.333 10.5 -63
s17.5 -35 31.5 -49s29.5 -24.5 46.5 -31.5s35.167 -10.5 54.5 -10.5c23.333 0 43.833 4 61.5 12s32.167 20.333 43.5 37c11.333 16 20 33.5 26 52.5s9 38.833 9 59.5v2v0z" />
    <glyph glyph-name="colon" unicode=":" 
d="M90 0v100h100v-100h-100v0v0zM90 418v100h100v-100h-100v0v0z" />
    <glyph glyph-name="semicolon" unicode=";" 
d="M90 0l-0.00195312 100.003h100v-100c0 -4 -0.166992 -8.66699 -0.5 -14s-0.833008 -11.333 -1.5 -18c-0.666992 -6 -1.66699 -12.333 -3 -19s-3.33301 -13.334 -6 -20.001s-6 -13.167 -10 -19.5s-8.66699 -12.5 -14 -18.5c-6 -6 -12.833 -11.667 -20.5 -17
s-16.5 -10.333 -26.5 -15l-24 37c11.333 5.33301 20.833 11.666 28.5 18.999s12.834 15.666 15.501 24.999c3.33301 9.33301 5.83301 19 7.5 29s2.83398 20.333 3.50098 31h-49v0v0zM89.998 418.003v100h100v-100h-100v0v0z" />
    <glyph glyph-name="less" unicode="&#x3c;" horiz-adv-x="584" 
d="M55 313v82l474 200v-87l-376 -154l376 -156v-87l-474 202v0v0z" />
    <glyph glyph-name="equal" unicode="=" horiz-adv-x="584" 
d="M529 203h-474v82h474v-82v0v0zM529 421h-474v82h474v-82v0v0z" />
    <glyph glyph-name="greater" unicode="&#x3e;" horiz-adv-x="584" 
d="M529 393v-82l-474 -200v87l376 154l-376 156v87l474 -202v0v0z" />
    <glyph glyph-name="question" unicode="?" horiz-adv-x="556" 
d="M227 0v100h100v-100h-100v0v0zM136 511l-90.0029 9.99805l2.5 13c1 5.33301 1.83301 11.333 2.5 18c1.33301 6 3.16602 12.667 5.49902 20s5.16602 15 8.49902 23c6 15.333 13 29 21 41s17 22.333 27 31c10 9.33301 20 17.166 30 23.499s20.333 11.833 31 16.5
c10 4 19.833 7.33301 29.5 10s18.834 4.33398 27.501 5.00098c9.33301 1.33301 17.833 2.33301 25.5 3s14.834 1 21.501 1c33.333 0 63.833 -4.66699 91.5 -14s52.167 -23.333 73.5 -42s37.5 -39.5 48.5 -62.5s16.5 -48.5 16.5 -76.5c0 -16.667 -1.66699 -32 -5 -46
s-8.66602 -27 -15.999 -39c-6.66699 -12 -14.5 -23.5 -23.5 -34.5s-19.167 -21.833 -30.5 -32.5c-2.66699 -2.66699 -5.16699 -5.33398 -7.5 -8.00098s-5.16602 -5.33398 -8.49902 -8.00098l-4 -4c-1.33301 -1.33301 -2.66602 -2.33301 -3.99902 -3
c-2 -1.33301 -3.66699 -2.66602 -5 -3.99902l-4 -4l-17 -15.5l-15 -13.5c-4.66699 -4.66699 -8.66699 -9 -12 -13l-10 -12c-6 -6.66699 -10.833 -14 -14.5 -22s-6.5 -16.333 -8.5 -25s-3.5 -19.167 -4.5 -31.5s-1.5 -26.166 -1.5 -41.499l-84 2v0v2v2v2v0.5v1.5v0.5v1.5
c-0.666992 1.33301 -1 2.5 -1 3.5v2.5v3.5v2.5c0 17.333 1 33.333 3 48s5 27.334 9 38.001c4 11.333 9.16699 22.166 15.5 32.499s13.833 20.5 22.5 30.5c4 5.33301 8.33301 10.5 13 15.5s9.66699 9.83301 15 14.5c5.33301 5.33301 11 10.5 17 15.5l19 16.5l4 4
c1.33301 1.33301 3 2.66602 5 3.99902c1.33301 0.666992 2.66602 1.66699 3.99902 3l4 4c2.66699 2 5.16699 4.16699 7.5 6.5l7.5 7.5c6 6 11.333 12.333 16 19s9 13.334 13 20.001c3.33301 7.33301 6 15 8 23s3 16.333 3 25c0 16.667 -3.33301 32.5 -10 47.5
s-16.667 28.833 -30 41.5c-12.667 13.333 -27.334 23.333 -44.001 30s-35 10 -55 10c-21.333 0 -40.166 -3.5 -56.499 -10.5s-30.166 -17.167 -41.499 -30.5s-20.833 -28.666 -28.5 -45.999s-13.167 -36.666 -16.5 -57.999v2v0z" />
    <glyph glyph-name="at" unicode="@" horiz-adv-x="1015" 
d="M643 439l16.998 76.0029h87l-70 -328c-2.66699 -11.333 -4.83398 -21.166 -6.50098 -29.499s-3.16699 -15.5 -4.5 -21.5c-1.33301 -6.66699 -2.33301 -12.167 -3 -16.5s-1 -7.5 -1 -9.5c0 -4.66699 0.666992 -9 2 -13s3.33301 -7.66699 6 -11
c3.33301 -2.66699 7 -4.83398 11 -6.50098s9 -2.5 15 -2.5c5.33301 0 11 0.833008 17 2.5s12.667 4.5 20 8.5c7.33301 3.33301 15 7.66602 23 12.999s16 11.333 24 18c13.333 11.333 26 24.666 38 39.999s23.333 32.666 34 51.999c11.333 19.333 19.666 40.5 24.999 63.5
s8 47.5 8 73.5c0 45.333 -8.5 86.5 -25.5 123.5s-42.5 69.833 -76.5 98.5s-71.667 50.167 -113 64.5s-86.333 21.5 -135 21.5c-62.667 0 -119 -10.667 -169 -32s-93 -53 -129 -95c-36.667 -42 -64 -87.5 -82 -136.5s-27 -101.5 -27 -157.5
c0 -66.667 9.83301 -123.667 29.5 -171s49.5 -84.333 89.5 -111c40 -27.333 81.833 -48.5 125.5 -63.5s89.5 -23.833 137.5 -26.5h4.5h5.5h4.5h4.5h4.5c1.66699 0 3.5 -0.333008 5.5 -1h4.5h5.5c35.333 0 67.833 2.16699 97.5 6.5s55.834 11.166 78.501 20.499
c23.333 8.66699 44.166 18 62.499 28s34.5 20.667 48.5 32c7.33301 5.33301 13.833 10.666 19.5 15.999s10.834 10.666 15.501 15.999l12.5 14c3.66699 4 6.83398 8 9.50098 12l88 2l-9 -14.5c-4 -6.33301 -9.66699 -14.833 -17 -25.5
c-6.66699 -10.667 -15.334 -21.667 -26.001 -33s-23 -23 -37 -35c-16.667 -14 -36.167 -27.333 -58.5 -40s-47.166 -24.667 -74.499 -36c-28 -11.333 -59.333 -20 -94 -26s-73 -9 -115 -9c-88 0 -163.667 11.167 -227 33.5s-114 55.5 -152 99.5
c-38.667 43.333 -67.5 90.333 -86.5 141s-28.5 105 -28.5 163c0 13.333 0.5 26.833 1.5 40.5s2.5 27.834 4.5 42.501s5 29.5 9 44.5s8.33301 29.833 13 44.5c13.333 41.333 32 80.666 56 117.999s54 73 90 107s79.833 59.667 131.5 77s110.834 26 177.501 26
s125.334 -9.33301 176.001 -28s93.334 -46.667 128.001 -84c34.667 -36.667 61.5 -75.5 80.5 -116.5s29.833 -83.5 32.5 -127.5v-3.5c0 -1 0.333008 -2.16699 1 -3.5v-2.5v-3.5v-6v-6c0 -44.667 -7 -86.667 -21 -126s-35 -75.666 -63 -108.999s-57.333 -59.333 -88 -78
s-62.667 -29.667 -96 -33h-3c-1.33301 0 -2.33301 -0.333008 -3 -1h-3.5h-3.5h-3c-1.33301 0 -2.33301 -0.333008 -3 -1h-3.5h-3.5c-15.333 0 -28.5 1.16699 -39.5 3.5s-19.5 6.16602 -25.5 11.499c-6.66699 5.33301 -12 11 -16 17s-6.66699 12.333 -8 19
c-0.666992 2 -1.33398 4.16699 -2.00098 6.5s-1 4.83301 -1 7.5c-0.666992 2.66699 -1.16699 5.16699 -1.5 7.5s-0.5 4.83301 -0.5 7.5c-2 -2.66699 -4.16699 -5.16699 -6.5 -7.5l-8.5 -8.5c-1.33301 -1.33301 -2.83301 -2.66602 -4.5 -3.99902
s-3.16699 -2.66602 -4.5 -3.99902c-1.33301 -2 -2.83301 -3.66699 -4.5 -5s-3.16699 -2.66602 -4.5 -3.99902c-7.33301 -6 -15.333 -11.667 -24 -17s-18 -10.666 -28 -15.999c-10 -4.66699 -20.333 -8 -31 -10s-22 -3 -34 -3c-25.333 0 -48.5 5.16699 -69.5 15.5
s-40.167 25.833 -57.5 46.5c-16.667 21.333 -29.167 44.833 -37.5 70.5s-12.5 53.834 -12.5 84.501v10c0 3.33301 0.333008 6.66602 1 9.99902c0 3.33301 0.166992 6.83301 0.5 10.5s0.833008 7.5 1.5 11.5c4.66699 33.333 14 65.5 28 96.5s33 60.5 57 88.5
s49.833 49 77.5 63s56.834 21 87.501 21c4.66699 0 10.5 -0.5 17.5 -1.5l23.5 -3.5c9.33301 -2 18.666 -5.33301 27.999 -10s19 -10.667 29 -18c2 -2 4 -3.83301 6 -5.5s4.33301 -3.5 7 -5.5c2 -2 4 -4.16699 6 -6.5s4 -4.5 6 -6.5l6 -8
c2 -2.66699 4.33301 -5.33398 7 -8.00098l6 -8c2 -2.66699 4 -5.66699 6 -9v2v0zM331.998 212.003c0 -22 2.16602 -41.165 6.49902 -57.498s10.833 -30.166 19.5 -41.499c9.33301 -11.333 18.833 -20.5 28.5 -27.5s19.834 -11.833 30.501 -14.5
c1.33301 -0.666992 2.83301 -1.16699 4.5 -1.5s3.5 -0.5 5.5 -0.5h4.5h5.5h1.5h1.5h0.5h1.5h3.5c1 0 1.83301 0.333008 2.5 1c21.333 2 41.5 9.5 60.5 22.5s37.167 31.5 54.5 55.5s30.333 49.833 39 77.5s13 57.5 13 89.5c0 23.333 -2.83301 43.666 -8.5 60.999
s-14.167 32 -25.5 44c-11.333 11.333 -23.5 20 -36.5 26s-27.167 9 -42.5 9c-19.333 0 -37 -4 -53 -12s-30.333 -19.667 -43 -35s-23.834 -31.5 -33.501 -48.5s-17.5 -34.5 -23.5 -52.5c-2.66699 -8.66699 -5.16699 -17.334 -7.5 -26.001s-4.16602 -17.334 -5.49902 -26.001
s-2.33301 -16.667 -3 -24s-1 -14.333 -1 -21v2v0z" />
    <glyph glyph-name="A" unicode="A" horiz-adv-x="667" 
d="M-1 0l275 716h102l292 -716h-107l-84 218h-299l-79 -218h-100v0v0zM284 504l-79.001 -211.001h243l-75 199c-0.666992 0 -1.16699 0.5 -1.5 1.5s-0.5 1.83301 -0.5 2.5c-0.666992 1.33301 -1.16699 2.5 -1.5 3.5s-0.833008 1.83301 -1.5 2.5
c-0.666992 1.33301 -1.16699 2.5 -1.5 3.5s-0.5 2.16699 -0.5 3.5c-0.666992 0.666992 -1.16699 1.66699 -1.5 3s-0.5 2.33301 -0.5 3c-4 9.33301 -7.66699 18.833 -11 28.5l-10 29.5c-3.33301 10 -6.5 20.5 -9.5 31.5l-9.5 34.5l-2 2l-7.5 -36.5
c-2.33301 -11.667 -5.16602 -23.167 -8.49902 -34.5c-2.66699 -11.333 -6 -22.666 -10 -33.999l-12 -34v2v0z" />
    <glyph glyph-name="B" unicode="B" horiz-adv-x="667" 
d="M74 0l-0.00195312 715.999h269c6.66699 -1.33301 13.834 -2.16602 21.501 -2.49902s15.834 -0.833008 24.501 -1.5s17.5 -1.66699 26.5 -3s17.833 -3 26.5 -5c3.33301 -0.666992 6.33301 -1.66699 9 -3s5.66699 -2.33301 9 -3c2.66699 -1.33301 5.5 -2.5 8.5 -3.5
s5.83301 -2.16699 8.5 -3.5c5.33301 -2.66699 10.833 -5.66699 16.5 -9s11.167 -7 16.5 -11c11.333 -8.66699 21.333 -18.334 30 -29.001s16 -22 22 -34c6 -12.667 10.5 -25.334 13.5 -38.001s4.5 -25.667 4.5 -39c0 -4 -0.333008 -9.16699 -1 -15.5
s-1.66699 -13.5 -3 -21.5c-1.33301 -8.66699 -4 -17.334 -8 -26.001s-9 -17.667 -15 -27c-4 -6 -8.33301 -11.667 -13 -17s-10 -10.666 -16 -15.999s-12.5 -10.5 -19.5 -15.5s-14.833 -9.5 -23.5 -13.5c17.333 -5.33301 32.833 -11.833 46.5 -19.5s25.167 -16.5 34.5 -26.5
s17.5 -20 24.5 -30s12.5 -20 16.5 -30c2 -6 3.83301 -12 5.5 -18s2.83398 -11.667 3.50098 -17c1.33301 -6 2.16602 -11.5 2.49902 -16.5s0.5 -10.167 0.5 -15.5c0 -20.667 -2.66699 -40.167 -8 -58.5s-13 -36.166 -23 -53.499c-10.667 -16.667 -22.667 -31 -36 -43
s-28.666 -21.333 -45.999 -28c-15.333 -6.66699 -30 -11.667 -44 -15s-27.667 -5.66602 -41 -6.99902c-12.667 -0.666992 -24.834 -1 -36.501 -1h-32.5h-274v0v0zM168.998 330.999l-0.00292969 -246h178c4.66699 -1.33301 9.66699 -2 15 -2h18c6 0 12.333 0.5 19 1.5
s13.334 2.16699 20.001 3.5c12 2.66699 23.667 6.66699 35 12s22 12.333 32 21c10 8 17.667 19.167 23 33.5s8 31.5 8 51.5s-2.66699 37 -8 51s-13.666 25.333 -24.999 34c-10.667 8.66699 -22.167 15.667 -34.5 21s-25.166 9.33301 -38.499 12
c-6.66699 1.33301 -13.5 2.33301 -20.5 3s-13.833 1 -20.5 1h-10c-3.33301 0 -6.33301 0.333008 -9 1h-8h-8l-166 2v0v0zM168.995 630.999l-0.000976562 -215.003h155c4 -1.33301 8 -2 12 -2h13c4.66699 0 9.33398 0.166992 14.001 0.5s9.33398 0.833008 14.001 1.5
c13.333 1.33301 26.333 3.83301 39 7.5s24.667 8.83398 36 15.501c11.333 7.33301 20 17.5 26 30.5s9 29.5 9 49.5c0 23.333 -3.66699 42.333 -11 57s-18.333 25.334 -33 32.001c-14.667 6 -29.834 10.833 -45.501 14.5s-32.167 5.83398 -49.5 6.50098h-8.5h-9.5h-8.5h-9.5
l-143 2v0v0z" />
    <glyph glyph-name="C" unicode="C" horiz-adv-x="722" 
d="M589 251l94 -24c-8 -31.333 -17.5 -58.666 -28.5 -81.999s-23.833 -43 -38.5 -59c-14.667 -16.667 -29.667 -30.834 -45 -42.501s-31 -21.167 -47 -28.5c-12.667 -6 -25.334 -10.5 -38.001 -13.5s-25 -5.5 -37 -7.5s-23.167 -3.5 -33.5 -4.5s-19.833 -1.5 -28.5 -1.5
c-30.667 0 -58.667 2.16699 -84 6.5s-47.666 10.833 -66.999 19.5c-19.333 9.33301 -36.666 19.5 -51.999 30.5s-28.666 22.833 -39.999 35.5c-8.66699 10 -16.667 20.333 -24 31s-14 21.667 -20 33s-11.167 22.666 -15.5 33.999s-8.16602 23 -11.499 35
c-4 13.333 -7.5 26.5 -10.5 39.5s-5.16699 25.833 -6.5 38.5c-2 12.667 -3.33301 24.834 -4 36.501s-1 22.834 -1 33.501c0 63.333 8.5 118 25.5 164s42.833 83.667 77.5 113c34 29.333 70.5 51.333 109.5 66s80.5 22 124.5 22c32 0 62.5 -4.16699 91.5 -12.5
s56.5 -20.833 82.5 -37.5s48 -38.167 66 -64.5s32.333 -57.833 43 -94.5l-93 -20c-1.33301 2.66699 -2.83301 6 -4.5 10s-3.16699 8.33301 -4.5 13c-2 4 -4 8.33301 -6 13l-6 14c-6.66699 12 -14.834 23.667 -24.501 35s-21.167 22 -34.5 32
c-12.667 10 -28.334 17.667 -47.001 23s-40 8 -64 8c-37.333 0 -69.5 -5.16699 -96.5 -15.5s-49.167 -25.5 -66.5 -45.5c-16.667 -20 -30.5 -41.167 -41.5 -63.5s-19.167 -45.5 -24.5 -69.5c-2 -8 -3.5 -15.833 -4.5 -23.5s-1.83301 -15.167 -2.5 -22.5
s-1.16699 -14.5 -1.5 -21.5s-0.5 -14.167 -0.5 -21.5c0 -4.66699 0.166992 -11.5 0.5 -20.5s0.833008 -19.833 1.5 -32.5c1.33301 -12.667 3.16602 -25.667 5.49902 -39s5.5 -27 9.5 -41c2 -8 4.5 -15.833 7.5 -23.5s6.5 -15.167 10.5 -22.5
c3.33301 -8 7.33301 -15.5 12 -22.5s9.66699 -13.5 15 -19.5c9.33301 -10.667 19.333 -20.167 30 -28.5s22 -15.5 34 -21.5s24.167 -10.833 36.5 -14.5s24.833 -6.16699 37.5 -7.5c2 -0.666992 4.33301 -1.16699 7 -1.5s5.33398 -0.5 8.00098 -0.5h7.5h7.5
c31.333 0 58.666 4.16699 81.999 12.5s43 20.833 59 37.5c15.333 17.333 28.333 35.166 39 53.499s19 37.833 25 58.5c0 1.33301 0.166992 2.83301 0.5 4.5s0.833008 3.5 1.5 5.5c0.666992 1.33301 1.16699 2.83301 1.5 4.5s0.833008 3.5 1.5 5.5v2v0z" />
    <glyph glyph-name="D" unicode="D" horiz-adv-x="722" 
d="M80 0v716h247c9.33301 -1.33301 18.5 -2.16602 27.5 -2.49902s18.5 -0.5 28.5 -0.5c9.33301 -0.666992 18.833 -1.5 28.5 -2.5s19.5 -2.16699 29.5 -3.5c12.667 -2.66699 25.167 -6 37.5 -10s24.833 -9 37.5 -15c12 -6 23.833 -13.667 35.5 -23s22.834 -20 33.501 -32
c0.666992 -0.666992 1.16699 -1.33398 1.5 -2.00098s0.833008 -1 1.5 -1c0.666992 -0.666992 1.16699 -1.33398 1.5 -2.00098s0.833008 -1.33398 1.5 -2.00098c1.33301 -1.33301 2.5 -2.66602 3.5 -3.99902s1.83301 -2.66602 2.5 -3.99902
c9.33301 -12 18.166 -26 26.499 -42s16.5 -34 24.5 -54s14 -43 18 -69s6 -55 6 -87c0 -33.333 -2.33301 -64.5 -7 -93.5s-11.667 -55.5 -21 -79.5c-9.33301 -24.667 -20.333 -46.667 -33 -66s-26.667 -36.333 -42 -51c-14 -12.667 -29 -23.667 -45 -33
s-33.667 -16.666 -53 -21.999c-18.667 -4.66699 -37.667 -8.33398 -57 -11.001s-39 -4 -59 -4h-4.5h-4.5h-4h-4h-258v0v0zM175 631l-0.00292969 -546h153v-2v0v0h1v0v0h21c7.33301 0 15.333 0.333008 24 1c8.66699 0 17.334 0.666992 26.001 2s17.334 3.33301 26.001 6
c18.667 5.33301 36.5 13.833 53.5 25.5s33.167 26.834 48.5 45.501c15.333 19.333 26.833 45.5 34.5 78.5s11.5 73.167 11.5 120.5v8v8c-0.666992 2.66699 -1 5.5 -1 8.5v8.5v9c0 2.66699 -0.333008 5.66699 -1 9c0 2.66699 -0.166992 5.5 -0.5 8.5
s-0.833008 5.83301 -1.5 8.5c-2 14 -4.83301 28 -8.5 42s-8.16699 27.667 -13.5 41s-12.333 26 -21 38s-18.667 23 -30 33c-12.667 11.333 -25.667 20.166 -39 26.499s-27.333 10.5 -42 12.5s-29.667 3.5 -45 4.5s-30.666 1.5 -45.999 1.5l-150 2v0v0z" />
    <glyph glyph-name="E" unicode="E" horiz-adv-x="667" 
d="M79 0v716h518v-85h-423v-219h396v-85h-396v-242h440v-85h-535v0v0z" />
    <glyph glyph-name="F" unicode="F" horiz-adv-x="611" 
d="M80 0v716h483v-85h-388v-222h336v-85h-336v-324h-95v0v0z" />
    <glyph glyph-name="G" unicode="G" horiz-adv-x="778" 
d="M411 280v85.001h303v-265c-4 -4 -8.33301 -8 -13 -12s-10 -8.33301 -16 -13s-12.5 -9.16699 -19.5 -13.5l-22.5 -13.5c-13.333 -8 -28 -15.5 -44 -22.5s-33.667 -13.5 -53 -19.5c-18.667 -5.33301 -38.667 -9.66602 -60 -12.999s-44 -5 -68 -5c-54.667 0 -104 8 -148 24
s-83 40.333 -117 73c-34 33.333 -59.333 72.166 -76 116.499s-25 94.833 -25 151.5c0 10 0.333008 20.333 1 31s1.66699 21.667 3 33s3.33301 22.833 6 34.5s6 23.5 10 35.5c9.33301 29.333 22.5 57.833 39.5 85.5s38.5 53.834 64.5 78.501
c26 25.333 58.5 44.166 97.5 56.499s84.833 18.5 137.5 18.5c35.333 0 66.666 -3 93.999 -9s50.666 -15 69.999 -27s36.333 -24.5 51 -37.5s26.667 -26.5 36 -40.5c6.66699 -10 12.334 -19.5 17.001 -28.5s8.33398 -18.167 11.001 -27.5c3.33301 -8.66699 6 -16.5 8 -23.5
s3.66699 -13.167 5 -18.5l-85 -22c-1.33301 3.33301 -2.83301 7.5 -4.5 12.5l-5.5 16.5c-2 6 -4.5 12 -7.5 18s-6.5 12.333 -10.5 19c-6.66699 11.333 -15.167 22 -25.5 32s-22.166 19.333 -35.499 28c-14 9.33301 -30.833 16.166 -50.5 20.499s-42.167 6.5 -67.5 6.5
c-36 0 -67.667 -4 -95 -12s-50 -20 -68 -36s-33.167 -32.833 -45.5 -50.5s-22.166 -36.167 -29.499 -55.5c-4.66699 -12.667 -8.66699 -25.334 -12 -38.001s-5.66602 -25 -6.99902 -37s-2.33301 -22.667 -3 -32s-1 -17.666 -1 -24.999c0 -18.667 1.16699 -37.5 3.5 -56.5
s5.83301 -37.5 10.5 -55.5s11.167 -35 19.5 -51s18.833 -31 31.5 -45c10 -10.667 20.833 -20.5 32.5 -29.5s24.167 -16.5 37.5 -22.5s27 -11.167 41 -15.5s28 -7.5 42 -9.5c3.33301 -0.666992 6.83301 -1.16699 10.5 -1.5s7.5 -0.5 11.5 -0.5c2 0 4 -0.166992 6 -0.5
s4 -0.5 6 -0.5h5h6c15.333 0 30.166 1 44.499 3s27.833 5 40.5 9c13.333 4 25.666 8.16699 36.999 12.5s21.666 8.83301 30.999 13.5c7.33301 4 14 7.83301 20 11.5l16 9.5l12 8.5c3.33301 2.33301 6 4.5 8 6.5v135h-211v0v0z" />
    <glyph glyph-name="H" unicode="H" horiz-adv-x="722" 
d="M80 0v716h95v-294h372v294h95v-716h-95v337h-372v-337h-95v0v0z" />
    <glyph glyph-name="I" unicode="I" 
d="M92 0v716h95v-716h-95v0v0z" />
    <glyph glyph-name="J" unicode="J" horiz-adv-x="500" 
d="M27 204l85 11.9941v-14.5c0 -4.33301 0.333008 -9.16602 1 -14.499c0.666992 -4.66699 1.5 -9.5 2.5 -14.5s1.83301 -10.167 2.5 -15.5c2 -10.667 5.5 -20.834 10.5 -30.501s10.833 -19.167 17.5 -28.5c7.33301 -8.66699 17.166 -15.334 29.499 -20.001
s26.833 -7 43.5 -7c19.333 0 35.666 2.5 48.999 7.5s23.333 12.833 30 23.5c7.33301 10 13 20.833 17 32.5s6.66699 23.834 8 36.501c0 2 0.166992 4 0.5 6s0.5 4.33301 0.5 7c0.666992 2 1 4 1 6v6v12v12v0v1v0v0v0v1v0v0v494h95v-487
c0 -7.33301 -0.166992 -15.166 -0.5 -23.499s-0.833008 -17.166 -1.5 -26.499c-0.666992 -10 -1.66699 -20 -3 -30s-3.33301 -20 -6 -30c-4.66699 -16.667 -11.667 -32.667 -21 -48s-21 -29.666 -35 -42.999c-14 -14 -32 -24.167 -54 -30.5s-48.667 -9.5 -80 -9.5
c-5.33301 0 -11 0.166992 -17 0.5s-12.333 0.833008 -19 1.5l-10 2l-10 2c-4 0.666992 -7.66699 1.33398 -11 2.00098s-6.66602 1.66699 -9.99902 3c-12 2.66699 -23.667 7.83398 -35 15.501s-22.666 16.834 -33.999 27.501c-10.667 11.333 -19.667 25.5 -27 42.5
s-12.666 37.5 -15.999 61.5c-0.666992 5.33301 -1.33398 10.333 -2.00098 15s-1 9 -1 13v11.5v9.5v1.5v1.5v2v2v2v0z" />
    <glyph glyph-name="K" unicode="K" horiz-adv-x="667" 
d="M73 0v716h95v-355l356 355h128l-300 -290l313 -426h-125l-254 362l-118 -114v-248h-95v0v0z" />
    <glyph glyph-name="L" unicode="L" horiz-adv-x="556" 
d="M75 0v716h95v-631h353v-85h-448v0v0z" />
    <glyph glyph-name="M" unicode="M" horiz-adv-x="833" 
d="M76 0l-0.00292969 716.002h142l169 -507l13.5 -42l8.5 -27l5.5 -18c1.66699 -5.33301 2.83398 -10 3.50098 -14v-0.5c0 -0.333008 0.333008 -0.5 1 -0.5v-1v0v-1.5v-0.5v-1.5v-0.5v0h1v-1v0l2 2c0.666992 0.666992 1.16699 1.66699 1.5 3s0.833008 2.66602 1.5 3.99902
c0 0.666992 0.166992 1.66699 0.5 3s0.833008 2.66602 1.5 3.99902c0.666992 2 1.33398 4.16699 2.00098 6.5s1.33398 4.83301 2.00098 7.5v0l1 1v0v0v0.5v1.5c1.33301 4.66699 3 9.5 5 14.5s4 10.5 6 16.5c2 5.33301 4.33301 12.333 7 21s6 18.667 10 30l171 500h126v-716
h-90v599h-2l-206 -599h-85l-205 609h-3v-609h-90v0v0z" />
    <glyph glyph-name="N" unicode="N" horiz-adv-x="722" 
d="M79 0v716h97l374 -562h2v562h90v-716h-97l-374 562h-2v-562h-90v0v0z" />
    <glyph glyph-name="O" unicode="O" horiz-adv-x="778" 
d="M47 349c0 62.667 8.5 117.67 25.5 165.003s42.5 86.666 76.5 117.999s71 54.833 111 70.5s83.333 23.5 130 23.5c48.667 0 93.334 -8.16699 134.001 -24.5s77.334 -41.166 110.001 -74.499c32.667 -32.667 57.167 -71.834 73.5 -117.501s24.5 -97.167 24.5 -154.5
c0 -58 -8.33301 -109.667 -25 -155s-41.667 -84 -75 -116c-32.667 -32.667 -69.334 -56.834 -110.001 -72.501s-84.667 -23.5 -132 -23.5c-56 0 -105.333 9.16699 -148 27.5s-78.667 45.833 -108 82.5c-28.667 37.333 -50.334 76.666 -65.001 117.999s-22 85 -22 131v2v0z
M145 347.003c0 -42.667 5.49902 -80.832 16.499 -114.499s27.833 -63.167 50.5 -88.5c22.667 -26 48.667 -45.333 78 -58s62.333 -19 99 -19c32.667 0 63.167 5.83301 91.5 17.5s54.833 29.167 79.5 52.5s43.167 53.166 55.5 89.499s18.5 79.166 18.5 128.499
c0 51.333 -6.33301 95.5 -19 132.5s-31.667 66.833 -57 89.5c-24.667 22.667 -51 39.667 -79 51s-57.333 17 -88 17c-18.667 0 -37.334 -2.16699 -56.001 -6.5s-36.667 -10.5 -54 -18.5c-18 -8 -34 -18 -48 -30s-26.333 -25.667 -37 -41c-4 -5.33301 -7.66699 -11 -11 -17
s-6.33301 -12 -9 -18c-1.33301 -2.66699 -2.66602 -5.66699 -3.99902 -9s-2.66602 -6.33301 -3.99902 -9c-0.666992 -3.33301 -1.5 -6.5 -2.5 -9.5s-2.16699 -6.16699 -3.5 -9.5c-4.66699 -14.667 -8.16699 -28.667 -10.5 -42s-3.83301 -26.666 -4.5 -39.999
c-0.666992 -12.667 -1.16699 -23.167 -1.5 -31.5s-0.5 -14.5 -0.5 -18.5v2v0z" />
    <glyph glyph-name="P" unicode="P" horiz-adv-x="667" 
d="M77 0l0.00488281 715.993h270c7.33301 -1.33301 14.5 -2.16602 21.5 -2.49902s14.5 -0.5 22.5 -0.5s16 -0.166992 24 -0.5s16 -1.16602 24 -2.49902c5.33301 -0.666992 10.5 -1.5 15.5 -2.5s10.167 -2.16699 15.5 -3.5c4.66699 -1.33301 9.66699 -2.66602 15 -3.99902
s10.333 -2.66602 15 -3.99902c10 -3.33301 19.5 -7.5 28.5 -12.5s17.5 -10.833 25.5 -17.5c9.33301 -8 17.666 -16.5 24.999 -25.5s13.666 -18.833 18.999 -29.5s9.83301 -21.167 13.5 -31.5s6.5 -21.166 8.5 -32.499c0 -3.33301 0.166992 -6.66602 0.5 -9.99902
s0.833008 -6.66602 1.5 -9.99902v-5.5c0 -1.66699 0.333008 -3.16699 1 -4.5v-5.5v-4.5c0 -14.667 -1.16699 -29 -3.5 -43s-5.83301 -28 -10.5 -42s-10.834 -27 -18.501 -39s-16.834 -23.333 -27.501 -34c-6.66699 -6.66699 -13.834 -12.667 -21.501 -18
s-16.167 -10 -25.5 -14l-13.5 -6c-4.33301 -2 -8.5 -3.66699 -12.5 -5l-13.5 -4l-13.5 -4c-8.66699 -2 -17.5 -3.66699 -26.5 -5s-17.833 -2.33301 -26.5 -3s-16.667 -1.16699 -24 -1.5s-14.333 -0.5 -21 -0.5l-193 2v-290h-95v0v0zM172.005 630.993l-0.000976562 -256.002
h184c4.66699 -1.33301 9.66699 -2 15 -2s11.333 0.333008 18 1c6 0 12.333 0.5 19 1.5s13.334 2.5 20.001 4.5c12 3.33301 23.667 8 35 14s22 13.333 32 22c10 9.33301 17.5 21.166 22.5 35.499s7.5 31.833 7.5 52.5c0 3.33301 -0.166992 6.5 -0.5 9.5
s-0.833008 6.16699 -1.5 9.5s-1.16699 6.83301 -1.5 10.5s-1.16602 7.5 -2.49902 11.5c-1.33301 4.66699 -3 9.33398 -5 14.001s-4.33301 9.33398 -7 14.001s-5.83398 9.16699 -9.50098 13.5s-7.5 8.5 -11.5 12.5c-8.66699 7.33301 -17.667 13.333 -27 18
s-19.333 7.33398 -30 8.00098c-10.667 1.33301 -22.167 2.33301 -34.5 3s-25.833 1 -40.5 1l-182 2v0v0z" />
    <glyph glyph-name="Q" unicode="Q" horiz-adv-x="778" 
d="M745 10l-28.001 -66.0029c-13.333 4.66699 -26.5 10 -39.5 16s-25.5 12.667 -37.5 20c-12.667 6.66699 -24.834 13.834 -36.501 21.501s-23.167 15.834 -34.5 24.501l-5 6c-14 -8.66699 -28 -15.667 -42 -21s-28.667 -9.33301 -44 -12
c-14.667 -3.33301 -29.5 -6 -44.5 -8s-30.167 -3 -45.5 -3c-50 0 -95.5 8.33301 -136.5 25s-77.5 42.334 -109.5 77.001c-32 34 -55.833 73.167 -71.5 117.5s-23.5 93.833 -23.5 148.5c0 52 7.5 100 22.5 144s37.833 83.667 68.5 119c30 35.333 66 62 108 80s90 27 144 27
c49.333 0 94.333 -8.33301 135 -25s77.334 -41.667 110.001 -75c32 -33.333 56.167 -72.5 72.5 -117.5s24.5 -95.5 24.5 -151.5c0 -10.667 -0.5 -21.834 -1.5 -33.501s-2.16699 -23.5 -3.5 -35.5c-1.33301 -12.667 -3.5 -25.167 -6.5 -37.5s-6.5 -24.5 -10.5 -36.5
c-4 -12.667 -8.66699 -25 -14 -37s-11.666 -24 -18.999 -36c-6.66699 -12 -14.5 -23.5 -23.5 -34.5s-18.833 -21.5 -29.5 -31.5c9.33301 -6.66699 19 -13.167 29 -19.5s20 -12.166 30 -17.499c10 -6 20.167 -11.5 30.5 -16.5s20.833 -9.5 31.5 -13.5v2v0zM391.999 128.997
l23.001 69l28.5 -11c9 -3.33301 17.167 -6.66602 24.5 -9.99902c4 -1.33301 7.66699 -2.83301 11 -4.5s6.66602 -3.16699 9.99902 -4.5c3.33301 -2 6.66602 -3.83301 9.99902 -5.5l9 -4.5c4.66699 -2.66699 9 -5.33398 13 -8.00098s7.66699 -5.33398 11 -8.00098
s6.5 -5.33398 9.5 -8.00098s5.83301 -5 8.5 -7c9.33301 8.66699 17.666 17.667 24.999 27s14 19.333 20 30c5.33301 10 10.333 20.5 15 31.5s8.33398 21.833 11.001 32.5l6 28.5c2 9.66699 3.33301 18.834 4 27.501c1.33301 9.33301 2.16602 18.333 2.49902 27
s0.5 17 0.5 25c0 50 -6.16699 93.5 -18.5 130.5s-31.166 66.833 -56.499 89.5c-24.667 23.333 -51.167 40.666 -79.5 51.999s-58.166 17 -89.499 17c-6 0 -12 -0.166992 -18 -0.5s-12 -1.16602 -18 -2.49902c-6.66699 -0.666992 -13.167 -1.66699 -19.5 -3
s-12.5 -3 -18.5 -5c-21.333 -6.66699 -41.833 -16.667 -61.5 -30s-38.5 -30.666 -56.5 -51.999c-18 -20.667 -31.333 -47.5 -40 -80.5s-13 -71.5 -13 -115.5c0 -50 5.83301 -92.833 17.5 -128.5s28.834 -64.5 51.501 -86.5c23.333 -22 47.5 -39.167 72.5 -51.5
s51.5 -19.5 79.5 -21.5h3.5h2.5c1.33301 -0.666992 2.5 -1 3.5 -1h2.5h6h6c7.33301 0 14.5 0.333008 21.5 1s13.5 1.33398 19.5 2.00098c6 1.33301 11.667 2.5 17 3.5s10.333 2.16699 15 3.5c1.33301 0.666992 2.66602 1.16699 3.99902 1.5s2.33301 0.833008 3 1.5
c1.33301 0 2.66602 0.166992 3.99902 0.5s2.33301 0.833008 3 1.5c2 1.33301 3.83301 2.16602 5.5 2.49902s2.83398 0.833008 3.50098 1.5c-7.33301 4.66699 -14.833 9 -22.5 13s-15.167 7.66699 -22.5 11c-8 3.33301 -16 6.5 -24 9.5s-16.333 5.5 -25 7.5v2v0z" />
    <glyph glyph-name="R" unicode="R" horiz-adv-x="722" 
d="M80 0l0.000976562 716.002h317c10 -1.33301 19.833 -2.16602 29.5 -2.49902s19.167 -0.833008 28.5 -1.5s18.833 -1.66699 28.5 -3s19.167 -3 28.5 -5c2 -0.666992 4.16699 -1.33398 6.5 -2.00098s4.83301 -1.33398 7.5 -2.00098
c1.33301 -0.666992 2.5 -1.16699 3.5 -1.5s2.16699 -0.5 3.5 -0.5c0.666992 -0.666992 1.66699 -1.16699 3 -1.5s2.66602 -0.833008 3.99902 -1.5c18 -6.66699 34 -16 48 -28s25.667 -26.333 35 -43s16.5 -33.834 21.5 -51.501s7.5 -35.834 7.5 -54.501
c0 -28.667 -4.66699 -54.167 -14 -76.5s-23 -41.5 -41 -57.5s-39.167 -28.833 -63.5 -38.5s-51.833 -16.5 -82.5 -20.5v0c9.33301 -5.33301 19 -11.333 29 -18s20.333 -14.334 31 -23.001c11.333 -8.66699 23.166 -20.667 35.499 -36s25.5 -33.666 39.5 -54.999l125 -193
h-119l-94 148l-42.5 60.5c-13 17.667 -24.5 32.5 -34.5 44.5c-10 11.333 -19.667 21 -29 29s-18.666 14.333 -27.999 19c-2.66699 1.33301 -5.66699 2.66602 -9 3.99902s-6.33301 2.33301 -9 3c-3.33301 0.666992 -6.5 1.33398 -9.5 2.00098s-6.16699 1.33398 -9.5 2.00098
c-6.66699 0.666992 -13.5 1.16699 -20.5 1.5s-14.5 0.5 -22.5 0.5l-109 2v-316h-95v0v0zM175.001 637.002l-0.000976562 -236.001h217c4 -1.33301 8.16699 -2 12.5 -2h13.5c4.66699 0 9.5 0.5 14.5 1.5s9.83301 1.83301 14.5 2.5l19.5 4
c6.33301 1.33301 12.833 3.33301 19.5 6c6 2 11.667 4.66699 17 8s10.333 7.33301 15 12c5.33301 5.33301 10.333 11.333 15 18s8.33398 13.667 11.001 21c3.33301 7.33301 5.83301 14.833 7.5 22.5s2.5 15.5 2.5 23.5c0 11.333 -1.33301 21.833 -4 31.5
s-6.66699 18.834 -12 27.501s-11.333 16.167 -18 22.5s-13.667 11.5 -21 15.5s-14.833 7.33301 -22.5 10s-15.5 4.66699 -23.5 6s-16.333 2.33301 -25 3s-17.667 1 -27 1l-226 2v0v0z" />
    <glyph glyph-name="S" unicode="S" horiz-adv-x="667" 
d="M45 230l90 8.00098c0 -4.66699 0.333008 -9.16699 1 -13.5s1.33398 -9.16602 2.00098 -14.499l4 -16.5c1.33301 -5.66699 3 -11.167 5 -16.5c0 -0.666992 0.166992 -1.33398 0.5 -2.00098s0.833008 -1 1.5 -1c0 -0.666992 0.166992 -1.33398 0.5 -2.00098
s0.5 -1.33398 0.5 -2.00098s0.166992 -1.33398 0.5 -2.00098s0.833008 -1 1.5 -1c0 -0.666992 0.166992 -1.33398 0.5 -2.00098s0.833008 -1.33398 1.5 -2.00098c5.33301 -10.667 11.833 -20.334 19.5 -29.001s16.167 -16 25.5 -22c9.33301 -6.66699 19 -12.167 29 -16.5
s20.333 -8.16602 31 -11.499l12 -4c4 -1.33301 8 -2.33301 12 -3c3.33301 -0.666992 7 -1.33398 11 -2.00098l12 -2c7.33301 -0.666992 14.333 -1.16699 21 -1.5s13 -0.5 19 -0.5c24.667 0 47.5 2.5 68.5 7.5s40.167 12.833 57.5 23.5c17.333 10 30.333 22.667 39 38
s13 33 13 53c0 16.667 -2.83301 31.167 -8.5 43.5s-14.167 22.5 -25.5 30.5s-25.5 15.5 -42.5 22.5s-37.167 13.833 -60.5 20.5c-6 1.33301 -12.167 2.83301 -18.5 4.5s-12.833 3.5 -19.5 5.5c-6.66699 1.33301 -13.5 2.83301 -20.5 4.5s-14.167 3.5 -21.5 5.5l-18.5 4
c-6.33301 1.33301 -12.833 3 -19.5 5c-6.66699 1.33301 -13.167 3 -19.5 5s-12.833 4.33301 -19.5 7c-20 6 -39 14 -57 24s-35 21.333 -51 34c-16.667 13.333 -29 29.833 -37 49.5s-12 42.834 -12 69.501c0 27.333 5.5 52.833 16.5 76.5s27.5 44.834 49.5 63.501
c22 19.333 48.333 33.833 79 43.5s66 14.5 106 14.5c38.667 0 73.834 -4.66699 105.501 -14s59.834 -23 84.501 -41c25.333 -18 44.5 -40.333 57.5 -67s20.167 -57.667 21.5 -93l-91 -5c-0.666992 2.66699 -1.16699 5.83398 -1.5 9.50098s-1.16602 7.5 -2.49902 11.5
c-0.666992 4 -1.5 8.16699 -2.5 12.5s-2.16699 8.83301 -3.5 13.5c-4.66699 11.333 -11 22 -19 32s-18 19.333 -30 28c-12 9.33301 -27.5 16.333 -46.5 21s-41.833 7 -68.5 7h-6.5h-7.5c-2.66699 -0.666992 -5.16699 -1 -7.5 -1h-7.5
c-2.66699 0 -5.33398 -0.166992 -8.00098 -0.5s-5 -0.833008 -7 -1.5c-2.66699 -0.666992 -5.33398 -1.16699 -8.00098 -1.5s-5.33398 -0.833008 -8.00098 -1.5c-12.667 -2.66699 -25 -6.5 -37 -11.5s-23.667 -11.167 -35 -18.5c-10.667 -8 -18.834 -17.833 -24.501 -29.5
s-8.5 -25.5 -8.5 -41.5c0 -13.333 2.16699 -25.166 6.5 -35.499s10.833 -19.166 19.5 -26.499c9.33301 -7.33301 22 -14.5 38 -21.5s35.667 -13.5 59 -19.5c2 -0.666992 3.83301 -1.16699 5.5 -1.5s3.5 -0.5 5.5 -0.5c2 -0.666992 4 -1.16699 6 -1.5s4 -0.833008 6 -1.5
c4 -0.666992 8 -1.5 12 -2.5s8.33301 -2.16699 13 -3.5c2 -0.666992 3.83301 -1.16699 5.5 -1.5s3.5 -0.5 5.5 -0.5c1.33301 -0.666992 3 -1.16699 5 -1.5s4 -0.833008 6 -1.5s3.83301 -1.16699 5.5 -1.5s3.5 -0.5 5.5 -0.5c2 -0.666992 4 -1.16699 6 -1.5
s4 -0.833008 6 -1.5c29.333 -6.66699 57.5 -15.334 84.5 -26.001s52.833 -23 77.5 -37s43.167 -33.167 55.5 -57.5s18.5 -54.166 18.5 -89.499c0 -30 -6 -57.5 -18 -82.5s-30 -47.833 -54 -68.5s-52 -36 -84 -46s-68.333 -15 -109 -15
c-42.667 0 -80.334 3.33301 -113.001 10s-59.667 17.334 -81 32.001c-22 14.667 -40.667 31.167 -56 49.5s-27.666 38.5 -36.999 60.5c-4 9.33301 -7.16699 18.333 -9.5 27s-4.16602 16.667 -5.49902 24c-0.666992 7.33301 -1.33398 14.166 -2.00098 20.499
s-1 11.833 -1 16.5v2v0z" />
    <glyph glyph-name="T" unicode="T" horiz-adv-x="611" 
d="M257 0v631h-235v85h567v-85h-237v-631h-95v0v0z" />
    <glyph glyph-name="U" unicode="U" horiz-adv-x="722" 
d="M547 716h94.999v-414c0 -9.33301 -0.166992 -19.333 -0.5 -30s-0.833008 -22 -1.5 -34c0 -6 -0.333008 -12 -1 -18s-1.66699 -12 -3 -18c-0.666992 -6.66699 -1.66699 -13 -3 -19l-4 -18c-6 -22.667 -15.333 -44.167 -28 -64.5s-28.667 -39.833 -48 -58.5
c-18.667 -18.667 -44 -32.334 -76 -41.001s-70.333 -13 -115 -13c-51.333 0 -94.5 5.33301 -129.5 16s-61.833 27 -80.5 49s-33.667 45.333 -45 70s-18.666 50.334 -21.999 77.001c-1.33301 8.66699 -2.5 17.167 -3.5 25.5s-1.5 16.833 -1.5 25.5
c-0.666992 8.66699 -1 17 -1 25v24v416h95v-413v-21v-21c0 -6.66699 0.5 -13.5 1.5 -20.5s1.83301 -14.167 2.5 -21.5c2.66699 -18.667 7.5 -36.5 14.5 -53.5s16.5 -33.167 28.5 -48.5s29 -26.833 51 -34.5s49.333 -11.5 82 -11.5c44 0 79.5 5.5 106.5 16.5
s45.5 27.5 55.5 49.5s17.667 46.667 23 74s8 57.333 8 90v415v0v0z" />
    <glyph glyph-name="V" unicode="V" horiz-adv-x="667" 
d="M283 0l-277.003 716.002h102l186 -520l5 -12c0.666992 -2.66699 1.33398 -5 2.00098 -7s1.33398 -3.66699 2.00098 -5c0 -2 0.333008 -3.83301 1 -5.5s1.33398 -3.16699 2.00098 -4.5c1.33301 -2.66699 2.5 -5.33398 3.5 -8.00098s1.83301 -5.33398 2.5 -8.00098v-2v-2
c0 -0.666992 0.166992 -1.33398 0.5 -2.00098s0.833008 -1.33398 1.5 -2.00098c1.33301 -3.33301 2.5 -7 3.5 -11s2.16699 -8.33301 3.5 -13l4.5 -16.5l5.5 -20.5l2 2c0.666992 0.666992 1.16699 1.83398 1.5 3.50098s0.833008 3.16699 1.5 4.5
c0 1.33301 0.166992 2.83301 0.5 4.5s0.833008 3.5 1.5 5.5c0.666992 1.33301 1.16699 2.83301 1.5 4.5s0.833008 3.5 1.5 5.5c0.666992 1.33301 1.16699 2.83301 1.5 4.5s0.833008 3.16699 1.5 4.5l4 14c1.33301 4.66699 3 9.33398 5 14.001
c1.33301 4.66699 2.83301 9.16699 4.5 13.5s3.16699 8.83301 4.5 13.5c0 1.33301 0.166992 2.33301 0.5 3l1.5 3c0 0.666992 0.166992 1.5 0.5 2.5s0.833008 1.83301 1.5 2.5l2 6l2 6l194 522h96l-280 -716h-97v0v0z" />
    <glyph glyph-name="W" unicode="W" horiz-adv-x="944" 
d="M203 0l-191.006 716.001h97l110 -470v-3v-1v-0.5c0 -0.333008 0.333008 -0.5 1 -0.5v-1v0l9.5 -45l8.5 -42l6.5 -33.5c1.66699 -9 2.83398 -16.167 3.50098 -21.5l2 2l2.5 10.5l3.5 14.5l4 16.5l4 17.5v0.5v1.5v0.5c0 0.333008 0.333008 0.833008 1 1.5v0.5v0.5
c1.33301 7.33301 2.83301 14.333 4.5 21s3.16699 13.334 4.5 20.001c1.33301 6 2.66602 11.167 3.99902 15.5s2.33301 7.83301 3 10.5l136 485h115l102 -362c0.666992 -3.33301 1.33398 -6.33301 2.00098 -9s1.33398 -5 2.00098 -7
c0.666992 -2.66699 1.33398 -5.16699 2.00098 -7.5s1.33398 -4.83301 2.00098 -7.5c1.33301 -6.66699 2.83301 -13.167 4.5 -19.5l5.5 -20.5c1.33301 -6.66699 2.83301 -13.5 4.5 -20.5s3.5 -14.167 5.5 -21.5c3.33301 -12.667 6.16602 -25.5 8.49902 -38.5
s4.83301 -25.833 7.5 -38.5c2 -12.667 4 -24.5 6 -35.5s3.66699 -21.167 5 -30.5l2 2c0 0.666992 0.166992 1.66699 0.5 3s0.833008 3 1.5 5c0 1.33301 0.166992 2.83301 0.5 4.5s0.833008 3.16699 1.5 4.5c0.666992 5.33301 1.5 10.5 2.5 15.5s1.83301 9.83301 2.5 14.5
c0.666992 2.66699 1.33398 5.16699 2.00098 7.5s1.33398 4.83301 2.00098 7.5c0 2 0.333008 4.16699 1 6.5s1.33398 4.83301 2.00098 7.5c1.33301 7.33301 2.83301 14.666 4.5 21.999s3.16699 14.333 4.5 21s2.83301 13 4.5 19l4.5 16l113 462h95l-197 -716h-91l-156 564
c-0.666992 0.666992 -1.16699 1.83398 -1.5 3.50098s-0.833008 3.5 -1.5 5.5c-0.666992 1.33301 -1.16699 2.83301 -1.5 4.5s-0.833008 3.16699 -1.5 4.5s-1.16699 2.66602 -1.5 3.99902s-0.5 3 -0.5 5c-0.666992 1.33301 -1.16699 2.66602 -1.5 3.99902
s-0.5 2.66602 -0.5 3.99902c-0.666992 1.33301 -1.16699 2.5 -1.5 3.5s-0.5 2.16699 -0.5 3.5c-0.666992 0.666992 -1.16699 1.66699 -1.5 3s-0.5 2.33301 -0.5 3c-0.666992 2 -1.16699 4.33301 -1.5 7s-0.5 5.33398 -0.5 8.00098l-2 2
c-1.33301 -8 -2.83301 -15.5 -4.5 -22.5s-3.16699 -14.167 -4.5 -21.5c-0.666992 -3.33301 -1.5 -6.83301 -2.5 -10.5s-1.83301 -7.16699 -2.5 -10.5c-1.33301 -3.33301 -2.33301 -6.83301 -3 -10.5s-1.66699 -7.16699 -3 -10.5l-152 -543h-96v0v0z" />
    <glyph glyph-name="X" unicode="X" horiz-adv-x="667" 
d="M5 0l276.993 373.005l-245 343h113l130 -184c0.666992 -1.33301 1.16699 -2.5 1.5 -3.5s0.833008 -1.83301 1.5 -2.5c0 -0.666992 0.166992 -1.33398 0.5 -2.00098s0.833008 -1.33398 1.5 -2.00098l1.5 -1.5l1.5 -1.5c0 -0.666992 0.166992 -1.16699 0.5 -1.5l1.5 -1.5
c0 -0.666992 0.166992 -1.33398 0.5 -2.00098s0.833008 -1.33398 1.5 -2.00098s1.16699 -1.33398 1.5 -2.00098s0.833008 -1.33398 1.5 -2.00098l10.5 -16.5c3.66699 -5.66699 7.5 -11.167 11.5 -16.5l10.5 -16.5c3.66699 -5.66699 6.83398 -11.167 9.50098 -16.5
c0 0.666992 0.166992 1.33398 0.5 2.00098s0.833008 1.33398 1.5 2.00098s1.16699 1.33398 1.5 2.00098s0.833008 1.33398 1.5 2.00098v0v0v0l1 1v0.5v0.5c1.33301 1.33301 2.66602 3 3.99902 5s3 4.33301 5 7l6 9l9 13c0.666992 1.33301 1.33398 2.5 2.00098 3.5
s1.33398 1.83301 2.00098 2.5s1.16699 1.33398 1.5 2.00098s0.833008 1.33398 1.5 2.00098l0.5 1c0.333008 0.666992 0.833008 1.33398 1.5 2.00098v0l1 1v0v0v0l1 1v0v0c0.666992 1.33301 1.33398 2.5 2.00098 3.5s1.33398 2.16699 2.00098 3.5
c0.666992 0.666992 1.33398 1.66699 2.00098 3s1.33398 2.33301 2.00098 3c1.33301 2 2.83301 3.83301 4.5 5.5s2.83398 3.16699 3.50098 4.5l144 192h103l-251 -337l271 -379h-117l-180 255c-4 4.66699 -7.66699 9.16699 -11 13.5s-6 8.16602 -8 11.499l-6 10.5
c-2 3.66699 -3.66699 7.16699 -5 10.5l-2 2v-1.5v-0.5c-0.666992 -0.666992 -1 -1.16699 -1 -1.5v-0.5l-1.5 -1.5c-0.333008 -0.333008 -0.5 -0.833008 -0.5 -1.5v0v0v0v0v-0.5v-0.5l-1 -1v0c-0.666992 -0.666992 -1 -1.16699 -1 -1.5v-0.5
c-1.33301 -2.66699 -3 -5.33398 -5 -8.00098s-4 -5.66699 -6 -9c-0.666992 -2 -1.66699 -3.83301 -3 -5.5s-2.33301 -3.16699 -3 -4.5c-1.33301 -2 -2.5 -3.83301 -3.5 -5.5s-2.16699 -3.16699 -3.5 -4.5c-0.666992 -0.666992 -1.16699 -1.33398 -1.5 -2.00098
s-0.833008 -1.33398 -1.5 -2.00098s-1.16699 -1.33398 -1.5 -2.00098s-0.5 -1.33398 -0.5 -2.00098l-179 -247h-114v0v0z" />
    <glyph glyph-name="Y" unicode="Y" horiz-adv-x="667" 
d="M281 0v302.997l-276 413h115l141 -216l15 -25.5l13 -20.5c3.33301 -6 6.83301 -11.833 10.5 -17.5l10.5 -16.5v-0.5c0 -0.333008 0.333008 -0.5 1 -0.5v-1.5v-0.5c0 -0.666992 0.166992 -1.16699 0.5 -1.5l1.5 -1.5c1.33301 -2.66699 2.83301 -5.5 4.5 -8.5l5.5 -9.5
c0.666992 -1.33301 1.5 -2.83301 2.5 -4.5s1.83301 -3.16699 2.5 -4.5c1.33301 -2 2.5 -3.83301 3.5 -5.5s1.83301 -3.16699 2.5 -4.5c1.33301 3.33301 2.83301 6.5 4.5 9.5s3.5 5.83301 5.5 8.5c1.33301 1.33301 2.33301 2.83301 3 4.5s1.66699 3.16699 3 4.5
c0.666992 1.33301 1.5 2.83301 2.5 4.5s1.83301 3.16699 2.5 4.5c0.666992 0.666992 1.16699 1.33398 1.5 2.00098s0.833008 1.33398 1.5 2.00098v1.5c0 0.333008 0.333008 0.833008 1 1.5l0.5 0.5l1.5 1.5l17.5 28.5l15.5 25.5l12.5 19
c3 4.66699 4.83301 7.33398 5.5 8.00098l139 213h110l-285 -413v-303h-95v0v0z" />
    <glyph glyph-name="Z" unicode="Z" horiz-adv-x="611" 
d="M18 0l-0.00195312 88.9971l367 457c0 -0.666992 1.33301 0.5 4 3.5s6.33398 7.5 11.001 13.5l16.5 19.5c5.66699 7 11.834 14.167 18.501 21.5l2 2l2 2l1 1l2 2l2 2l2 2c0 0.666992 0.333008 1.33398 1 2.00098l2 2l1.5 1.5l1.5 1.5l0.5 0.5l1.5 1.5l1.5 1.5l1.5 1.5
l0.5 0.5l1.5 1.5l-400 2v85h513v-85l-402 -495c0 -1.33301 -0.5 -2.83301 -1.5 -4.5s-2.5 -3.5 -4.5 -5.5s-4 -4.16699 -6 -6.5s-4 -4.83301 -6 -7.5c-1.33301 -1.33301 -2.5 -2.66602 -3.5 -3.99902s-2.16699 -2.66602 -3.5 -3.99902
c-0.666992 -1.33301 -1.5 -2.5 -2.5 -3.5l-3.5 -3.5l-12 -12h457v-85h-566v0v0z" />
    <glyph glyph-name="bracketleft" unicode="[" 
d="M68 -199v915h194v-73h-106v-769h106v-73h-194v0v0z" />
    <glyph glyph-name="backslash" unicode="\" 
d="M207 -24l-207 740h71l207 -740h-71v0v0z" />
    <glyph glyph-name="bracketright" unicode="]" 
d="M210 716v-915h-194v73h106v769h-106v73h194v0v0z" />
    <glyph glyph-name="asciicircum" unicode="^" horiz-adv-x="469" 
d="M116 325h-90l173 391h71l173 -391h-89l-120 292l-118 -292v0v0z" />
    <glyph glyph-name="underscore" unicode="_" horiz-adv-x="556" 
d="M-6 -125v50h568v-50h-568v0v0z" />
    <glyph glyph-name="grave" unicode="`" horiz-adv-x="333" 
d="M157 728l65 -137h-72l-108 137h115v0v0z" />
    <glyph glyph-name="a" unicode="a" horiz-adv-x="556" 
d="M139 359l-86.0039 10.9971c1.33301 3.33301 2.5 7.5 3.5 12.5s2.5 10.833 4.5 17.5c1.33301 6 3.5 12.333 6.5 19s6.83301 13.334 11.5 20.001c6.66699 11.333 15.5 22 26.5 32s24.5 19.667 40.5 29c15.333 9.33301 34.833 16.333 58.5 21s51.167 7 82.5 7
c44 0 79.833 -4.16699 107.5 -12.5s46.834 -20.833 57.501 -37.5c11.333 -16.667 20 -34.334 26 -53.001s9.33301 -38 10 -58v-4v-4v-5v-4v-8.5v-8.5v-116c0 -29.333 0.166992 -54.666 0.5 -75.999s0.833008 -38.666 1.5 -51.999s2.33398 -26 5.00098 -38
s6.33398 -23 11.001 -33c0.666992 -2 1.33398 -3.83301 2.00098 -5.5s1.33398 -3.16699 2.00098 -4.5c1.33301 -2 2.5 -3.66699 3.5 -5s1.83301 -2.33301 2.5 -3h-92c-3.33301 5.33301 -6 11 -8 17s-3.66699 12 -5 18c-0.666992 5.33301 -1.5 10.333 -2.5 15l-2.5 12
c-18.667 -16 -36.5 -29 -53.5 -39s-33.167 -17.333 -48.5 -22c-16 -4 -31.333 -7.16699 -46 -9.5s-29 -3.5 -43 -3.5c-28.667 0 -53.834 3.33301 -75.501 10s-40.167 17 -55.5 31s-26.833 29.833 -34.5 47.5s-11.5 37.167 -11.5 58.5s2.83301 40 8.5 56s14.5 29.333 26.5 40
c12 11.333 24.5 21 37.5 29s26.5 14.333 40.5 19c8.66699 2.66699 17.167 5 25.5 7s16.5 3.66699 24.5 5s15.5 2.5 22.5 3.5s13.167 1.83301 18.5 2.5c2 0 5.83301 0.5 11.5 1.5s13.167 1.83301 22.5 2.5c9.33301 1.33301 19 2.83301 29 4.5s20.333 3.5 31 5.5
c5.33301 1.33301 10.833 2.5 16.5 3.5s11.5 2.16699 17.5 3.5l15.5 4c5 1.33301 9.83301 3 14.5 5v4.5v5.5v3v3v2.5v2.5v1.5v1.5v0.5v1.5v1.5v1.5v0.5v1.5c-0.666992 12 -3.16699 23.667 -7.5 35s-10.166 22 -17.499 32s-19.5 17.667 -36.5 23s-38.5 8 -64.5 8
c-22.667 0 -41.667 -2 -57 -6s-27.333 -9.66699 -36 -17c-8.66699 -8 -15.834 -16.167 -21.501 -24.5s-10.167 -17.166 -13.5 -26.499c-0.666992 -0.666992 -1.16699 -1.66699 -1.5 -3s-0.5 -2.33301 -0.5 -3c-0.666992 -1.33301 -1.16699 -2.5 -1.5 -3.5
s-0.5 -2.16699 -0.5 -3.5c-0.666992 -2 -1.16699 -4 -1.5 -6s-0.833008 -4 -1.5 -6v2v0zM399.996 227.997v31.9971c-5.33301 -3.33301 -11.333 -6 -18 -8l-21 -6l-24 -6c-8 -2 -16 -3.66699 -24 -5c-4.66699 -0.666992 -9.5 -1.5 -14.5 -2.5s-10.167 -2.16699 -15.5 -3.5
l-14.5 -2c-5 -0.666992 -9.5 -1.33398 -13.5 -2.00098c-2.66699 -0.666992 -5.16699 -1.16699 -7.5 -1.5s-4.83301 -0.5 -7.5 -0.5c-2.66699 -0.666992 -5.16699 -1.16699 -7.5 -1.5s-4.83301 -0.833008 -7.5 -1.5c-12 -2 -23.333 -5 -34 -9s-20.667 -8.66699 -30 -14
c-10 -6 -17.333 -14 -22 -24s-7 -22 -7 -36v-4.5v-4.5c0 -1.33301 0.166992 -2.66602 0.5 -3.99902s0.833008 -2.66602 1.5 -3.99902c1.33301 -8 4.33301 -15.667 9 -23s11 -14.666 19 -21.999c8 -6.66699 18.167 -11.667 30.5 -15s26.833 -5 43.5 -5
c4 0 8.83301 0.333008 14.5 1s11.834 1.33398 18.501 2.00098c7.33301 1.33301 14.666 3 21.999 5s15 4.66699 23 8c4 1.33301 8 3.16602 12 5.49902s8 4.83301 12 7.5c2 1.33301 4 2.83301 6 4.5s4 3.16699 6 4.5c1.33301 2 3 3.83301 5 5.5s4 3.5 6 5.5
c8.66699 9.33301 15.667 19 21 29s9 20 11 30s3.66699 20.333 5 31s2 21.334 2 32.001v2v0z" />
    <glyph glyph-name="b" unicode="b" horiz-adv-x="556" 
d="M149 0h-81.999v716h88v-256h2c1.33301 0.666992 2.83301 2.16699 4.5 4.5s3.83398 4.83301 6.50098 7.5c2 3.33301 4.5 6.5 7.5 9.5s6.5 5.83301 10.5 8.5c5.33301 4.66699 11.833 9.16699 19.5 13.5s15.834 8.5 24.501 12.5c9.33301 4 19.666 7 30.999 9s23.333 3 36 3
c35.333 0 66.5 -6.33301 93.5 -19s49.833 -31.667 68.5 -57c19.333 -24.667 33.833 -52.667 43.5 -84s14.5 -65.666 14.5 -102.999c0 -38.667 -3.66699 -72.834 -11 -102.501s-18.333 -54.5 -33 -74.5c-14.667 -20.667 -30.167 -38 -46.5 -52s-33.5 -24.667 -51.5 -32
c-3.33301 -1.33301 -6.83301 -2.5 -10.5 -3.5s-7.16699 -2.16699 -10.5 -3.5c-4 -0.666992 -7.83301 -1.5 -11.5 -2.5s-7.16699 -1.83301 -10.5 -2.5c-6.66699 -1.33301 -13.334 -2.33301 -20.001 -3s-13 -1 -19 -1c-4 0 -9 0.333008 -15 1s-13.333 1.66699 -22 3
c-8.66699 0.666992 -17.334 2.5 -26.001 5.5s-17.667 7.5 -27 13.5l-14 10c-4.66699 3.33301 -9 7 -13 11c-4.66699 4 -9 8.66699 -13 14s-8 11 -12 17l-2 2v-65v0v0zM147.001 247c0 -31.333 3.33203 -58.6689 9.99902 -82.002s16.334 -43 29.001 -59
c13.333 -16 28.333 -28 45 -36s35 -12 55 -12v0h1v0v0h0.5h1.5c17.333 0 33.833 4 49.5 12s30.834 20 45.501 36c14 15.333 24.667 35.833 32 61.5s11 55.834 11 90.501c0 28.667 -3 54.834 -9 78.501s-14.667 44.834 -26 63.501c-12 18.667 -26.5 32.667 -43.5 42
s-36.833 14 -59.5 14s-42.834 -4.83301 -60.501 -14.5s-32.5 -24.167 -44.5 -43.5c-12.667 -18.667 -22 -40.834 -28 -66.501s-9 -54.5 -9 -86.5v2v0z" />
    <glyph glyph-name="c" unicode="c" horiz-adv-x="500" 
d="M404 190l86.9971 -11.0039c-4 -24.667 -9.5 -46 -16.5 -64s-16.167 -33.667 -27.5 -47c-10.667 -12.667 -21.667 -24 -33 -34s-23 -18 -35 -24c-10.667 -4.66699 -21 -8.33398 -31 -11.001s-19.667 -4.66699 -29 -6l-25.5 -3.5c-7 -1 -13.167 -1.5 -18.5 -1.5
c-42.667 0 -79.167 6.66699 -109.5 20s-54.5 34 -72.5 62c-18 27.333 -31.5 56.5 -40.5 87.5s-13.5 63.833 -13.5 98.5c0 44 4.5 81.833 13.5 113.5s22.833 57.5 41.5 77.5s38.167 36.333 58.5 49s41.5 21.334 63.5 26.001c5.33301 1.33301 10.5 2.16602 15.5 2.49902
s9.83301 0.833008 14.5 1.5c2.66699 0 5.16699 0.166992 7.5 0.5s4.83301 0.5 7.5 0.5c2 0.666992 4.16699 1 6.5 1h7.5c6 0 12.333 -0.166992 19 -0.5s13.334 -1.16602 20.001 -2.49902c7.33301 -0.666992 14.666 -2 21.999 -4s15 -4.33301 23 -7c4 -1.33301 8 -3 12 -5
s8.33301 -4 13 -6c4 -2 8 -4.16699 12 -6.5s8 -4.83301 12 -7.5c8 -5.33301 15.5 -11.5 22.5 -18.5s13.5 -14.833 19.5 -23.5c5.33301 -8 10 -15.667 14 -23s7 -14.666 9 -21.999c2 -6.66699 3.83301 -13.334 5.5 -20.001s2.83398 -12.667 3.50098 -18l-85 -11
c-4.66699 17.333 -10.667 32.666 -18 45.999s-16.333 24 -27 32s-22.167 14.167 -34.5 18.5s-25.166 6.5 -38.499 6.5c-22 0 -41.167 -3 -57.5 -9s-29.833 -15 -40.5 -27s-19.5 -24.333 -26.5 -37s-12.167 -26 -15.5 -40c-2 -8 -3.66699 -16 -5 -24s-2.33301 -15.667 -3 -23
s-1.16699 -14.166 -1.5 -20.499s-0.5 -12.166 -0.5 -17.499v-15.5c0 -6.33301 0.333008 -14.166 1 -23.499c0.666992 -8.66699 2 -18 4 -28s4.66699 -20 8 -30c4 -12.667 9.5 -25 16.5 -37s15.5 -23.333 25.5 -34s22.5 -18.667 37.5 -24s32.5 -8 52.5 -8
c16 0 30.167 1.83301 42.5 5.5s22.833 8.83398 31.5 15.501c8.66699 7.33301 16.167 14.833 22.5 22.5s11.833 15.834 16.5 24.501c3.33301 6 6 12 8 18s3.33301 12 4 18c1.33301 6 2.33301 11.167 3 15.5s1.33398 7.83301 2.00098 10.5v2v0z" />
    <glyph glyph-name="d" unicode="d" horiz-adv-x="556" 
d="M404 0l-0.000976562 65.999h-2c-4 -7.33301 -8.16699 -14 -12.5 -20s-8.83301 -11.333 -13.5 -16c-2.66699 -2 -5.16699 -4 -7.5 -6s-4.5 -4 -6.5 -6l-7.5 -5.5c-2.33301 -1.66699 -4.83301 -3.16699 -7.5 -4.5c-9.33301 -4.66699 -18.5 -8.5 -27.5 -11.5
s-17.833 -4.83301 -26.5 -5.5c-8.66699 -1.33301 -15.667 -2.16602 -21 -2.49902s-9.66602 -0.5 -12.999 -0.5c-30.667 0 -59.167 5.83301 -85.5 17.5s-50.5 29.834 -72.5 54.501c-22 24 -38.333 52.5 -49 85.5s-16 70.167 -16 111.5c0 42 5 79.667 15 113s25.333 62 46 86
c20 24 43.167 42 69.5 54s55.833 18 88.5 18c16 0 31.167 -1.66699 45.5 -5s27.5 -8.33301 39.5 -15s22.667 -14.334 32 -23.001s17.333 -18 24 -28l2 2v257h88v-716h-82v0v0zM125.999 258.999c0 -29.333 2.33105 -54.832 6.99805 -76.499s11.334 -39.5 20.001 -53.5
c9.33301 -14 19.166 -25.833 29.499 -35.5s20.833 -17.167 31.5 -22.5c4.66699 -2.66699 9.33398 -4.66699 14.001 -6l14 -4l13.5 -2c4.33301 -0.666992 8.5 -1 12.5 -1c3.33301 0 7.16602 0.333008 11.499 1s9.5 1.33398 15.5 2.00098c6 1.33301 12.333 3.33301 19 6
s13.334 6 20.001 10c9.33301 5.33301 18 12.833 26 22.5s15.667 20.834 23 33.501c7.33301 13.333 13 29.666 17 48.999s6 41.666 6 66.999v3.5v2.5v4v4c-0.666992 24 -4 47 -10 69s-14 43 -24 63c-10.667 20 -25 35.167 -43 45.5s-39.667 15.5 -65 15.5
c-18.667 0 -35.167 -2.66699 -49.5 -8s-26.166 -13.666 -35.499 -24.999c-9.33301 -10.667 -17.333 -21.834 -24 -33.501s-12 -23.834 -16 -36.501c-2.66699 -10 -5 -19.667 -7 -29s-3.33301 -18.666 -4 -27.999c-0.666992 -8.66699 -1.16699 -16.334 -1.5 -23.001
s-0.5 -12 -0.5 -16v2v0z" />
    <glyph glyph-name="e" unicode="e" horiz-adv-x="556" 
d="M424 167l90.001 -11.0029c-6.66699 -25.333 -16.167 -48.166 -28.5 -68.499s-27.833 -38.166 -46.5 -53.499c-18.667 -16 -40.667 -27.667 -66 -35s-54 -11 -86 -11c-40.667 0 -76.334 5.83301 -107.001 17.5s-56.667 29.834 -78 54.501
c-20.667 24 -36.334 52.167 -47.001 84.5s-16 68.5 -16 108.5c0 39.333 5.16699 75.5 15.5 108.5s25.833 62.5 46.5 88.5s46 45.5 76 58.5s64.333 19.5 103 19.5c4.66699 0 9.5 -0.166992 14.5 -0.5s9.83301 -0.833008 14.5 -1.5c5.33301 -0.666992 10.5 -1.16699 15.5 -1.5
s9.83301 -1.16602 14.5 -2.49902c22 -4.66699 43.333 -13.5 64 -26.5s40.334 -29.5 59.001 -49.5c18.667 -20.667 32.5 -47.334 41.5 -80.001s13.5 -71.667 13.5 -117v-2v-2v-1.5v-1.5v-2v-2v-1.5v-1.5l-388 2c1.33301 -32 6.33301 -59.333 15 -82s21 -41 37 -55
s32.833 -24.5 50.5 -31.5s36.167 -10.5 55.5 -10.5c15.333 0 29.166 1.5 41.499 4.5s22.833 7.5 31.5 13.5c9.33301 6 17.5 12.5 24.5 19.5s12.833 14.167 17.5 21.5c2.66699 4.66699 5 9.16699 7 13.5l6 12.5c2 4 3.83301 8 5.5 12s2.83398 7.33301 3.50098 10v2v0z
M134.001 308.997h292.999c-0.666992 10.667 -2 21 -4 31s-4.66699 19.333 -8 28c-3.33301 9.33301 -7.5 17.666 -12.5 24.999s-10.5 14.333 -16.5 21c-6 6 -12.667 11.5 -20 16.5s-15.666 9.5 -24.999 13.5s-19 7 -29 9s-20.333 3 -31 3
c-20.667 0 -39.334 -3.16699 -56.001 -9.5s-30.667 -15.833 -42 -28.5c-12 -12.667 -21.667 -25.667 -29 -39s-12.666 -27.666 -15.999 -42.999l-2 -8c-0.666992 -2.66699 -1 -5 -1 -7c-0.666992 -2.66699 -1 -5.16699 -1 -7.5v-6.5v2v0z" />
    <glyph glyph-name="f" unicode="f" 
d="M86 0l-0.00195312 450.001h-78v68h78v56v12v15c0 5.33301 0.5 11 1.5 17s2.5 12 4.5 18c2.66699 11.333 7 22.166 13 32.499s14 20.166 24 29.499c9.33301 9.33301 22.333 16.333 39 21s37 7 61 7c7.33301 0 14.333 -0.166992 21 -0.5s13 -0.833008 19 -1.5
c3.33301 -0.666992 6.33301 -1.16699 9 -1.5s5.33398 -0.5 8.00098 -0.5c2.66699 -0.666992 5.16699 -1.16699 7.5 -1.5s4.83301 -0.833008 7.5 -1.5h0.5h1.5c0.666992 -0.666992 1.16699 -1 1.5 -1h1.5h1.5h1.5c0 -0.666992 0.166992 -1 0.5 -1h1.5l-13 -75
c-0.666992 -1.33301 -1.33398 -2 -2.00098 -2h-2h-1.5c-0.333008 0 -0.5 0.333008 -0.5 1h-1.5h-0.5c-3.33301 0.666992 -6.66602 1.16699 -9.99902 1.5s-6.66602 0.833008 -9.99902 1.5h-5.5c-1.66699 0 -3.5 0.333008 -5.5 1h-6h-6c-16.667 0 -30.167 -2 -40.5 -6
s-17.5 -10 -21.5 -18s-6.83301 -16.167 -8.5 -24.5s-2.5 -17.166 -2.5 -26.499v-1.5v-1.5v-1.5v-0.5v-47h100v-68h-100v-450h-88v0v0z" />
    <glyph glyph-name="g" unicode="g" horiz-adv-x="556" 
d="M52 -43l85.001 -13.0029c0 -2 0.333008 -4.33301 1 -7l2 -8c0.666992 -3.33301 1.5 -6.5 2.5 -9.5s2.5 -6.16699 4.5 -9.5c3.33301 -6 7.66602 -11.833 12.999 -17.5s12 -10.834 20 -15.501c8 -5.33301 18.5 -9.16602 31.5 -11.499s27.833 -3.5 44.5 -3.5
c13.333 0 25.833 0.833008 37.5 2.5s21.834 4.16699 30.501 7.5c9.33301 3.33301 17.5 7.33301 24.5 12s13.167 10 18.5 16c8.66699 9.33301 15.5 20 20.5 32s8.5 25 10.5 39c1.33301 14.667 2.5 29.167 3.5 43.5s1.5 29.166 1.5 44.499v1.5v1.5v2v2l-2 2
c-1.33301 -2.66699 -2.83301 -5 -4.5 -7s-3.16699 -3.66699 -4.5 -5l-5.5 -5.5l-4.5 -4.5c-2.66699 -2.66699 -5.5 -5.33398 -8.5 -8.00098s-6.16699 -5 -9.5 -7c-9.33301 -6.66699 -18.666 -12.334 -27.999 -17.001s-18.666 -8 -27.999 -10
c-8.66699 -2 -17.334 -3.16699 -26.001 -3.5s-16.667 -0.5 -24 -0.5c-36.667 0 -68.834 6.33301 -96.501 19s-51.167 32 -70.5 58c-18.667 26 -32.834 54.5 -42.501 85.5s-14.5 63.833 -14.5 98.5v9.5v8.5c0 3.33301 0.166992 6.5 0.5 9.5s0.833008 6.16699 1.5 9.5
c2.66699 28.667 9 56.167 19 82.5s23.667 51.5 41 75.5s39.666 42 66.999 54s59.333 18 96 18c5.33301 0 12 -0.5 20 -1.5s17.333 -2.5 28 -4.5c10 -2 20.5 -5.5 31.5 -10.5s21.833 -11.833 32.5 -20.5c1.33301 -1.33301 2.83301 -2.66602 4.5 -3.99902
s3.5 -2.66602 5.5 -3.99902c1.33301 -1.33301 2.83301 -2.66602 4.5 -3.99902s3.16699 -2.66602 4.5 -3.99902c3.33301 -2.66699 6.5 -5.83398 9.5 -9.50098s5.83301 -7.5 8.5 -11.5l2 2v62h81v-448v-10.5v-10.5c-0.666992 -4 -1 -8 -1 -12v-12
c0 -2.66699 -0.166992 -5.5 -0.5 -8.5s-0.5 -6.16699 -0.5 -9.5c-0.666992 -5.33301 -1.33398 -11 -2.00098 -17l-2 -18l-2 -12l-2 -12c-1.33301 -3.33301 -2.33301 -7 -3 -11s-1.66699 -8 -3 -12c-2 -8 -4.33301 -15.333 -7 -22s-5.66699 -13 -9 -19
c-8.66699 -15.333 -19.167 -28.5 -31.5 -39.5s-26.166 -19.833 -41.499 -26.5c-15.333 -7.33301 -31 -13.166 -47 -17.499s-32 -7.16602 -48 -8.49902h-4c-1.33301 0 -2.66602 -0.333008 -3.99902 -1h-5h-4h-4.5c-1.66699 0 -3.16699 -0.333008 -4.5 -1h-4h-4
c-6 0 -12.333 0.166992 -19 0.5s-13.667 1.16602 -21 2.49902l-12 2c-4 0.666992 -7.66699 1.33398 -11 2.00098l-12 2c-4 0.666992 -8 1.66699 -12 3c-14.667 4.66699 -29 10.834 -43 18.501s-27 17.167 -39 28.5s-21 25.5 -27 42.5s-9 37.167 -9 60.5v1.5v0.5v0v0v1.5v0.5
v0v0v1v0v0v0zM124.001 267.997l-0.00390625 -13.4971c0 -5.66699 0.333008 -12.5 1 -20.5c0 -8 0.833008 -16.5 2.5 -25.5s3.83398 -18.167 6.50098 -27.5c1.33301 -4.66699 2.5 -9.33398 3.5 -14.001s2.5 -9.33398 4.5 -14.001s4.16699 -9 6.5 -13
s4.83301 -7.66699 7.5 -11c6 -8.66699 13 -16.667 21 -24s16.667 -13.666 26 -18.999s19.333 -9.33301 30 -12s21.667 -4 33 -4c12 0 23.5 1.33301 34.5 4s21.167 7 30.5 13c9.33301 5.33301 17.666 11.5 24.999 18.5s14 14.5 20 22.5c6 9.33301 11.167 18.666 15.5 27.999
s7.5 19.333 9.5 30s3.66699 21.5 5 32.5s2.33301 21.833 3 32.5v3.5v2.5v2v2v1v2c0 29.333 -2.66699 54.833 -8 76.5s-13.666 39.5 -24.999 53.5c-10.667 14 -21.834 25.667 -33.501 35s-24.167 16.333 -37.5 21c-3.33301 1.33301 -6.66602 2.16602 -9.99902 2.49902
s-6.66602 0.833008 -9.99902 1.5s-6.66602 1.16699 -9.99902 1.5s-6.66602 0.5 -9.99902 0.5c-19.333 0 -37.333 -4 -54 -12s-32 -20 -46 -36s-24.333 -35.833 -31 -59.5s-10 -51.167 -10 -82.5v2v0z" />
    <glyph glyph-name="h" unicode="h" horiz-adv-x="556" 
d="M67 0l0.00585938 716h88v-257c2 1.33301 4.16699 3.16602 6.5 5.49902l7.5 7.5c1.33301 1.33301 2.66602 2.5 3.99902 3.5s2.66602 2.16699 3.99902 3.5l3 3c1.33301 1.33301 2.66602 2.33301 3.99902 3c12 9.33301 23.833 17 35.5 23s23.167 10.333 34.5 13
c11.333 2 21.666 3.66699 30.999 5s18 2 26 2h5.5h5.5c2 -0.666992 4 -1 6 -1h6c4 -0.666992 8 -1.16699 12 -1.5s8 -1.16602 12 -2.49902c10.667 -2 21.167 -5 31.5 -9s20.5 -8.66699 30.5 -14s18.833 -11.833 26.5 -19.5s14.167 -16.167 19.5 -25.5
c1.33301 -2.66699 2.5 -5.16699 3.5 -7.5s2.16699 -4.5 3.5 -6.5c0.666992 -2.66699 1.5 -5.16699 2.5 -7.5s1.83301 -4.83301 2.5 -7.5s1.33398 -5.16699 2.00098 -7.5s1.33398 -4.5 2.00098 -6.5c0.666992 -2.66699 1.16699 -5.16699 1.5 -7.5s0.833008 -4.83301 1.5 -7.5
s1.16699 -5.66699 1.5 -9s0.833008 -6.33301 1.5 -9c0 -3.33301 0.166992 -6.5 0.5 -9.5s0.5 -6.16699 0.5 -9.5v-8.5c0 -3 0.333008 -6.16699 1 -9.5v-8v-8v-326h-88v327v3.5v5.5c-0.666992 2 -1 4.16699 -1 6.5v7.5c-0.666992 5.33301 -1.5 10.833 -2.5 16.5
s-2.16699 11.5 -3.5 17.5c-2.66699 8.66699 -6.83398 17 -12.501 25s-12.167 15.333 -19.5 22c-7.33301 7.33301 -16.833 12.666 -28.5 15.999s-25.5 5 -41.5 5c-12.667 0 -24.667 -1.5 -36 -4.5s-22.666 -7.5 -33.999 -13.5c-10.667 -6 -20 -12.667 -28 -20
s-14.333 -15.333 -19 -24c-0.666992 -2 -1.5 -4 -2.5 -6s-2.16699 -4 -3.5 -6c-0.666992 -2 -1.33398 -3.83301 -2.00098 -5.5s-1.33398 -3.16699 -2.00098 -4.5c-2.66699 -8 -4.83398 -15.667 -6.50098 -23s-2.83398 -14.666 -3.50098 -21.999s-1 -14.5 -1 -21.5v-20.5
v-281h-88v0v0z" />
    <glyph glyph-name="i" unicode="i" horiz-adv-x="222" 
d="M67 0v518h88v-518h-88v0v0zM67 616v100h88v-100h-88v0v0z" />
    <glyph glyph-name="j" unicode="j" horiz-adv-x="222" 
d="M-45 -200l17 73.9971c2.66699 -0.666992 5 -1.16699 7 -1.5s3.66699 -0.833008 5 -1.5c2 0 3.83301 -0.166992 5.5 -0.5s3.16699 -0.833008 4.5 -1.5c2 0 3.66699 -0.166992 5 -0.5s2.66602 -0.5 3.99902 -0.5c1.33301 -0.666992 2.83301 -1 4.5 -1h5.5
c12 0 21.833 2.16699 29.5 6.5s12.834 11.166 15.501 20.499c3.33301 8.66699 5.66602 19.834 6.99902 33.501s2 29.167 2 46.5v544h88v-546v-6.5v-7.5c-0.666992 -2.66699 -1 -5.16699 -1 -7.5v-7.5c0 -5.33301 -0.166992 -10.666 -0.5 -15.999
s-0.833008 -10.666 -1.5 -15.999c-2 -15.333 -5.5 -29.666 -10.5 -42.999s-11.833 -26.333 -20.5 -39s-21 -22.167 -37 -28.5s-36 -9.5 -60 -9.5h-3.5h-5.5c-2 0.666992 -4.16699 1 -6.5 1h-8.5c-5.33301 0.666992 -11.666 1.66699 -18.999 3s-15.333 3 -24 5h-2v0z
M67 615.997v100h88v-100h-88v0v0z" />
    <glyph glyph-name="k" unicode="k" horiz-adv-x="500" 
d="M66 0v716h88v-408l208 210h114l-198 -192l218 -326h-108l-172 265l-62 -59v-206h-88v0v0z" />
    <glyph glyph-name="l" unicode="l" horiz-adv-x="222" 
d="M67 0v716h88v-716h-88v0v0z" />
    <glyph glyph-name="m" unicode="m" horiz-adv-x="833" 
d="M65 0l-0.00292969 518.002h79v-72h2c7.33301 10.667 16 20.834 26 30.501s21.333 18.5 34 26.5c13.333 8 27.833 14.167 43.5 18.5s32.834 6.5 51.501 6.5s35.667 -2 51 -6s29.333 -9.66699 42 -17c12.667 -8 23.5 -17.5 32.5 -28.5s16.167 -24.167 21.5 -39.5
c1.33301 2.66699 3 5.5 5 8.5s4.33301 6.16699 7 9.5s5.5 6.66602 8.5 9.99902s6.5 7 10.5 11c6 6 13.167 12 21.5 18s17.833 11.667 28.5 17s22.5 9.5 35.5 12.5s27.5 4.5 43.5 4.5c23.333 0 43.5 -2.5 60.5 -7.5s30.833 -12.167 41.5 -21.5
c11.333 -9.33301 20.833 -19.333 28.5 -30s13.834 -21.667 18.501 -33c3.33301 -8.66699 5.66602 -17 6.99902 -25s2.33301 -15.667 3 -23s1.16699 -13.833 1.5 -19.5s0.5 -10.5 0.5 -14.5v-354h-88v327v8.5v9.5c0 3.33301 -0.166992 7 -0.5 11s-0.833008 8 -1.5 12
c-0.666992 10 -2.83398 19.833 -6.50098 29.5s-8.5 18.834 -14.5 27.501c-6 9.33301 -14.833 16.166 -26.5 20.499s-26.167 6.5 -43.5 6.5h-3h-3c-1.33301 -0.666992 -2.5 -1 -3.5 -1h-3.5c-2.66699 0 -5 -0.166992 -7 -0.5s-4 -0.833008 -6 -1.5
c-8 -2 -15.667 -4.5 -23 -7.5s-14.666 -6.5 -21.999 -10.5c-6.66699 -4.66699 -12.834 -9.66699 -18.501 -15s-10.5 -11.333 -14.5 -18l-7.5 -13.5c-2.33301 -4.33301 -4.16602 -8.5 -5.49902 -12.5s-2.5 -8 -3.5 -12s-2.16699 -7.66699 -3.5 -11l-2 -12
c-0.666992 -4 -1 -8 -1 -12v-12.5v-13.5v-299h-88v337v3.5v4.5c-0.666992 2 -1 3.83301 -1 5.5v5.5c0 4 -0.166992 8 -0.5 12s-1.16602 8 -2.49902 12c-2 9.33301 -5 18 -9 26s-9 15.667 -15 23s-14.167 13 -24.5 17s-23.166 6 -38.499 6c-12 0 -23.333 -1.5 -34 -4.5
s-21 -7.16699 -31 -12.5c-10 -6 -18.667 -12.5 -26 -19.5s-13 -14.833 -17 -23.5c-1.33301 -2.66699 -2.5 -5.33398 -3.5 -8.00098s-2.16699 -5.33398 -3.5 -8.00098c-0.666992 -2.66699 -1.5 -5.16699 -2.5 -7.5s-1.83301 -4.5 -2.5 -6.5c-0.666992 -4 -1.5 -8 -2.5 -12
s-1.83301 -7.66699 -2.5 -11l-2 -12c-0.666992 -4 -1 -8 -1 -12c-0.666992 -8 -1 -16 -1 -24v-24v-267h-88v0v0z" />
    <glyph glyph-name="n" unicode="n" horiz-adv-x="556" 
d="M68 0l0.00195312 518.004h79v-73h2l15.5 19c5 6 10.5 11.333 16.5 16c5.33301 5.33301 10.833 10 16.5 14s11.5 7.66699 17.5 11c9.33301 5.33301 18.5 9.5 27.5 12.5s17.833 5.16699 26.5 6.5c9.33301 1.33301 17.5 2.33301 24.5 3s13.167 1 18.5 1
c4 0 8 -0.166992 12 -0.5s8 -0.833008 12 -1.5s8.16699 -1.16699 12.5 -1.5s8.83301 -1.16602 13.5 -2.49902c10.667 -2.66699 21 -6 31 -10s19.667 -8.66699 29 -14s17.833 -11.833 25.5 -19.5s14.167 -16.5 19.5 -26.5l2 -4l2 -4c0 -1.33301 0.333008 -2.66602 1 -3.99902
l2 -4c1.33301 -2.66699 2.5 -5.33398 3.5 -8.00098s1.83301 -5 2.5 -7c1.33301 -4 2.5 -8 3.5 -12s1.83301 -8 2.5 -12c0.666992 -4.66699 1.33398 -9 2.00098 -13s1 -8 1 -12v-12.5c0 -4.33301 0.333008 -8.83301 1 -13.5v-14v-15v-317h-88v315v5v6
c-0.666992 2 -1 4.16699 -1 6.5v7.5c0 5.33301 -0.166992 10.5 -0.5 15.5s-1.16602 10.167 -2.49902 15.5c-2.66699 10 -6.33398 19.5 -11.001 28.5s-10.667 17.833 -18 26.5s-17.333 15.167 -30 19.5s-27.667 6.5 -45 6.5h-1.5h-0.5h-1.5h-1.5
c-12 -0.666992 -23.667 -2.5 -35 -5.5s-22.666 -7.5 -33.999 -13.5c-10.667 -6 -19.834 -12.833 -27.501 -20.5s-13.834 -16.167 -18.501 -25.5c-0.666992 -0.666992 -1.16699 -1.33398 -1.5 -2.00098l-0.5 -1c-0.666992 -0.666992 -1 -1.33398 -1 -2.00098v-2
c0 -0.666992 -0.166992 -1.33398 -0.5 -2.00098l-0.5 -1c-0.666992 -0.666992 -1.16699 -1.33398 -1.5 -2.00098s-0.5 -1.33398 -0.5 -2.00098c-2.66699 -8 -4.83398 -16 -6.50098 -24s-2.83398 -16 -3.50098 -24s-1.16699 -15.667 -1.5 -23s-0.5 -14.333 -0.5 -21v-281h-88
v0v0z" />
    <glyph glyph-name="o" unicode="o" horiz-adv-x="556" 
d="M35 259c0 6 0.172852 12.4941 0.505859 19.4941s0.833008 14.5 1.5 22.5s1.66699 16 3 24s3 16.333 5 25c1.33301 4 2.5 8 3.5 12s2.16699 8 3.5 12c1.33301 3.33301 2.66602 7 3.99902 11s3 8 5 12c3.33301 8 7.33301 15.833 12 23.5s9.66699 14.834 15 21.501
c9.33301 12 19.666 22.667 30.999 32s23.333 17.333 36 24c13.333 6.66699 26.833 12.167 40.5 16.5s27.5 7.83301 41.5 10.5c3.33301 0 6.66602 0.166992 9.99902 0.5s6.66602 0.833008 9.99902 1.5h5.5c1.66699 0 3.5 0.333008 5.5 1h4.5h5.5h6h7
c2 -0.666992 4.16699 -1 6.5 -1h6.5c4 -0.666992 8.33301 -1.16699 13 -1.5s9.33398 -1.16602 14.001 -2.49902c23.333 -4.66699 45.833 -13.167 67.5 -25.5s42.5 -28.5 62.5 -48.5s35 -45.333 45 -76s15 -66.667 15 -108c0 -24.667 -1.16699 -46.5 -3.5 -65.5
s-5.83301 -35.5 -10.5 -49.5s-9.33398 -26.333 -14.001 -37s-9.66699 -19.667 -15 -27l-1.5 -1.5c-0.333008 -0.333008 -0.5 -0.833008 -0.5 -1.5l-1.5 -1.5l-1.5 -1.5c-0.666992 -0.666992 -1.33398 -1.5 -2.00098 -2.5s-1.33398 -2.16699 -2.00098 -3.5
c-10.667 -12.667 -22.167 -24 -34.5 -34s-25.5 -18.667 -39.5 -26c-14.667 -6.66699 -29.167 -11.834 -43.5 -15.501s-28.833 -6.5 -43.5 -8.5h-4c-1.33301 0 -2.66602 -0.333008 -3.99902 -1h-4h-4h-4c-1.33301 0 -2.33301 -0.333008 -3 -1h-3.5h-3.5h-4.5h-4.5
c-1.33301 0.666992 -2.83301 1 -4.5 1h-4.5h-4h-4c-2 0.666992 -3.66699 1 -5 1h-4c-14.667 2 -29.334 5 -44.001 9s-29 9.33301 -43 16c-14 7.33301 -26.833 15.833 -38.5 25.5s-22.167 20.834 -31.5 33.501c-4 4.66699 -7.5 9.5 -10.5 14.5l-8.5 14.5
c-1.33301 2.66699 -2.5 5.33398 -3.5 8.00098s-2.16699 5.33398 -3.5 8.00098c-0.666992 2 -1.5 4.33301 -2.5 7s-2.16699 5.33398 -3.5 8.00098c-4.66699 12 -8.16699 23.833 -10.5 35.5s-4.16602 22.834 -5.49902 33.501c-0.666992 11.333 -1.33398 21.5 -2.00098 30.5
s-1 16.833 -1 23.5v2v0zM125.006 258.994c0 -29.333 2.33203 -54.833 6.99902 -76.5s11.667 -39.5 21 -53.5s19.333 -25.833 30 -35.5s22 -17.167 34 -22.5c5.33301 -2.66699 10.666 -4.66699 15.999 -6l16 -4c5.33301 -0.666992 10.333 -1.33398 15 -2.00098
s9.33398 -1 14.001 -1c23.333 0 43.833 3.5 61.5 10.5s31.834 17.833 42.501 32.5c11.333 14.667 20.5 30 27.5 46s12.167 32.333 15.5 49c1.33301 5.33301 2.16602 10.833 2.49902 16.5s0.833008 11.167 1.5 16.5c0 2.66699 0.166992 5.33398 0.5 8.00098
s0.5 5.33398 0.5 8.00098c0.666992 2 1 4.33301 1 7v8c0 34.667 -4 64.5 -12 89.5s-19.667 45.167 -35 60.5c-16 15.333 -32.833 26.833 -50.5 34.5s-36.167 11.5 -55.5 11.5c-4.66699 0 -9.16699 -0.166992 -13.5 -0.5s-9.16602 -1.16602 -14.499 -2.49902
c-4.66699 -0.666992 -9.5 -1.83398 -14.5 -3.50098s-10.167 -3.5 -15.5 -5.5c-12 -4.66699 -23.5 -11.834 -34.5 -21.501s-21.5 -21.5 -31.5 -35.5s-17.333 -31.833 -22 -53.5s-7 -47.167 -7 -76.5v2v0z" />
    <glyph glyph-name="p" unicode="p" horiz-adv-x="556" 
d="M68 -199l-0.00292969 716.998h80v-67h2c1.33301 0.666992 2.83301 2.33398 4.5 5.00098s3.5 5.33398 5.5 8.00098c1.33301 1.33301 2.5 2.83301 3.5 4.5s2.16699 3.5 3.5 5.5c2 1.33301 3.66699 2.83301 5 4.5s3 3.16699 5 4.5
c5.33301 5.33301 11.833 10.666 19.5 15.999s16.5 10.333 26.5 15s21.333 8.16699 34 10.5s26.334 3.5 41.001 3.5c36.667 0 68.667 -6.66699 96 -20s50.333 -33 69 -59c18 -26.667 31.667 -55.667 41 -87s14 -65 14 -101c0 -46 -5.83301 -86.167 -17.5 -120.5
s-29.167 -62.833 -52.5 -85.5s-48 -39.5 -74 -50.5s-53.333 -16.5 -82 -16.5c-15.333 0 -29.666 1.66699 -42.999 5s-25.666 7.66602 -36.999 12.999c-11.333 6.66699 -21.5 13.834 -30.5 21.501s-16.833 15.834 -23.5 24.501l-2 2v-253h-88v0v0zM146.997 255.998
c0 -32.667 2.66504 -60.502 7.99805 -83.502s13.333 -41.5 24 -55.5c10.667 -14.667 22 -26.5 34 -35.5s24.333 -15.167 37 -18.5c3.33301 -0.666992 6.5 -1.5 9.5 -2.5s5.83301 -1.5 8.5 -1.5c3.33301 -0.666992 6.5 -1 9.5 -1h8.5c4 0 8 0.166992 12 0.5
s8.33301 0.833008 13 1.5l14 4c4.66699 1.33301 9.33398 3 14.001 5c11.333 5.33301 22 12.833 32 22.5s19.667 21.834 29 36.501c9.33301 14 16.333 32.167 21 54.5s7 48.5 7 78.5c0 33.333 -3.16699 62.333 -9.5 87s-16.166 44.334 -29.499 59.001
c-12.667 15.333 -26 27.166 -40 35.499s-28.667 13.5 -44 15.5h-2c-0.666992 0 -1.33398 0.333008 -2.00098 1h-2h-2h-2h-1h-2h-2c-20.667 0 -39.667 -4.66699 -57 -14s-32.666 -23.666 -45.999 -42.999c-13.333 -18.667 -23.333 -40.5 -30 -65.5s-10 -52.5 -10 -82.5v2v0z
" />
    <glyph glyph-name="q" unicode="q" horiz-adv-x="556" 
d="M400 -199l0.000976562 254.001h-2c-6.66699 -10.667 -14.5 -20 -23.5 -28s-19.167 -15 -30.5 -21c-12 -5.33301 -24.5 -9.66602 -37.5 -12.999s-27.167 -5 -42.5 -5c-29.333 0 -57 5.66699 -83 17s-50.667 29 -74 53c-22.667 23.333 -39.834 52 -51.501 86
s-17.5 73.333 -17.5 118c0 41.333 5 78.166 15 110.499s25.333 60.5 46 84.5c20 23.333 43.167 41 69.5 53s55.833 18 88.5 18c14 0 27 -1.16699 39 -3.5s22.667 -5.83301 32 -10.5s18 -9.33398 26 -14.001s15 -9.66699 21 -15c4 -4 7.66699 -7.83301 11 -11.5
s6.33301 -7.16699 9 -10.5l7 -9c2 -2.66699 3.33301 -5 4 -7l2 2v69h80v-717h-88v0v0zM128.001 261.001c0 -29.333 2.33594 -54.9951 7.00293 -76.9951s11.334 -40 20.001 -54c9.33301 -14.667 19.166 -26.834 29.499 -36.501s20.833 -17.167 31.5 -22.5
c2.66699 -1.33301 5.16699 -2.5 7.5 -3.5s4.83301 -1.83301 7.5 -2.5c2 -0.666992 4.16699 -1.33398 6.5 -2.00098s4.83301 -1.33398 7.5 -2.00098l13.5 -2c4.33301 -0.666992 8.5 -1 12.5 -1c3.33301 0 7.16602 0.333008 11.499 1s9.5 1.33398 15.5 2.00098
c5.33301 1.33301 11 3.16602 17 5.49902s12.333 5.5 19 9.5c9.33301 5.33301 18.166 12.833 26.499 22.5s16.5 21.167 24.5 34.5c7.33301 13.333 13 29.666 17 48.999s6 42 6 68c0 29.333 -3.16699 56.166 -9.5 80.499s-15.5 46.833 -27.5 67.5
c-12 20 -26.833 35.167 -44.5 45.5s-38.167 15.5 -61.5 15.5c-20 0 -38 -4.16699 -54 -12.5s-30.667 -20.833 -44 -37.5c-12.667 -16.667 -22.334 -37.5 -29.001 -62.5s-10 -54.167 -10 -87.5v2v0z" />
    <glyph glyph-name="r" unicode="r" horiz-adv-x="333" 
d="M64 0v518h80v-78h2c0.666992 0 1.16699 0.333008 1.5 1s0.833008 1.33398 1.5 2.00098c0 0.666992 0.166992 1.5 0.5 2.5s0.833008 1.83301 1.5 2.5c1.33301 1.33301 2.5 3 3.5 5s1.83301 4 2.5 6c4.66699 8.66699 10 17 16 25s13 15.333 21 22
c7.33301 7.33301 16.333 12.833 27 16.5s22.334 5.5 35.001 5.5c7.33301 0 14.166 -0.5 20.499 -1.5s12.5 -2.16699 18.5 -3.5c3.33301 -0.666992 6.33301 -1.5 9 -2.5s5.33398 -1.83301 8.00098 -2.5c2 -1.33301 4.16699 -2.33301 6.5 -3s4.5 -1.66699 6.5 -3
s4 -2.5 6 -3.5s4 -2.16699 6 -3.5c1.33301 -0.666992 2.83301 -1.5 4.5 -2.5s3.16699 -1.83301 4.5 -2.5l-30 -79c-4.66699 1.33301 -9.66699 3 -15 5l-16 6c-5.33301 2 -10.833 3.5 -16.5 4.5s-11.167 1.5 -16.5 1.5c-14.667 0 -27.334 -2.66699 -38.001 -8
s-19.667 -13 -27 -23c-6.66699 -10 -12.5 -20.5 -17.5 -31.5s-8.83301 -22.5 -11.5 -34.5c-1.33301 -6.66699 -2.5 -13.334 -3.5 -20.001s-1.5 -13 -1.5 -19c-0.666992 -6 -1 -11.667 -1 -17v-15v-270h-88v0v0z" />
    <glyph glyph-name="s" unicode="s" horiz-adv-x="500" 
d="M31 155l86.9951 12.999c2 -18.667 6.33301 -34.667 13 -48s15.334 -24.666 26.001 -33.999c11.333 -9.33301 24.833 -16.333 40.5 -21s33.834 -7 54.501 -7c18 0 33.667 1.5 47 4.5s24.333 7.5 33 13.5c9.33301 6 16.833 12.5 22.5 19.5s9.83398 14.167 12.501 21.5
c0.666992 2 1.16699 4 1.5 6s0.833008 4 1.5 6v3.5c0 1 0.333008 1.83301 1 2.5v3.5v2.5c0 10.667 -2 19.834 -6 27.501s-10 13.834 -18 18.501s-17.167 9 -27.5 13s-22.166 7.66699 -35.499 11l-58 16c-2 -0.666992 -4 -0.833984 -6 -0.500977s-3.66699 0.833008 -5 1.5
c-2 0 -4 0.166992 -6 0.5s-4 0.833008 -6 1.5c-4 1.33301 -7.83301 2.5 -11.5 3.5s-7.16699 2.16699 -10.5 3.5c-16.667 5.33301 -33 11.666 -49 18.999s-31 16 -45 26s-24.5 23.167 -31.5 39.5s-10.5 35.5 -10.5 57.5c0 20 4 38.667 12 56s20 33.333 36 48
c16 15.333 36 26.666 60 33.999s51.667 11 83 11c28 0 52.5 -2.16699 73.5 -6.5s38.5 -10.5 52.5 -18.5c14 -8.66699 25.833 -17.5 35.5 -26.5s17.5 -18.5 23.5 -28.5c3.33301 -6.66699 6.33301 -13 9 -19s4.66699 -12 6 -18l3.5 -16l2.5 -12l-86 -10
c-2 11.333 -5 21.5 -9 30.5s-9.33301 16.5 -16 22.5s-13.5 11 -20.5 15s-14.167 7 -21.5 9c-4.66699 1.33301 -9 2.33301 -13 3l-12 2h-6c-2 0 -4 0.333008 -6 1h-5.5h-4.5h-4.5h-5.5c-2 -0.666992 -4 -1 -6 -1h-6c-4 -0.666992 -8.16699 -1.16699 -12.5 -1.5
s-8.83301 -1.16602 -13.5 -2.49902c-8 -2 -15.667 -4.5 -23 -7.5s-14.333 -6.83301 -21 -11.5s-11.667 -10.667 -15 -18s-5 -15.666 -5 -24.999c0 -8 1.33301 -15.167 4 -21.5s6.33398 -11.5 11.001 -15.5c5.33301 -4.66699 12.166 -8.83398 20.499 -12.501
s18.166 -7.16699 29.499 -10.5l12.5 -4l13.5 -4l14.5 -4c5 -1.33301 10.5 -2.66602 16.5 -3.99902l13.5 -4l13.5 -4c4.66699 -0.666992 9.16699 -1.5 13.5 -2.5s8.5 -2.16699 12.5 -3.5c25.333 -6.66699 47.833 -14.334 67.5 -23.001s35.834 -18 48.501 -28
c13.333 -10 23.333 -23 30 -39s10 -35.667 10 -59c0 -21.333 -4.5 -41.5 -13.5 -60.5s-22.5 -36.833 -40.5 -53.5s-39.833 -28.834 -65.5 -36.501s-55.167 -11.5 -88.5 -11.5c-30.667 0 -57.167 2.33301 -79.5 7s-41.166 11.667 -56.499 21
c-14.667 10 -27.5 20.5 -38.5 31.5s-19.5 22.5 -25.5 34.5c-3.33301 6.66699 -6.33301 13.167 -9 19.5s-4.66699 12.5 -6 18.5c-2 6 -3.5 11.833 -4.5 17.5s-1.83301 10.834 -2.5 15.501v2v0z" />
    <glyph glyph-name="t" unicode="t" 
d="M257 79l12.0039 -78c-0.666992 -0.666992 -1.5 -1 -2.5 -1h-3.5h-2c-0.666992 0 -1 -0.333008 -1 -1c-0.666992 0 -1.33398 -0.166992 -2.00098 -0.5s-1.33398 -0.5 -2.00098 -0.5c-2.66699 -0.666992 -6 -1.16699 -10 -1.5s-8 -0.833008 -12 -1.5
c-4.66699 -0.666992 -9.5 -1.16699 -14.5 -1.5s-10.5 -0.5 -16.5 -0.5c-30.667 0 -54.834 3.66699 -72.501 11s-29.167 19 -34.5 35c-4.66699 15.333 -8.33398 32.333 -11.001 51s-4 38.667 -4 60v300h-64v68h64v129l88 53v-182h88v-68h-88v-303
c0 -11.333 0.5 -21.333 1.5 -30s2.5 -16.667 4.5 -24c2 -6.66699 6.5 -11.667 13.5 -15s16.833 -5 29.5 -5h10.5c3.66699 0 7.16699 0.333008 10.5 1s6.5 1.16699 9.5 1.5s5.83301 0.833008 8.5 1.5v2v0z" />
    <glyph glyph-name="u" unicode="u" horiz-adv-x="556" 
d="M408 0l0.00585938 76.001h-2c-4.66699 -7.33301 -9.16699 -13.833 -13.5 -19.5s-8.83301 -10.834 -13.5 -15.501s-9.33398 -8.83398 -14.001 -12.501l-14 -10.5c-10.667 -7.33301 -21.5 -13 -32.5 -17s-21.5 -6.66699 -31.5 -8l-26 -3.5
c-7.33301 -1 -13.333 -1.5 -18 -1.5h-5.5h-4.5c-2 0.666992 -3.83301 1 -5.5 1h-5.5c-3.33301 0.666992 -6.83301 1.16699 -10.5 1.5s-7.16699 0.833008 -10.5 1.5c-11.333 2.66699 -22.5 5.66699 -33.5 9s-21.5 8 -31.5 14c-10 5.33301 -18.833 12 -26.5 20
s-14.167 17 -19.5 27c-0.666992 1.33301 -1.5 2.83301 -2.5 4.5s-1.83301 3.5 -2.5 5.5c-0.666992 1.33301 -1.33398 2.83301 -2.00098 4.5s-1.33398 3.5 -2.00098 5.5c-2.66699 6.66699 -5 13.667 -7 21s-3.66699 15 -5 23c-0.666992 8 -1.33398 17.833 -2.00098 29.5
s-1 24.834 -1 39.501v323h88v-287c0 -22.667 0.333008 -41.667 1 -57s2 -27.666 4 -36.999c1.33301 -8.66699 4 -16.834 8 -24.501s9 -14.5 15 -20.5c5.33301 -4.66699 11 -9 17 -13s12.333 -7.33301 19 -10c7.33301 -2.66699 14.5 -4.5 21.5 -5.5s14.167 -1.5 21.5 -1.5
c12.667 0 25 1.5 37 4.5s23.667 7.83301 35 14.5c11.333 6 21.166 13.167 29.499 21.5s14.833 17.833 19.5 28.5c4 8.66699 7.16699 17.5 9.5 26.5s3.83301 17.833 4.5 26.5c1.33301 9.33301 2.16602 18.5 2.49902 27.5s0.5 18.167 0.5 27.5v279h88v-518h-79v0v0z" />
    <glyph glyph-name="v" unicode="v" horiz-adv-x="500" 
d="M210 0l-197 518h93l111 -310c4.66699 -13.333 8.66699 -25.333 12 -36l9 -28c2 -8.66699 4 -16.5 6 -23.5s3.66699 -13.5 5 -19.5l2 2c1.33301 3.33301 2.5 7 3.5 11s1.83301 8 2.5 12l4 12l4 12c1.33301 4.66699 2.83301 9.16699 4.5 13.5s3.16699 8.83301 4.5 13.5
c1.33301 4 2.83301 8 4.5 12l4.5 11l115 318h90l-196 -518h-82v0v0z" />
    <glyph glyph-name="w" unicode="w" horiz-adv-x="722" 
d="M164 0l-159 517.997h91l83 -299l6 -25c0 -2.66699 0.5 -5.66699 1.5 -9s2.16699 -7.66602 3.5 -12.999l4.5 -15.5c1.66699 -5.66699 3.5 -11.167 5.5 -16.5v0v0v-1v0v0v0c0.666992 -2.66699 1.33398 -5.5 2.00098 -8.5s1.33398 -6.16699 2.00098 -9.5
c0.666992 -1.33301 1.16699 -2.66602 1.5 -3.99902s0.833008 -2.66602 1.5 -3.99902c0 -1.33301 0.166992 -2.5 0.5 -3.5s0.833008 -2.16699 1.5 -3.5l1 3.5c0.666992 2.33301 1.33398 5.5 2.00098 9.5c1.33301 4 2.66602 8.5 3.99902 13.5l4 14.5v0v0v0v1v0v0
c1.33301 4.66699 2.5 9.16699 3.5 13.5s1.83301 8.5 2.5 12.5c1.33301 4 2.16602 7.33301 2.49902 10s0.833008 4.33398 1.5 5.00098v0.5c0 0.333008 0.333008 0.833008 1 1.5v0.5v0.5v0.5c0 0.333008 0.333008 0.833008 1 1.5v0.5v1.5c0 2 0.166992 3.83301 0.5 5.5
s0.833008 3.16699 1.5 4.5c0 1.33301 0.166992 2.66602 0.5 3.99902s0.833008 2.33301 1.5 3l83 305h90l77 -300v-2.5c0 -0.333008 0.333008 -0.833008 1 -1.5v-1.5v-0.5v-1.5c0 -0.333008 0.333008 -0.5 1 -0.5v-1.5v-0.5v-0.5c0 -0.333008 0.333008 -0.5 1 -0.5v-1v0v-1.5
c0 -0.333008 0.333008 -0.5 1 -0.5c0.666992 -2.66699 1.16699 -5.33398 1.5 -8.00098s0.833008 -5 1.5 -7l1.5 -6c0.333008 -1.33301 0.833008 -2.66602 1.5 -3.99902l5.5 -19.5c1.66699 -5.66699 2.83398 -10.167 3.50098 -13.5c1.33301 -4 2.16602 -7.5 2.49902 -10.5
s0.833008 -6.16699 1.5 -9.5v-0.5c0 -0.333008 0.333008 -0.5 1 -0.5v-1v0v-1.5v-0.5v-1.5v-1.5v-0.5c0 -0.333008 0.333008 -0.5 1 -0.5v-1v0l2 2v-1v1v0.5c0 0.333008 0.333008 0.833008 1 1.5v0.5v0.5v0l1 1v0v0v0v1v0v0c0.666992 3.33301 1.5 6.5 2.5 9.5
s1.83301 6.5 2.5 10.5c1.33301 3.33301 2.83301 7.66602 4.5 12.999l5.5 18v0.5c0 0.333008 0.333008 0.833008 1 1.5v0.5v1.5c0 1.33301 0.166992 2.5 0.5 3.5s0.833008 1.83301 1.5 2.5c0.666992 1.33301 1.16699 2.83301 1.5 4.5s0.833008 3.5 1.5 5.5
c0 1.33301 0.166992 2.83301 0.5 4.5s0.833008 3.16699 1.5 4.5c1.33301 3.33301 2.16602 6 2.49902 8s0.833008 3.66699 1.5 5l89 301h86l-163 -518h-91l-82 311c0 -1.33301 -0.166992 -1.16602 -0.5 0.500977s-1.16602 4.5 -2.49902 8.5
c-0.666992 4 -1.5 8.16699 -2.5 12.5s-2.16699 8.83301 -3.5 13.5v0v1h-1v0v0v1v0v0c-0.666992 2 -1.16699 4 -1.5 6s-0.5 3.66699 -0.5 5c-0.666992 2 -1.16699 3.83301 -1.5 5.5s-0.833008 3.5 -1.5 5.5c-0.666992 3.33301 -1.33398 6.33301 -2.00098 9s-1 4.66699 -1 6v0
v1c-0.666992 0 -1 0.166992 -1 0.5v0.5v0.5v1.5v1.5v1.5c-0.666992 0 -1 0.166992 -1 0.5v1.5v1.5v1.5l-2 2l-103 -399h-92v0v0z" />
    <glyph glyph-name="x" unicode="x" horiz-adv-x="500" 
d="M7 0l190 269.994l-175 248h109l80 -121l12 -20l8 -13c2 -3.33301 4 -6.5 6 -9.5s3.66699 -5.83301 5 -8.5v-0.5c0 -0.333008 0.333008 -0.5 1 -0.5v-1v0v0v0c0 -0.666992 0.166992 -1 0.5 -1h0.5v-0.5c0 -0.333008 0.333008 -0.5 1 -0.5v-1.5v-0.5
c0 -0.666992 0.166992 -1.16699 0.5 -1.5l1.5 -1.5c2 3.33301 4 6.5 6 9.5l5 7.5c1.33301 2 2.83301 4 4.5 6s3.16699 4 4.5 6v0v0v0v1h0.5h0.5c1.33301 2 2.5 4 3.5 6s2.16699 4 3.5 6s3 4.33301 5 7s4.33301 5.33398 7 8.00098l87 124h105l-179 -243l193 -275h-108
l-106 161c-0.666992 -0.666992 -1.16699 -0.666992 -1.5 0s-0.833008 1.33398 -1.5 2.00098s-1.16699 1.33398 -1.5 2.00098s-0.5 1.33398 -0.5 2.00098c-0.666992 0.666992 -1.16699 1.33398 -1.5 2.00098s-0.833008 1.33398 -1.5 2.00098v0v0h-1v0v0.5v1.5h-0.5
c-0.333008 0 -0.5 0.333008 -0.5 1h-1v0v0.5v1.5l-18 29l-136 -205h-107v0v0z" />
    <glyph glyph-name="y" unicode="y" horiz-adv-x="500" 
d="M62 -200l-9.00098 83.0059c1.33301 -0.666992 2.83301 -1.16699 4.5 -1.5s3.5 -0.833008 5.5 -1.5c2 0 4 -0.166992 6 -0.5s4 -0.833008 6 -1.5c4 -1.33301 8.33301 -2.16602 13 -2.49902s9.66699 -0.5 15 -0.5c13.333 0 24.833 1.5 34.5 4.5s17.5 7.5 23.5 13.5
s11.667 13.167 17 21.5s10.333 18.166 15 29.499c0.666992 1.33301 1.16699 2.66602 1.5 3.99902s0.833008 2.66602 1.5 3.99902c0.666992 2 1.16699 3.66699 1.5 5s0.833008 2.66602 1.5 3.99902s1.16699 2.66602 1.5 3.99902s0.833008 2.66602 1.5 3.99902
c0.666992 2 1.16699 3.66699 1.5 5s0.833008 2.66602 1.5 3.99902v0.5c0 0.333008 0.333008 0.5 1 0.5v1.5v0.5v0.5c0 0.333008 0.333008 0.5 1 0.5v1.5v0.5v0h1v1v0v0v0v1v0c0.666992 1.33301 1.16699 2.66602 1.5 3.99902s0.833008 2.66602 1.5 3.99902
c0.666992 0.666992 1.16699 1.5 1.5 2.5s0.5 1.83301 0.5 2.5l-197 519h95l108 -300l14 -41.5c4 -12.333 7.33301 -23.5 10 -33.5c3.33301 -10 6 -18.833 8 -26.5s3.66699 -14.5 5 -20.5l2 2c0.666992 2.66699 1.33398 5.5 2.00098 8.5s1.33398 6.16699 2.00098 9.5
c0.666992 2.66699 1.5 5.66699 2.5 9s1.83301 6.33301 2.5 9c0.666992 3.33301 1.5 6.5 2.5 9.5s1.83301 6.16699 2.5 9.5c1.33301 2.66699 2.5 5.66699 3.5 9s1.83301 6.33301 2.5 9c1.33301 3.33301 2.5 6.83301 3.5 10.5s2.16699 7.5 3.5 11.5l4 10.5l4 11.5l110 303h89
l-198 -527c-0.666992 -0.666992 -1.16699 -1.5 -1.5 -2.5s-0.5 -1.83301 -0.5 -2.5c-0.666992 -1.33301 -1.16699 -2.66602 -1.5 -3.99902s-0.833008 -2.66602 -1.5 -3.99902s-1.16699 -2.5 -1.5 -3.5s-0.5 -1.83301 -0.5 -2.5c-0.666992 -1.33301 -1.16699 -2.5 -1.5 -3.5
s-0.833008 -1.83301 -1.5 -2.5c-0.666992 -1.33301 -1.16699 -2.5 -1.5 -3.5s-0.5 -2.16699 -0.5 -3.5c-0.666992 -0.666992 -1.16699 -1.66699 -1.5 -3s-0.5 -2.33301 -0.5 -3c-8.66699 -22.667 -17.834 -43.5 -27.501 -62.5s-20.167 -36.5 -31.5 -52.5
c-10.667 -16 -24.5 -28 -41.5 -36s-37.167 -12 -60.5 -12c-4.66699 0 -9.16699 0.166992 -13.5 0.5s-8.5 0.833008 -12.5 1.5c-2 0.666992 -3.83301 1.16699 -5.5 1.5s-3.5 0.5 -5.5 0.5c-1.33301 0.666992 -2.83301 1.16699 -4.5 1.5s-3.16699 0.833008 -4.5 1.5
c-0.666992 0.666992 -1.5 1.16699 -2.5 1.5s-2.16699 0.5 -3.5 0.5h-1.5h-0.5c-0.666992 0.666992 -1.16699 1 -1.5 1h-1.5v0v0z" />
    <glyph glyph-name="z" unicode="z" horiz-adv-x="500" 
d="M20 0l-0.00292969 71.001l330 378c-5.33301 -1.33301 -10.333 -2.33301 -15 -3s-9 -1 -13 -1h-12h-11c-3.33301 -0.666992 -6.83301 -1 -10.5 -1h-11.5h-12h-14l-212 2v72h424v-57l-281 -328c-0.666992 -1.33301 -1.66699 -3 -3 -5s-3.33301 -4.66699 -6 -8
c-1.33301 -1.33301 -2.66602 -2.83301 -3.99902 -4.5s-2.66602 -3.16699 -3.99902 -4.5c-2 -1.33301 -3.66699 -2.83301 -5 -4.5s-2.66602 -3.16699 -3.99902 -4.5v-0.5v-0.5h-1v0v0v0v-1v0c-1.33301 -1.33301 -2.66602 -2.83301 -3.99902 -4.5
s-2.66602 -3.16699 -3.99902 -4.5l-4 -4l-4 -4l-1.5 -1.5l-0.5 -0.5l-1.5 -1.5l-0.5 -0.5v0v0l-1 -1v0v0v0c-0.666992 -0.666992 -1.33398 -1.5 -2.00098 -2.5s-1.33398 -1.83301 -2.00098 -2.5s-1.16699 -1.33398 -1.5 -2.00098l-0.5 -1c4 0 9 0.166992 15 0.5
s12.667 0.833008 20 1.5c7.33301 0 14.833 0.166992 22.5 0.5s15.5 0.833008 23.5 1.5h7.5h7.5h7.5h7.5l240 2v-76h-459v0v0z" />
    <glyph glyph-name="braceleft" unicode="{" horiz-adv-x="334" 
d="M283 728h26.998v-76h-15c-16 -1.33301 -29.5 -3.5 -40.5 -6.5s-19.5 -7.16699 -25.5 -12.5c-6 -6 -10.5 -16 -13.5 -30s-4.5 -32 -4.5 -54c0 -44.667 -1.16699 -83.334 -3.5 -116.001s-5.5 -59 -9.5 -79s-13.5 -38.167 -28.5 -54.5s-35.167 -30.5 -60.5 -42.5
c21.333 -8.66699 38.833 -19.834 52.5 -33.501s23.834 -29.167 30.501 -46.5c6 -18 10.667 -38.667 14 -62s5 -49.666 5 -78.999c0 -38.667 0.833008 -70 2.5 -94s4.16699 -40.333 7.5 -49c3.33301 -9.33301 11.333 -16.166 24 -20.499s29.334 -6.5 50.001 -6.5h15v-76h-27
h-6h-7c-2 0.666992 -4.16699 1 -6.5 1h-6.5c-4.66699 0 -9.33398 0.166992 -14.001 0.5s-9.33398 1.16602 -14.001 2.49902c-6 0.666992 -12 2 -18 4s-12 4.66699 -18 8c-6 2.66699 -11.5 6.5 -16.5 11.5s-9.83301 10.5 -14.5 16.5c-8 10.667 -14.5 22.5 -19.5 35.5
s-8.16699 26.5 -9.5 40.5c-1.33301 14.667 -2.33301 31.834 -3 51.501s-1 41.834 -1 66.501v0v1v0v0v0.5v1.5c-0.666992 24 -2.16699 46.667 -4.5 68s-5.5 41.333 -9.5 60c-4.66699 19.333 -14.167 33.666 -28.5 42.999s-33.833 14.333 -58.5 15v82
c24.667 -0.666992 44.167 3.66602 58.5 12.999s23.833 23.333 28.5 42c4 18.667 7.16699 38.667 9.5 60s3.83301 44.333 4.5 69v0v1v0v0v0.5v1.5c0 25.333 0.333008 48 1 68s1.66699 37.333 3 52s4.5 28.334 9.5 41.001s11.5 24.334 19.5 35.001
c4.66699 6 9.5 11.5 14.5 16.5s10.5 8.83301 16.5 11.5c6 3.33301 12 6 18 8s12 3.33301 18 4c4.66699 1.33301 9.33398 2.16602 14.001 2.49902s9.33398 0.5 14.001 0.5h6.5c2.33301 0 4.5 0.333008 6.5 1h7h6v2v0z" />
    <glyph glyph-name="bar" unicode="|" horiz-adv-x="260" 
d="M92 750h76v-1000h-76v1000v0v0z" />
    <glyph glyph-name="braceright" unicode="}" horiz-adv-x="334" 
d="M51 -210h-26.999v76h15c16 0 29.5 1.5 40.5 4.5s19.5 7.16699 25.5 12.5c6 6 10.5 16 13.5 30s4.5 32 4.5 54c0 44 1 82.167 3 114.5s5.33301 58.5 10 78.5c4 20 13.5 38 28.5 54s35.167 30.333 60.5 43c-21.333 9.33301 -39 20.5 -53 33.5s-24 28.5 -30 46.5
c-6.66699 17.333 -11.5 37.833 -14.5 61.5s-4.5 50.167 -4.5 79.5c0 39.333 -1 71.166 -3 95.499s-4.66699 40.833 -8 49.5c-3.33301 9.33301 -11 16.166 -23 20.499s-28.667 6.5 -50 6.5l-15 2v76h27c4 -1.33301 8.16699 -2.16602 12.5 -2.49902s8.83301 -0.5 13.5 -0.5
s9.33398 -0.166992 14.001 -0.5s9.33398 -1.16602 14.001 -2.49902c3.33301 -0.666992 6.33301 -1.33398 9 -2.00098s5.66699 -1.33398 9 -2.00098c2.66699 -1.33301 5.5 -2.66602 8.5 -3.99902s5.83301 -2.66602 8.5 -3.99902c6 -2.66699 11.667 -6.5 17 -11.5
s10.333 -10.5 15 -16.5c8 -10.667 14.5 -22.5 19.5 -35.5s8.16699 -26.5 9.5 -40.5c1.33301 -14.667 2.33301 -32 3 -52s1 -42.667 1 -68c0 -24.667 1 -47.667 3 -69s5.33301 -41.666 10 -60.999c4 -18.667 13.5 -33 28.5 -43s34.833 -15.333 59.5 -16v-78
c-24.667 -1.33301 -44.334 -6.83301 -59.001 -16.5s-24 -23.834 -28 -42.501c-4.66699 -18.667 -8.16699 -38.834 -10.5 -60.501s-3.5 -44.5 -3.5 -68.5v-1.5v-0.5v0v0v-1v0v-1.5v-0.5v-1.5v-1.5v-2v-2c-0.666992 -23.333 -1.5 -44.333 -2.5 -63s-2.16699 -35 -3.5 -49
s-4.33301 -27 -9 -39s-10.667 -23.333 -18 -34c-4.66699 -6 -9.66699 -11.5 -15 -16.5s-11 -8.83301 -17 -11.5c-2.66699 -1.33301 -5.5 -2.66602 -8.5 -3.99902s-5.83301 -2.66602 -8.5 -3.99902c-3.33301 -0.666992 -6.33301 -1.33398 -9 -2.00098
s-5.66699 -1.33398 -9 -2.00098c-4.66699 -1.33301 -9.33398 -2.16602 -14.001 -2.49902s-9.33398 -0.5 -14.001 -0.5h-7.5c-2.33301 0 -4.5 -0.333008 -6.5 -1h-6h-6v0v0z" />
    <glyph glyph-name="asciitilde" unicode="~" horiz-adv-x="584" 
d="M43 272l0.00585938 99.998c5.33301 5.33301 10.833 10.5 16.5 15.5s11.834 9.5 18.501 13.5s13.167 7.5 19.5 10.5s12.833 5.5 19.5 7.5l8 2l8 2c2 0.666992 4.33301 1.16699 7 1.5s5.33398 0.833008 8.00098 1.5c5.33301 1.33301 10.5 2.16602 15.5 2.49902
s9.83301 0.5 14.5 0.5c6 0 13 -0.5 21 -1.5s17.333 -2.5 28 -4.5c10 -2 22.167 -5.33301 36.5 -10s30.5 -10.667 48.5 -18c0.666992 -0.666992 1.5 -1.16699 2.5 -1.5s2.5 -1.16602 4.5 -2.49902l6 -2l6 -2v0v0v-1v0v0v0c1.33301 -0.666992 2.5 -1.16699 3.5 -1.5
s1.83301 -0.5 2.5 -0.5c1.33301 -0.666992 2.5 -1.16699 3.5 -1.5s1.83301 -0.833008 2.5 -1.5c2 -0.666992 3.66699 -1.33398 5 -2.00098s2.33301 -1 3 -1c1.33301 -0.666992 2.5 -1.16699 3.5 -1.5s2.16699 -0.833008 3.5 -1.5s2.66602 -1.16699 3.99902 -1.5
s3 -0.833008 5 -1.5c3.33301 -0.666992 6.83301 -1.5 10.5 -2.5l12.5 -3.5l12.5 -2c4.33301 -0.666992 8.83301 -1 13.5 -1c8.66699 0 17 0.833008 25 2.5s16 4.16699 24 7.5c7.33301 3.33301 14.5 7 21.5 11s13.5 8.33301 19.5 13c4.66699 3.33301 9 6.83301 13 10.5
s7.33301 6.83398 10 9.50098l8.5 8.5l4.5 4.5v-101l-1.5 -3c-0.333008 -0.666992 -0.833008 -1.33398 -1.5 -2.00098l-1.5 -1.5c-0.333008 -0.333008 -0.833008 -0.5 -1.5 -0.5c-6.66699 -6.66699 -14.5 -12.834 -23.5 -18.501s-18.5 -11.167 -28.5 -16.5
s-21.5 -9.33301 -34.5 -12s-27.167 -4 -42.5 -4c-5.33301 0 -10.5 0.166992 -15.5 0.5s-10.167 0.833008 -15.5 1.5c-4.66699 0.666992 -9.33398 1.5 -14.001 2.5s-9.33398 2.16699 -14.001 3.5l-14.5 4c-5 1.33301 -10.167 3 -15.5 5l-14.5 6c-5 2 -10.167 4.33301 -15.5 7
c-0.666992 0 -1.33398 0.166992 -2.00098 0.5l-3 1.5c-1.33301 0.666992 -2.83301 1.33398 -4.5 2.00098s-3.16699 1.33398 -4.5 2.00098v0v0h-1v0v0v1v0v0c-2 0.666992 -3.66699 1.33398 -5 2.00098l-4 2c-1.33301 0.666992 -2.5 1.16699 -3.5 1.5s-1.83301 0.5 -2.5 0.5
c-1.33301 0.666992 -2.83301 1.33398 -4.5 2.00098s-3.5 1.33398 -5.5 2.00098c-0.666992 0.666992 -1.5 1.16699 -2.5 1.5s-2.16699 0.833008 -3.5 1.5c-0.666992 0 -1.5 0.166992 -2.5 0.5s-2.16699 0.833008 -3.5 1.5l-12.5 4
c-4.33301 1.33301 -9.16602 2.66602 -14.499 3.99902c-2.66699 0.666992 -5.33398 1.16699 -8.00098 1.5s-5 0.833008 -7 1.5c-2.66699 0.666992 -5.33398 1.16699 -8.00098 1.5s-5.33398 0.5 -8.00098 0.5h-2h-2h-2h-2c-12.667 0 -24.334 -1.5 -35.001 -4.5
s-20.667 -7.16699 -30 -12.5c-8.66699 -5.33301 -17 -11 -25 -17s-15.667 -12.333 -23 -19l-2 -2c-0.666992 -0.666992 -1.33398 -1 -2.00098 -1l-2 -2l-2 -2l-2.5 -2.5l-3.5 -3.5v2v0z" />
    <glyph glyph-name="exclamdown" unicode="&#xa1;" horiz-adv-x="333" 
d="M194 340l27 -379v-159h-109v159l25 379h57v0v0zM217 518v-100h-100v100h100v0v0z" />
    <glyph glyph-name="cent" unicode="&#xa2;" horiz-adv-x="556" 
d="M366 436l-109.003 -374.005c0.666992 -1.33301 1.16699 -2.16602 1.5 -2.49902s0.833008 -0.5 1.5 -0.5h1h2c1.33301 -0.666992 2.83301 -1.16699 4.5 -1.5s3.5 -0.5 5.5 -0.5c2 -0.666992 4.16699 -1 6.5 -1h7.5h1.5h1.5h2h2c14 1.33301 27.667 4.66602 41 9.99902
s26.333 13.333 39 24c12 10.667 22 24.167 30 40.5s13.333 35.5 16 57.5l87 -8c-4.66699 -25.333 -11.167 -47.833 -19.5 -67.5s-18.5 -36.167 -30.5 -49.5s-24.5 -24.833 -37.5 -34.5s-26.167 -17.5 -39.5 -23.5l-25 -7.5c-8 -2.33301 -16 -4.16602 -24 -5.49902
s-15.667 -2.5 -23 -3.5s-14 -1.5 -20 -1.5s-11.333 0.166992 -16 0.5s-9 0.833008 -13 1.5s-7.66699 1.33398 -11 2.00098l-10 2l-57 -193l-55 16l56 194c-18.667 8 -35.667 19.333 -51 34s-29 32.334 -41 53.001c-12 21.333 -20.833 45 -26.5 71s-8.5 54.667 -8.5 86
c0 37.333 3.16699 70 9.5 98s15.833 51.333 28.5 70c13.333 19.333 27 35.666 41 48.999s29 24 45 32c10 5.33301 20 9.66602 30 12.999s19.667 6 29 8l25.5 3.5c7.66699 1 14.5 1.5 20.5 1.5h2.5h3.5c1.33301 -0.666992 2.66602 -1 3.99902 -1h5
c3.33301 0 7.83301 -0.166992 13.5 -0.5s12.5 -1.16602 20.5 -2.49902l56 191l53 -16l-54 -189c10 -5.33301 19.167 -10.666 27.5 -15.999s15.833 -11 22.5 -17c3.33301 -2.66699 6.5 -5.66699 9.5 -9s5.83301 -6.33301 8.5 -9l7.5 -9.5c2.33301 -3 4.5 -6.16699 6.5 -9.5
c4.66699 -7.33301 8.5 -14.5 11.5 -21.5s5.5 -14.167 7.5 -21.5l5.5 -19c1.66699 -6 2.83398 -11 3.50098 -15l-86 -11c-0.666992 2.66699 -1.66699 5.83398 -3 9.50098s-2.66602 7.83398 -3.99902 12.501c-1.33301 5.33301 -3.16602 10.5 -5.49902 15.5
s-5.16602 10.167 -8.49902 15.5c-1.33301 2 -3 4.16699 -5 6.5s-4 4.83301 -6 7.5l-6.5 6.5l-7.5 7.5v2v0zM204.997 85.9951l109.003 373.002c-0.666992 -1.33301 -1.5 -2 -2.5 -2h-3.5h-1.5c-0.333008 0 -0.5 0.333008 -0.5 1h-1.5h-0.5h-1.5h-0.5h-1.5h-1.5h-1.5h-0.5
h-1.5h-1.5c-22.667 0 -42.5 -3.16699 -59.5 -9.5s-30.5 -16.166 -40.5 -29.499c-10.667 -12.667 -19.334 -26 -26.001 -40s-11.667 -28.667 -15 -44c-2 -6.66699 -3.5 -13.334 -4.5 -20.001s-1.83301 -13.334 -2.5 -20.001s-1 -13 -1 -19v-17
c0 -4.66699 0.166992 -10.167 0.5 -16.5s0.833008 -13.5 1.5 -21.5s1.66699 -16.667 3 -26s3.33301 -19.333 6 -30c0 -2 0.333008 -4 1 -6l2 -6c0 -0.666992 0.166992 -1.5 0.5 -2.5s0.833008 -1.83301 1.5 -2.5c0 -1.33301 0.166992 -2.33301 0.5 -3l1.5 -3
c2 -5.33301 4.33301 -10.5 7 -15.5s5.66699 -10.167 9 -15.5c3.33301 -4.66699 7.16602 -9.33398 11.499 -14.001s9.16602 -9 14.499 -13v2v0z" />
    <glyph glyph-name="sterling" unicode="&#xa3;" horiz-adv-x="556" 
d="M196 395h153.001v-72h-133c0 -3.33301 0.166992 -6.16602 0.5 -8.49902s0.833008 -4.5 1.5 -6.5c0 -0.666992 0.166992 -1.66699 0.5 -3s0.5 -2.33301 0.5 -3c0.666992 -1.33301 1 -2.5 1 -3.5v-3.5v-2.5c0 -1 0.333008 -1.83301 1 -2.5v-2v-2v-4v-4
c0 -18 -2.16699 -35.333 -6.5 -52s-10.833 -32.667 -19.5 -48c-8.66699 -16 -18.167 -31 -28.5 -45s-21.5 -27.333 -33.5 -40h2c0 -0.666992 0.333008 -1 1 -1h2h0.5c0.333008 0 0.833008 0.333008 1.5 1h0.5h0.5c3.33301 1.33301 7.33301 2.5 12 3.5
s9.33398 1.83301 14.001 2.5c5.33301 1.33301 11 2.16602 17 2.49902s12.333 0.5 19 0.5c4.66699 0 10 -0.166992 16 -0.5s13 -0.833008 21 -1.5s16.5 -1.83398 25.5 -3.50098s18.833 -3.83398 29.5 -6.50098c1.33301 -0.666992 3.33301 -1.16699 6 -1.5
s6 -1.16602 10 -2.49902c3.33301 -0.666992 7.16602 -1.5 11.499 -2.5s8.83301 -2.16699 13.5 -3.5c1.33301 -0.666992 2.83301 -1.16699 4.5 -1.5s3.5 -0.5 5.5 -0.5c1.33301 0 2.33301 -0.166992 3 -0.5s1.66699 -0.5 3 -0.5c0.666992 -0.666992 1.5 -1 2.5 -1h2.5
c5.33301 -0.666992 10.166 -1.33398 14.499 -2.00098l13.5 -2c4.66699 -0.666992 9 -1.16699 13 -1.5s7.33301 -0.5 10 -0.5h4.5h4.5c1.33301 0 2.83301 0.166992 4.5 0.5s3.5 0.833008 5.5 1.5c2 0 4 0.166992 6 0.5s4.33301 0.5 7 0.5l6 2l6 2l6 2l6 2
c1.33301 0.666992 3 1.33398 5 2.00098l6 2l4 2l4 2c0.666992 0 1.66699 0.333008 3 1l4 2c1.33301 0.666992 2.5 1.16699 3.5 1.5s1.83301 0.833008 2.5 1.5c1.33301 0 2.5 0.166992 3.5 0.5s1.83301 0.833008 2.5 1.5l29 -79c-4.66699 -3.33301 -9.5 -6 -14.5 -8
s-9.83301 -3.66699 -14.5 -5c-4.66699 -2 -9.16699 -3.5 -13.5 -4.5s-8.83301 -1.83301 -13.5 -2.5l-8 -2c-2.66699 -0.666992 -5 -1.33398 -7 -2.00098c-2.66699 -0.666992 -5.33398 -1.16699 -8.00098 -1.5s-5.33398 -0.833008 -8.00098 -1.5
c-4.66699 -1.33301 -9.83398 -2.16602 -15.501 -2.49902s-11.167 -0.5 -16.5 -0.5c-6.66699 0 -13.334 0.166992 -20.001 0.5s-12.667 1.16602 -18 2.49902c-2.66699 0.666992 -5.5 1.33398 -8.5 2.00098s-5.5 1 -7.5 1c-2.66699 0.666992 -5.16699 1.33398 -7.5 2.00098
s-4.5 1.33398 -6.5 2.00098l-73 22c-2.66699 0 -5.5 0.333008 -8.5 1s-5.83301 1.33398 -8.5 2.00098c-3.33301 0 -6.33301 0.333008 -9 1s-5.66699 1.33398 -9 2.00098c-6 1.33301 -12.167 2.33301 -18.5 3s-13.166 1 -20.499 1c-4.66699 0 -9.16699 -0.166992 -13.5 -0.5
s-8.83301 -0.833008 -13.5 -1.5s-9.16699 -1.16699 -13.5 -1.5s-8.5 -1.16602 -12.5 -2.49902c-8.66699 -2 -17.167 -4.33301 -25.5 -7s-16.5 -5.66699 -24.5 -9c-8 -2.66699 -15.667 -5.83398 -23 -9.50098s-14.666 -7.83398 -21.999 -12.501l-34 85
c2.66699 0.666992 5.83398 2 9.50098 4s7.83398 4.66699 12.501 8c5.33301 3.33301 10.5 7.16602 15.5 11.499s9.83301 9.16602 14.5 14.499c7.33301 7.33301 14.5 16 21.5 26s13.5 21.333 19.5 34s10.667 26.5 14 41.5s5 31.5 5 49.5
c0 7.33301 -0.166992 13.666 -0.5 18.999s-0.833008 10.333 -1.5 15c-0.666992 2 -1.16699 4 -1.5 6s-0.5 4 -0.5 6c-0.666992 2 -1.16699 4 -1.5 6s-0.833008 4 -1.5 6v0v1h-1v0v0.5v1.5l-95 2v72h75c-4 11.333 -7.5 22.333 -10.5 33s-5.5 20.334 -7.5 29.001
c-2 9.33301 -3.5 18 -4.5 26s-1.83301 16 -2.5 24v2v2v1v2v4v4c0 33.333 5.5 62.666 16.5 87.999s27.5 46.333 49.5 63s45 29.5 69 38.5s49.333 13.833 76 14.5h1.5h1.5h0.5h1.5h3.5h2.5c20.667 0 40.667 -2.5 60 -7.5s38 -12.167 56 -21.5s33.667 -21.166 47 -35.499
s24.333 -31.166 33 -50.499c3.33301 -7.33301 6.16602 -14.333 8.49902 -21s4.16602 -13 5.49902 -19s2.5 -11.5 3.5 -16.5s1.83301 -9.5 2.5 -13.5l-88 -11c-2.66699 19.333 -7.66699 36.833 -15 52.5s-17.333 28.834 -30 39.501s-26.167 18.667 -40.5 24
s-29.166 8 -44.499 8c-18.667 0 -35.667 -3 -51 -9s-28.666 -15 -39.999 -27c-10.667 -12 -19 -24.5 -25 -37.5s-9.33301 -26.5 -10 -40.5v-2v-2v-1.5v-0.5v-5.5v-4.5v-5.5c0 -1.66699 0.333008 -3.16699 1 -4.5c0.666992 -9.33301 1.66699 -18.666 3 -27.999
s3 -18.666 5 -27.999c2 -8.66699 4.16699 -17.334 6.5 -26.001s4.83301 -17 7.5 -25c0 -0.666992 0.166992 -1.33398 0.5 -2.00098s0.833008 -1 1.5 -1c0 -0.666992 0.166992 -1.33398 0.5 -2.00098s0.5 -1.33398 0.5 -2.00098c0 -1.33301 0.166992 -2.5 0.5 -3.5
s0.833008 -2.16699 1.5 -3.5v2v0z" />
    <glyph glyph-name="currency" unicode="&#xa4;" horiz-adv-x="556" 
d="M106 469l-68 66.9941l56 58l68 -68c4.66699 2 9.33398 4.16699 14.001 6.5s9.33398 4.83301 14.001 7.5l15.5 6c5 2 9.83301 3.66699 14.5 5c2.66699 0.666992 5.16699 1.16699 7.5 1.5s4.83301 0.833008 7.5 1.5c2 0.666992 4.16699 1.16699 6.5 1.5
s4.83301 0.833008 7.5 1.5c2.66699 0 5.16699 0.166992 7.5 0.5s4.83301 0.5 7.5 0.5c2 0.666992 4.16699 1 6.5 1h7.5c4.66699 0 9.33398 -0.166992 14.001 -0.5s9.33398 -0.833008 14.001 -1.5c5.33301 -0.666992 10.5 -1.5 15.5 -2.5s9.83301 -2.16699 14.5 -3.5
c2.66699 -0.666992 5.16699 -1.5 7.5 -2.5s4.83301 -1.83301 7.5 -2.5c2 -1.33301 4.16699 -2.33301 6.5 -3s4.83301 -1.66699 7.5 -3s5.16699 -2.66602 7.5 -3.99902s4.83301 -2.66602 7.5 -3.99902c2 -1.33301 4.16699 -2.66602 6.5 -3.99902
s4.83301 -2.66602 7.5 -3.99902l68 70l56 -58l-68 -67c7.33301 -12.667 13.5 -24.5 18.5 -35.5s8.5 -21.5 10.5 -31.5s3.5 -19.167 4.5 -27.5s1.5 -15.833 1.5 -22.5s-0.5 -14.167 -1.5 -22.5s-2.5 -17.5 -4.5 -27.5s-5.5 -20.5 -10.5 -31.5s-11.167 -22.167 -18.5 -33.5
l68 -64l-56 -58l-68 68c-2.66699 -2.66699 -5.16699 -4.66699 -7.5 -6s-4.5 -3 -6.5 -5c-2.66699 -1.33301 -5.16699 -2.5 -7.5 -3.5s-4.83301 -2.16699 -7.5 -3.5s-5.16699 -2.5 -7.5 -3.5s-4.5 -2.16699 -6.5 -3.5c-2.66699 -0.666992 -5.16699 -1.33398 -7.5 -2.00098
s-4.83301 -1.33398 -7.5 -2.00098c-4.66699 -1.33301 -9.5 -2.5 -14.5 -3.5s-10.167 -1.83301 -15.5 -2.5c-4.66699 -0.666992 -9.33398 -1.16699 -14.001 -1.5s-9.33398 -0.5 -14.001 -0.5h-7.5h-6.5c-2.66699 0 -5.16699 0.166992 -7.5 0.5s-4.83301 0.833008 -7.5 1.5
c-2.66699 0 -5.16699 0.333008 -7.5 1s-4.5 1 -6.5 1c-2.66699 0.666992 -5.16699 1.33398 -7.5 2.00098s-4.83301 1.33398 -7.5 2.00098c-4.66699 1.33301 -9.5 2.83301 -14.5 4.5s-10.167 3.83398 -15.5 6.50098c-4.66699 2 -9.33398 4.5 -14.001 7.5
s-9.33398 5.83301 -14.001 8.5l-68 -66l-56 58l68 66c-7.33301 10.667 -13.5 21.334 -18.5 32.001s-8.5 21 -10.5 31s-3.5 19.167 -4.5 27.5s-1.5 15.833 -1.5 22.5s0.5 14.167 1.5 22.5s2.5 17.5 4.5 27.5s5.5 20.5 10.5 31.5s11.167 22.167 18.5 33.5v2v0zM278 480.994
c-17.333 -1.33301 -33.501 -5.16699 -48.501 -11.5s-28.833 -15.5 -41.5 -27.5s-22 -25.5 -28 -40.5s-9 -31.167 -9 -48.5s3 -33.5 9 -48.5s15.333 -28.833 28 -41.5s26.5 -22 41.5 -28s31.167 -9 48.5 -9s33.5 3 48.5 9s28.833 15.333 41.5 28
c12 12.667 21.167 26.5 27.5 41.5s9.5 31.167 9.5 48.5c0 18 -3.16699 34.5 -9.5 49.5s-16.166 28.5 -29.499 40.5c-12.667 12 -26.5 21 -41.5 27s-30.5 9 -46.5 9v2v0z" />
    <glyph glyph-name="yen" unicode="&#xa5;" horiz-adv-x="556" 
d="M235 0l-0.000976562 164.999h-203v68h203v88h-203v68h156l-187 327h98l141 -252c3.33301 -7.33301 6.83301 -14.166 10.5 -20.499s6.83398 -12.5 9.50098 -18.5c3.33301 -6 6.33301 -12.167 9 -18.5l8 -19.5c0.666992 1.33301 1.16699 2.5 1.5 3.5
s0.833008 1.83301 1.5 2.5c0 1.33301 0.166992 2.5 0.5 3.5s0.833008 1.83301 1.5 2.5l1.5 3l1.5 3c0.666992 0.666992 1.16699 1.5 1.5 2.5s0.833008 1.83301 1.5 2.5l6 12.5c2 4.33301 4.33301 8.83301 7 13.5c2 4 4.5 8.5 7.5 13.5s5.83301 10.5 8.5 16.5l134 250h104
l-186 -327h155v-68h-201v-88h201v-68h-201v-165h-88v0v0z" />
    <glyph glyph-name="brokenbar" unicode="&#xa6;" 
 />
    <glyph glyph-name="section" unicode="&#xa7;" horiz-adv-x="556" 
d="M72 -34l88.002 11.998c0.666992 -3.33301 1.5 -6.66602 2.5 -9.99902s1.83301 -7 2.5 -11c1.33301 -4 2.5 -8 3.5 -12s2.5 -8 4.5 -12c3.33301 -8.66699 8 -17 14 -25s13.333 -15.333 22 -22c8 -7.33301 18.5 -12.833 31.5 -16.5s27.833 -5.5 44.5 -5.5
c14 0 26.5 1.5 37.5 4.5s20.5 7.16699 28.5 12.5c7.33301 5.33301 13.833 11 19.5 17s9.83398 12.333 12.501 19c1.33301 2.66699 2.5 5.5 3.5 8.5s1.83301 5.83301 2.5 8.5s1.16699 5.33398 1.5 8.00098s0.5 5 0.5 7c0 4.66699 -0.666992 9.83398 -2 15.501
s-3.33301 11.167 -6 16.5s-6.66699 10.833 -12 16.5s-12.666 11.834 -21.999 18.501l-21 16l-28 20l-39 26l-53 34c-2 1.33301 -3.83301 2.5 -5.5 3.5s-3.16699 1.83301 -4.5 2.5c-2 1.33301 -3.83301 2.5 -5.5 3.5s-3.16699 1.83301 -4.5 2.5
c-18.667 11.333 -36.334 23.333 -53.001 36s-32.667 26.334 -48 41.001c-14.667 14.667 -25.834 31.167 -33.501 49.5s-11.5 38.833 -11.5 61.5v4v4v4c0 1.33301 0.333008 2.66602 1 3.99902c1.33301 13.333 4.66602 26 9.99902 38s12.333 23.667 21 35
c9.33301 11.333 20.5 21.166 33.5 29.499s27.833 15.166 44.5 20.499c-1.33301 1.33301 -2.83301 2.66602 -4.5 3.99902s-3.16699 2.66602 -4.5 3.99902l-4 4l-4 4c-6 6 -11.667 12.5 -17 19.5s-10.666 14.833 -15.999 23.5c-4.66699 8.66699 -8.33398 18.167 -11.001 28.5
s-4 21.5 -4 33.5c0 3.33301 0.166992 6.83301 0.5 10.5s0.833008 7.5 1.5 11.5s1.5 8 2.5 12s2.16699 8 3.5 12c4.66699 13.333 11.667 26.166 21 38.499s21 24.166 35 35.499s30.667 19.833 50 25.5s41.333 8.5 66 8.5c5.33301 0 11.333 -0.166992 18 -0.5
s13.667 -1.16602 21 -2.49902c7.33301 -0.666992 14.666 -1.83398 21.999 -3.50098l23 -5.5c10 -3.33301 19.833 -7.5 29.5 -12.5s19.167 -11.167 28.5 -18.5c9.33301 -6.66699 17.666 -15 24.999 -25s14 -21.667 20 -35c3.33301 -6.66699 6 -13.334 8 -20.001
s3.33301 -12.667 4 -18c1.33301 -5.33301 2.33301 -10.333 3 -15s1.33398 -9 2.00098 -13l-91 -8c-0.666992 2 -1.33398 4.5 -2.00098 7.5s-1.33398 6.16699 -2.00098 9.5s-1.5 6.83301 -2.5 10.5s-2.16699 7.5 -3.5 11.5c-2.66699 8 -6.5 15.833 -11.5 23.5
s-11.167 14.834 -18.5 21.501c-6.66699 7.33301 -15.334 12.666 -26.001 15.999s-23.667 5 -39 5s-29 -2.16699 -41 -6.5s-22.667 -10.5 -32 -18.5c-8.66699 -8 -15.334 -16.5 -20.001 -25.5s-7 -18.167 -7 -27.5v-4.5v-4.5c0 -1.33301 0.166992 -2.66602 0.5 -3.99902
s0.833008 -2.66602 1.5 -3.99902c1.33301 -4.66699 3 -9.16699 5 -13.5s4.33301 -8.5 7 -12.5c3.33301 -4.66699 7.33301 -9.16699 12 -13.5s10.334 -9.16602 17.001 -14.499l2 -2l2 -2c0.666992 0 1.16699 -0.166992 1.5 -0.5s0.833008 -0.5 1.5 -0.5
c0 -0.666992 0.166992 -1.16699 0.5 -1.5s0.833008 -0.5 1.5 -0.5c6.66699 -4.66699 13.667 -9.83398 21 -15.501s15.333 -11.5 24 -17.5s18.834 -12.5 30.501 -19.5l39.5 -23.5c3.33301 -2 6.33301 -4 9 -6s5.66699 -3.66699 9 -5c2.66699 -2 5.5 -3.83301 8.5 -5.5
s5.83301 -3.5 8.5 -5.5l17.5 -10c5.66699 -3.33301 10.834 -6.66602 15.501 -9.99902c15.333 -10.667 29.333 -21.667 42 -33s23.667 -22.666 33 -33.999c9.33301 -12 16.333 -25.333 21 -40s7 -30.667 7 -48c0 -16.667 -2 -31.5 -6 -44.5s-9.66699 -24.167 -17 -33.5
s-15 -17.5 -23 -24.5s-16.333 -13.167 -25 -18.5l-11.5 -6c-3.66699 -2 -7.16699 -3.66699 -10.5 -5s-6.5 -2.66602 -9.5 -3.99902s-6.16699 -2.66602 -9.5 -3.99902c2 -1.33301 4.33301 -3 7 -5s5.66699 -4.66699 9 -8c3.33301 -2.66699 6.66602 -5.83398 9.99902 -9.50098
l10 -11.5c5.33301 -6 10.333 -12.5 15 -19.5s9.33398 -14.833 14.001 -23.5c4 -7.33301 7.16699 -16 9.5 -26s3.5 -20.667 3.5 -32c0 -22.667 -4.5 -43.5 -13.5 -62.5s-22.167 -36.167 -39.5 -51.5c-18 -15.333 -38.667 -26.833 -62 -34.5s-49.666 -11.5 -78.999 -11.5
c-26.667 0 -51.667 3.5 -75 10.5s-45 17.167 -65 30.5c-20.667 13.333 -37 31.333 -49 54s-20 49.667 -24 81v0v0zM357.002 118.998c6.66699 2.66699 12.8262 5.6709 18.4932 9.00391s10.834 7 15.501 11s8.83398 8 12.501 12s6.83398 8 9.50098 12l4 6l4 6
c0.666992 1.33301 1.33398 3 2.00098 5l2 6c1.33301 4 2.33301 7.83301 3 11.5s1 7.16699 1 10.5c0 8 -1.16699 15.833 -3.5 23.5s-6.16602 14.834 -11.499 21.501c-4.66699 7.33301 -10.5 14.5 -17.5 21.5s-14.833 13.833 -23.5 20.5l-17 12.5l-19 13.5l-21 14l-22 14
l-30.5 19l-26.5 17c-8 5.33301 -15.5 10.833 -22.5 16.5l-19.5 15.5c-0.666992 -0.666992 -1.66699 -1.33398 -3 -2.00098s-2.33301 -1.33398 -3 -2.00098c-1.33301 -0.666992 -2.5 -1.33398 -3.5 -2.00098s-2.16699 -1.33398 -3.5 -2.00098
c-2.66699 -1.33301 -5.16699 -2.83301 -7.5 -4.5s-4.83301 -3.16699 -7.5 -4.5c-6 -4 -11.5 -8.66699 -16.5 -14l-15.5 -17c-4.66699 -6.66699 -8.16699 -13.834 -10.5 -21.501s-3.5 -16.167 -3.5 -25.5c0 -8 0.833008 -15.5 2.5 -22.5s4.5 -13.5 8.5 -19.5
c3.33301 -6 7.83301 -12 13.5 -18s11.834 -12 18.501 -18l16.5 -14c5.66699 -4.66699 11.834 -9 18.501 -13l22 -13.5l24 -14.5l42.5 -25.5l30.5 -19.5l22 -15l17 -12v2v0z" />
    <glyph glyph-name="dieresis" unicode="&#xa8;" horiz-adv-x="333" 
d="M31 611v100h90v-100h-90v0v0zM212 611v100h90v-100h-90v0v0z" />
    <glyph glyph-name="copyright" unicode="&#xa9;" horiz-adv-x="737" 
d="M369 728c50.667 -1.33301 97.668 -11 141.001 -29s83 -45 119 -81s63 -75.5 81 -118.5s27 -90.167 27 -141.5c0 -50.667 -9 -97.667 -27 -141s-45 -83 -81 -119s-75.5 -62.833 -118.5 -80.5s-90.167 -26.5 -141.5 -26.5c-50.667 0 -97.834 8.66699 -141.501 26
s-83.5 44 -119.5 80s-63 75.833 -81 119.5s-27 90.834 -27 141.501c0 51.333 9 98.666 27 141.999s45.333 83 82 119c36 35.333 75.667 62 119 80s90.333 27 141 27v2v0zM368.001 667c-42.667 -1.33301 -82 -9.5 -118 -24.5s-69 -37.5 -99 -67.5s-52.5 -63 -67.5 -99
s-22.5 -75.333 -22.5 -118s7.5 -82.167 22.5 -118.5s37.5 -69.5 67.5 -99.5s63 -52.5 99 -67.5s75.333 -22.5 118 -22.5s82.167 7.5 118.5 22.5s69.5 37.5 99.5 67.5s52.5 63.167 67.5 99.5s22.5 75.833 22.5 118.5s-7.5 82 -22.5 118s-37.5 69 -67.5 99
s-63.167 52.5 -99.5 67.5s-75.833 22.5 -118.5 22.5v2v0zM487.001 300l60 -17.9971c-5.33301 -23.333 -13.5 -43.5 -24.5 -60.5s-24.833 -31.167 -41.5 -42.5c-16.667 -10.667 -33.834 -18.834 -51.501 -24.501s-36.167 -8.5 -55.5 -8.5h-1.5h-0.5h-1.5h-0.5
c-28.667 0 -54.667 4.5 -78 13.5s-44 22.833 -62 41.5s-31.5 41 -40.5 67s-13.5 55.667 -13.5 89c0 31.333 4.33301 59.666 13 84.999s21.667 47.333 39 66s38.166 32.667 62.499 42s51.833 14 82.5 14c19.333 0 37.5 -2.33301 54.5 -7s33.167 -11.667 48.5 -21
c15.333 -8.66699 28.333 -20.334 39 -35.001s19 -32 25 -52l-58 -12c-2.66699 6.66699 -6 13.167 -10 19.5s-8.33301 11.833 -13 16.5c-4.66699 5.33301 -9.16699 9.83301 -13.5 13.5s-9.16602 6.83398 -14.499 9.50098c-6.66699 3.33301 -13 6 -19 8s-11.667 3.33301 -17 4
c-6 0.666992 -11 1.16699 -15 1.5s-7 0.5 -9 0.5c-21.333 0 -39.833 -3.5 -55.5 -10.5s-28.167 -17.5 -37.5 -31.5c-10 -14 -17.833 -28.5 -23.5 -43.5s-9.16699 -30.833 -10.5 -47.5v-2.5v-3.5c-0.666992 -0.666992 -1 -1.5 -1 -2.5v-3.5v-5.5v-4.5c0 -26 3 -48.667 9 -68
s15 -35 27 -47s25.333 -21 40 -27s30.334 -9 47.001 -9c3.33301 0 7 0.166992 11 0.5s8.66699 0.833008 14 1.5c5.33301 1.33301 10.833 3 16.5 5s11.5 4.33301 17.5 7c6 3.33301 12 7.16602 18 11.499s12 9.83301 18 16.5c6 6 11.167 13.5 15.5 22.5
s7.83301 18.833 10.5 29.5v2v0z" />
    <glyph glyph-name="ordfeminine" unicode="&#xaa;" horiz-adv-x="370" 
d="M101 610l-67.0029 16.9932c0 1.33301 0.333008 3.5 1 6.5s1.33398 5.83301 2.00098 8.5c1.33301 3.33301 2.5 6.5 3.5 9.5s2.5 5.83301 4.5 8.5c4 8 9.66699 15.833 17 23.5s16.333 14.834 27 21.501c10.667 7.33301 23.834 12.666 39.501 15.999s33.834 5 54.501 5h4.5
h5.5h4.5h5.5c15.333 -0.666992 30.333 -3.16699 45 -7.5s28.334 -10.166 41.001 -17.499c13.333 -7.33301 23.333 -18.833 30 -34.5s10 -35.167 10 -58.5v-116c0 -14.667 0.166992 -28 0.5 -40s0.833008 -23 1.5 -33c1.33301 -10.667 3.33301 -20 6 -28
s6.33398 -14.667 11.001 -20l-72 2c-0.666992 -0.666992 -1.16699 -0.666992 -1.5 0s-0.5 1.33398 -0.5 2.00098c-0.666992 0.666992 -1 1.33398 -1 2.00098v2c-0.666992 2 -1.5 4.33301 -2.5 7s-1.83301 5.33398 -2.5 8.00098c-0.666992 3.33301 -1.16699 6.5 -1.5 9.5
s-0.5 6.5 -0.5 10.5l-1.5 -1.5l-1.5 -1.5c-0.666992 -0.666992 -1.33398 -1.16699 -2.00098 -1.5l-1 -0.5c-7.33301 -6 -15.5 -11.667 -24.5 -17s-18.5 -10.666 -28.5 -15.999c-10 -4.66699 -20.5 -8.16699 -31.5 -10.5s-22.5 -3.5 -34.5 -3.5h-9.5
c-3.66699 0 -7.16699 0.333008 -10.5 1c-4 0.666992 -7.83301 1.5 -11.5 2.5s-7.16699 1.83301 -10.5 2.5c-10 2.66699 -19.5 6.5 -28.5 11.5s-17.5 11.5 -25.5 19.5s-14 17.833 -18 29.5s-6 25.167 -6 40.5c0 16.667 2.33301 30.834 7 42.501s11.667 20.834 21 27.501
c9.33301 7.33301 19.166 13.333 29.499 18s20.833 8.33398 31.5 11.001c2 0.666992 4 1.16699 6 1.5s4 0.5 6 0.5c1.33301 0.666992 3 1.16699 5 1.5s4 0.5 6 0.5l11.5 2l10.5 2h3.5c1 0 1.83301 0.333008 2.5 1h3.5h2.5c2 0 4 0.166992 6 0.5s4 0.833008 6 1.5
c2 0 4 0.166992 6 0.5s4 0.833008 6 1.5h3.5c1 0 2.16699 0.333008 3.5 1c0.666992 0 1.66699 0.166992 3 0.5s2.33301 0.5 3 0.5l12.5 2l13.5 2c4.66699 1.33301 9.5 2.5 14.5 3.5s9.83301 2.16699 14.5 3.5v4v4v2v3c-0.666992 0.666992 -1 1.5 -1 2.5v2.5
c-0.666992 7.33301 -2.16699 14.166 -4.5 20.499s-5.83301 12.5 -10.5 18.5s-12.167 10.5 -22.5 13.5s-23.166 4.5 -38.499 4.5h-4.5h-4.5h-2.5h-2.5c-0.666992 -0.666992 -1.33398 -1 -2.00098 -1h-2c-6.66699 -0.666992 -13.5 -2.33398 -20.5 -5.00098s-13.5 -6 -19.5 -10
s-11 -9.66699 -15 -17s-6.66699 -16.666 -8 -27.999v2v0zM257.997 538.993c-1.33301 -1.33301 -2.83594 -2.33203 -4.50293 -2.99902s-3.5 -1.33398 -5.5 -2.00098c-0.666992 0 -1.5 -0.166992 -2.5 -0.5s-1.83301 -0.5 -2.5 -0.5c-1.33301 -0.666992 -2.33301 -1 -3 -1h-3
c-4 -0.666992 -8.16699 -1.5 -12.5 -2.5l-14.5 -3.5l-14.5 -2l-15.5 -2c-1.33301 -0.666992 -2.66602 -1.16699 -3.99902 -1.5s-2.66602 -0.5 -3.99902 -0.5h-2.5h-3.5c-12.667 -2 -23.667 -4.33301 -33 -7s-16.666 -5.66699 -21.999 -9c-6 -2.66699 -10.333 -7 -13 -13
s-4 -13.667 -4 -23c0 -8 1.5 -14.833 4.5 -20.5s7.83301 -10.5 14.5 -14.5c6 -4 12.667 -7 20 -9s15.333 -3 24 -3h0.5h1.5h0.5h1.5c10 0 19.667 1.5 29 4.5s18.333 7.5 27 13.5c9.33301 5.33301 17 11.833 23 19.5s10.667 16.5 14 26.5v0.5v1.5l0.5 0.5l1.5 1.5v3.5
c0 1 0.333008 2.16699 1 3.5v4v4v5.5c0 2.33301 0.333008 4.83301 1 7.5v9v11v2v0z" />
    <glyph glyph-name="guillemotleft" unicode="&#xab;" horiz-adv-x="556" 
d="M169 258l127 -223h-72l-155 223l155 223h72l-127 -223v0v0zM360 258l127 -223h-72l-155 223l155 223h72l-127 -223v0v0z" />
    <glyph glyph-name="logicalnot" unicode="&#xac;" 
 />
    <glyph glyph-name="sfthyphen" unicode="&#xad;" horiz-adv-x="500" 
 />
    <glyph glyph-name="registered" unicode="&#xae;" horiz-adv-x="737" 
d="M369 728c50.667 -1.33301 97.668 -11 141.001 -29s83 -45 119 -81s63 -75.5 81 -118.5s27 -90.167 27 -141.5c0 -50.667 -9 -97.667 -27 -141s-45 -83 -81 -119s-75.5 -62.833 -118.5 -80.5s-90.167 -26.5 -141.5 -26.5c-50.667 0 -97.834 8.66699 -141.501 26
s-83.5 44 -119.5 80s-63 75.833 -81 119.5s-27 90.834 -27 141.501c0 51.333 9 98.666 27 141.999s45.333 83 82 119c36 35.333 75.667 62 119 80s90.333 27 141 27v2v0zM368.001 667c-42.667 -1.33301 -82 -9.5 -118 -24.5s-69 -37.5 -99 -67.5s-52.5 -63 -67.5 -99
s-22.5 -75.333 -22.5 -118s7.5 -82.167 22.5 -118.5s37.5 -69.5 67.5 -99.5s63 -52.5 99 -67.5s75.333 -22.5 118 -22.5s82.167 7.5 118.5 22.5s69.5 37.5 99.5 67.5s52.5 63.167 67.5 99.5s22.5 75.833 22.5 118.5s-7.5 82 -22.5 118s-37.5 69 -67.5 99
s-63.167 52.5 -99.5 67.5s-75.833 22.5 -118.5 22.5v2v0zM207.001 156l0.00195312 395.997h137c2.66699 -1.33301 5.33398 -2 8.00098 -2h8h9.5h8.5c9.33301 -0.666992 18.166 -1.5 26.499 -2.5s16.833 -2.5 25.5 -4.5s16.667 -4.66699 24 -8s14.333 -7.66602 21 -12.999
c5.33301 -4.66699 10.333 -9.83398 15 -15.501s8.66699 -12.167 12 -19.5c3.33301 -6.66699 6 -13.667 8 -21s3 -15 3 -23v-4c0 -1.33301 -0.333008 -2.66602 -1 -3.99902c0 -2 -0.166992 -3.66699 -0.5 -5s-0.5 -2.66602 -0.5 -3.99902s-0.166992 -2.66602 -0.5 -3.99902
s-0.833008 -2.66602 -1.5 -3.99902c0 -2 -0.166992 -3.66699 -0.5 -5s-0.833008 -2.66602 -1.5 -3.99902c-2.66699 -8.66699 -7 -17.334 -13 -26.001s-13.333 -17 -22 -25s-19 -14 -31 -18s-25.667 -6.66699 -41 -8v0l1.5 -3c0.333008 -0.666992 0.833008 -1 1.5 -1h1.5h1.5
c5.33301 -2.66699 10.833 -6 16.5 -10s11.5 -9 17.5 -15s13.5 -15 22.5 -27s18.833 -27 29.5 -45l48 -75h-78l-35 62l-16.5 26.5l-13.5 22.5l-13 18c-4 5.33301 -8 10 -12 14l-7.5 5.5c-2.33301 1.66699 -4.5 3.5 -6.5 5.5c-2.66699 1.33301 -5.16699 2.66602 -7.5 3.99902
s-4.83301 2.33301 -7.5 3c-4.66699 1.33301 -9.83398 2.5 -15.501 3.5s-11.834 1.5 -18.501 1.5l-38 2v-168h-64v0v0zM271.003 497.997v-119h78c2.66699 -1.33301 5.5 -2 8.5 -2h9.5c3.33301 0 7 0.333008 11 1l12 2c6.66699 1.33301 13 3.16602 19 5.49902s12 5.5 18 9.5
s10.5 9.5 13.5 16.5s4.5 15.5 4.5 25.5c0 10.667 -1.66699 19.5 -5 26.5s-8.66602 12.5 -15.999 16.5c-6.66699 4 -13.834 7.33301 -21.501 10s-15.5 4.33398 -23.5 5.00098h-4.5c-1.66699 0 -3.16699 0.333008 -4.5 1h-4.5h-4.5h-8.5h-8.5l-73 2v0v0z" />
    <glyph glyph-name="overstore" unicode="&#xaf;" 
 />
    <glyph glyph-name="degree" unicode="&#xb0;" 
 />
    <glyph glyph-name="plusminus" unicode="&#xb1;" horiz-adv-x="584" 
d="M529 0h-474v82h474v-82v0v0zM251 137v196h-196v82h196v196h82v-196h196v-82h-196v-196h-82v0v0z" />
    <glyph glyph-name="twosuperior" unicode="&#xb2;" 
 />
    <glyph glyph-name="threesuperior" unicode="&#xb3;" 
 />
    <glyph glyph-name="acute" unicode="&#xb4;" horiz-adv-x="333" 
d="M111 591l65 137h115l-108 -137h-72v0v0z" />
    <glyph glyph-name="mu" unicode="&#xb5;" horiz-adv-x="556" 
d="M488 518l0.000976562 -517.997h-78v61h-2c-1.33301 -3.33301 -2.83301 -6.16602 -4.5 -8.49902l-4.5 -6.5c-1.33301 -2.66699 -2.83301 -5.16699 -4.5 -7.5s-3.5 -4.5 -5.5 -6.5c-4.66699 -6 -10.334 -11.5 -17.001 -16.5s-14.334 -9.83301 -23.001 -14.5
c-8.66699 -4 -18.667 -7.16699 -30 -9.5s-24.333 -3.5 -39 -3.5s-28 1.16699 -40 3.5s-22 5.5 -30 9.5c-8.66699 5.33301 -16.167 10.666 -22.5 15.999s-12.166 11 -17.499 17c-0.666992 1.33301 -1.5 2.66602 -2.5 3.99902s-2.16699 2.66602 -3.5 3.99902
c-0.666992 1.33301 -1.5 2.66602 -2.5 3.99902s-2.16699 2.66602 -3.5 3.99902l-2 2v-251h-89v717h88v-219c0 -19.333 0.166992 -37.333 0.5 -54s0.833008 -32 1.5 -46c1.33301 -14 3.16602 -26.667 5.49902 -38s5.83301 -21.333 10.5 -30
c4.66699 -9.33301 10.334 -18 17.001 -26s14.334 -15 23.001 -21c8.66699 -6.66699 18.167 -11.5 28.5 -14.5s21.833 -4.5 34.5 -4.5c3.33301 0 7.16602 0.333008 11.499 1l13.5 2l15.5 4c5 1.33301 9.83301 3.33301 14.5 6c4.66699 2 9.16699 4.5 13.5 7.5
s8.5 6.5 12.5 10.5c4 3.33301 8 7.33301 12 12s7.66699 10 11 16c5.33301 8 9.33301 17.5 12 28.5s4.33398 23.167 5.00098 36.5c1.33301 13.333 2.16602 28.833 2.49902 46.5s0.5 37.834 0.5 60.501v222h88v0v0z" />
    <glyph glyph-name="paragraph" unicode="&#xb6;" horiz-adv-x="537" 
d="M196 -199v509.999c-34 0.666992 -63.333 6.33398 -88 17.001s-45 26 -61 46c-16 19.333 -27.833 40.333 -35.5 63s-11.5 46.334 -11.5 71.001c0 33.333 5.16699 62.666 15.5 87.999s25.833 47 46.5 65c20.667 17.333 43.667 30.5 69 39.5s53.333 13.5 84 13.5l324 2v-85
h-70v-830h-82v830h-109v-830h-82v0v0z" />
    <glyph glyph-name="middot" unicode="&#xb7;" 
 />
    <glyph glyph-name="cedilla" unicode="&#xb8;" horiz-adv-x="333" 
d="M105 -75l25.999 85.999h65l-16 -52c11.333 -1.33301 21.666 -3.83301 30.999 -7.5s18.333 -8.5 27 -14.5c8 -6 14.167 -13.167 18.5 -21.5s6.5 -17.833 6.5 -28.5c0 -11.333 -2.83301 -22.333 -8.5 -33s-14.167 -20.667 -25.5 -30s-26 -16.5 -44 -21.5s-39 -7.5 -63 -7.5
h-4h-4h-5h-4h-4.5h-4.5c-1.33301 0.666992 -2.83301 1 -4.5 1h-4.5c-2.66699 0.666992 -5.5 1.16699 -8.5 1.5s-6.16699 0.5 -9.5 0.5c-2.66699 0 -5.5 0.166992 -8.5 0.5s-5.83301 0.833008 -8.5 1.5l5 57h6h7c2.66699 0 5.16699 -0.166992 7.5 -0.5
s4.83301 -0.833008 7.5 -1.5h4.5h4.5h4.5h4.5h2.5h3.5c1.33301 0.666992 2.66602 1 3.99902 1h5c3.33301 0 7 0.166992 11 0.5s8 0.833008 12 1.5c5.33301 0.666992 10.166 2 14.499 4s8.83301 4.33301 13.5 7c4 2.66699 7.16699 5.83398 9.5 9.50098s3.5 8.16699 3.5 13.5
s-1.16699 10 -3.5 14s-6.16602 7 -11.499 9c-4.66699 2.66699 -9.66699 4.66699 -15 6s-10.666 2.33301 -15.999 3c-1.33301 0 -2.66602 0.166992 -3.99902 0.5s-2.66602 0.5 -3.99902 0.5h-5h-4h-7.5h-6.5v0v0z" />
    <glyph glyph-name="onesuperior" unicode="&#xb9;" 
 />
    <glyph glyph-name="ordmasculine" unicode="&#xba;" horiz-adv-x="365" 
d="M182 728c23.333 -1.33301 43.665 -5.16797 60.998 -11.501s32 -16.166 44 -29.499c12 -12.667 22 -26 30 -40s14 -28.667 18 -44c1.33301 -5.33301 2.5 -10.5 3.5 -15.5s1.83301 -10.167 2.5 -15.5c0.666992 -4.66699 1.16699 -9.5 1.5 -14.5s0.5 -9.83301 0.5 -14.5
s-0.166992 -9.16699 -0.5 -13.5s-0.833008 -9.16602 -1.5 -14.499l-2 -14.5c-0.666992 -5 -1.66699 -9.83301 -3 -14.5c-4 -16 -10 -31.333 -18 -46s-18 -28.667 -30 -42c-12 -12.667 -26.667 -22.334 -44 -29.001s-37.666 -10 -60.999 -10
c-26.667 0 -50.167 4.5 -70.5 13.5s-37.166 22.5 -50.499 40.5s-23.333 37.5 -30 58.5s-10 43.833 -10 68.5v12c0 4 0.333008 8 1 12c0 2 0.166992 4 0.5 6s0.5 4.33301 0.5 7c0.666992 2 1.16699 4 1.5 6s0.833008 4 1.5 6c3.33301 17.333 8.83301 33.833 16.5 49.5
s17.5 30.5 29.5 44.5s27 24.667 45 32s39.333 11 64 11v2v0zM181.999 662.998c-12.667 -1.33301 -23.832 -3.66699 -33.499 -7s-17.5 -8.66602 -23.5 -15.999c-6 -6.66699 -11 -13.834 -15 -21.501s-7 -15.5 -9 -23.5c-1.33301 -4.66699 -2.5 -9.5 -3.5 -14.5
s-1.5 -10.167 -1.5 -15.5c-0.666992 -4.66699 -1 -8.83398 -1 -12.501v-10.5v-9c0 -4 0.333008 -8.66699 1 -14c0 -5.33301 0.666992 -10.833 2 -16.5s3 -11.5 5 -17.5c2 -8 5.16699 -15.5 9.5 -22.5s9.5 -13.5 15.5 -19.5c6 -6.66699 13.5 -11.5 22.5 -14.5
s19.5 -4.5 31.5 -4.5c13.333 0 24.666 1.66699 33.999 5s17 8.33301 23 15c6 7.33301 11.167 14.666 15.5 21.999s7.5 15 9.5 23l2 8l2 8c0 2 0.166992 4.33301 0.5 7s0.5 5.33398 0.5 8.00098v7.5c0 2.33301 0.333008 4.5 1 6.5v6v5v4v4c-0.666992 2 -1 4.16699 -1 6.5v7.5
c-0.666992 5.33301 -1.5 10.833 -2.5 16.5s-2.5 11.834 -4.5 18.501c-2.66699 7.33301 -6.16699 14.333 -10.5 21s-9.5 13 -15.5 19s-13.5 10.667 -22.5 14s-19.5 5 -31.5 5v2v0z" />
    <glyph glyph-name="guillemotright" unicode="&#xbb;" horiz-adv-x="556" 
d="M196 258l-127 223h72l155 -223l-155 -223h-72l127 223v0v0zM387 258l-127 223h72l155 -223l-155 -223h-72l127 223v0v0z" />
    <glyph glyph-name="onequarter" unicode="&#xbc;" 
 />
    <glyph glyph-name="onehalf" unicode="&#xbd;" horiz-adv-x="834" 
d="M111 -25l538 757h76l-537 -757h-77v0v0zM586 239l-74.0029 6.99609l2.5 7.5l3.5 10.5c1.33301 4 2.83301 8 4.5 12s3.83398 8 6.50098 12c4 7.33301 9.66699 14.5 17 21.5s16 13.833 26 20.5s22.333 11.667 37 15s32 5 52 5c2 0 5.33301 -0.166992 10 -0.5
s10.334 -0.833008 17.001 -1.5s13.5 -1.66699 20.5 -3s14.5 -3 22.5 -5c9.33301 -2.66699 18 -6.33398 26 -11.001s16 -10.667 24 -18c7.33301 -6.66699 13 -15 17 -25s6 -21.667 6 -35c0 -10.667 -1.33301 -21 -4 -31s-6.66699 -19.333 -12 -28
c-4.66699 -8.66699 -10.667 -17.167 -18 -25.5s-15.666 -16.5 -24.999 -24.5c-4 -4 -8.16699 -7.66699 -12.5 -11l-13.5 -10c-4.66699 -3.33301 -9.16699 -6.83301 -13.5 -10.5s-9.16602 -7.16699 -14.499 -10.5l-31 -20l-14 -12c-4 -3.33301 -7.33301 -6 -10 -8
c-2.66699 -2.66699 -5.16699 -5 -7.5 -7s-4.5 -4 -6.5 -6v0v0l-1 -1v0v0v0l-1.5 -1.5l-0.5 -0.5l-1.5 -1.5l-0.5 -0.5l189 2v-59h-304c1.33301 12.667 5.5 25.334 12.5 38.001s16.5 25.334 28.5 38.001c12 12 25 24 39 36s29.333 24 46 36l35.5 25.5
c10.333 7.66699 18.833 14.5 25.5 20.5c7.33301 5.33301 13.666 10.833 18.999 16.5s9.33301 10.834 12 15.501c0.666992 1.33301 1.16699 2.5 1.5 3.5s0.833008 2.16699 1.5 3.5c0.666992 0.666992 1.16699 1.66699 1.5 3s0.5 2.33301 0.5 3
c0.666992 2 1.16699 4.16699 1.5 6.5s0.5 4.83301 0.5 7.5c0 8.66699 -1.5 16.334 -4.5 23.001s-7.5 12.334 -13.5 17.001s-13.167 8.16699 -21.5 10.5s-17.5 3.5 -27.5 3.5c-14 0 -25.5 -1.5 -34.5 -4.5s-15.5 -7.16699 -19.5 -12.5c-4.66699 -6 -8.66699 -12 -12 -18
s-6 -12.667 -8 -20v2v0zM170.997 357.996l-0.00195312 271c-6 -6 -12.333 -11.5 -19 -16.5s-13.667 -9.5 -21 -13.5s-14.666 -7.66699 -21.999 -11s-14.666 -6.33301 -21.999 -9c-2.66699 -0.666992 -5 -1.33398 -7 -2.00098l-6 -2l-6 -2l-6 -2v63
c4 0.666992 8.5 1.83398 13.5 3.50098s10.167 3.83398 15.5 6.50098c5.33301 3.33301 11 6.66602 17 9.99902s12 7 18 11l16.5 12.5c5.66699 4.33301 11.167 8.83301 16.5 13.5l15.5 15.5c5 5 9.83301 10.5 14.5 16.5l53 2v-367h-71v0v0z" />
    <glyph glyph-name="threequarters" unicode="&#xbe;" 
 />
    <glyph glyph-name="questiondown" unicode="&#xbf;" horiz-adv-x="611" 
d="M447 7l90.0029 -10c-0.666992 -4.66699 -1.33398 -9.66699 -2.00098 -15s-1.66699 -11.333 -3 -18c-0.666992 -6 -2.33398 -12.667 -5.00098 -20s-5.66699 -15 -9 -23c-6.66699 -14.667 -14 -27.834 -22 -39.501s-16.667 -21.834 -26 -30.501l-14.5 -12
c-5 -4 -9.83301 -7.66699 -14.5 -11c-5.33301 -2.66699 -10.333 -5.5 -15 -8.5s-9.66699 -5.5 -15 -7.5c-10 -4.66699 -20 -8.5 -30 -11.5s-19.667 -5.16699 -29 -6.5s-18 -2.33301 -26 -3s-15 -1 -21 -1c-34 0 -64.833 4.66699 -92.5 14s-52.167 23.333 -73.5 42
s-37.333 39.5 -48 62.5s-16 48.5 -16 76.5c0 15.333 1.66699 29.833 5 43.5s8.33301 26.5 15 38.5c7.33301 12 15.5 23.667 24.5 35s19.167 22.333 30.5 33c2 2.66699 4.33301 5.16699 7 7.5s5.33398 4.83301 8.00098 7.5c3.33301 2.66699 6.5 5.33398 9.5 8.00098
s5.83301 5.33398 8.5 8.00098l16.5 15l14.5 14c2 2 4.16699 4 6.5 6s4.5 4.33301 6.5 7c2 2 3.83301 4 5.5 6s3.16699 4 4.5 6c5.33301 7.33301 9.83301 14.833 13.5 22.5s6.5 15.834 8.5 24.501s3.5 19 4.5 31s1.83301 26 2.5 42l84 2v-3.5v-2.5v-2v-2v-1.5v-0.5v-1.5
c0 -0.333008 0.333008 -0.5 1 -0.5v-2.5v-3.5v-2.5v-3.5c-0.666992 -18 -2 -34.167 -4 -48.5s-5 -27.166 -9 -38.499c-4 -10.667 -9 -21.334 -15 -32.001s-13.333 -20.667 -22 -30l-13 -14.5l-15 -15.5l-17 -15.5c-6 -5.66699 -12.333 -11.167 -19 -16.5
c-2.66699 -2.66699 -5.5 -5.33398 -8.5 -8.00098s-5.83301 -5 -8.5 -7c-2.66699 -2.66699 -5.33398 -5.16699 -8.00098 -7.5s-5 -4.5 -7 -6.5c-6 -6.66699 -11.5 -13.167 -16.5 -19.5s-9.16699 -13.166 -12.5 -20.499c-4 -6.66699 -6.83301 -13.834 -8.5 -21.501
s-2.5 -15.5 -2.5 -23.5c0 -16.667 3.33301 -32.5 10 -47.5s16.334 -28.833 29.001 -41.5c13.333 -13.333 28.333 -23.333 45 -30s35 -10 55 -10c21.333 0 40.333 3.5 57 10.5s30.667 17.167 42 30.5s20.666 28.5 27.999 45.5s12.666 35.833 15.999 56.5v2v0zM356.003 518
v-100h-100v100h100v0v0z" />
    <glyph glyph-name="Agrave" unicode="&#xc0;" horiz-adv-x="667" 
d="M-1 0l275 716h102l292 -716h-107l-84 218h-299l-79 -218h-100v0v0zM284 504l-79.001 -211.001h243l-75 199c-0.666992 0 -1.16699 0.5 -1.5 1.5s-0.5 1.83301 -0.5 2.5c-0.666992 1.33301 -1.16699 2.5 -1.5 3.5s-0.833008 1.83301 -1.5 2.5
c-0.666992 1.33301 -1.16699 2.5 -1.5 3.5s-0.5 2.16699 -0.5 3.5c-0.666992 0.666992 -1.16699 1.66699 -1.5 3s-0.5 2.33301 -0.5 3c-4 9.33301 -7.66699 18.833 -11 28.5l-10 29.5c-3.33301 10 -6.5 20.5 -9.5 31.5l-9.5 34.5l-2 2l-7.5 -36.5
c-2.33301 -11.667 -5.16602 -23.167 -8.49902 -34.5c-2.66699 -11.333 -6 -22.666 -10 -33.999l-12 -34v2v0zM323.999 897.999l65 -137h-72l-108 137h115v0v0z" />
    <glyph glyph-name="Aacute" unicode="&#xc1;" horiz-adv-x="667" 
d="M-1 0l275 716h102l292 -716h-107l-84 218h-299l-79 -218h-100v0v0zM284 504l-79.001 -211.001h243l-75 199c-0.666992 0 -1.16699 0.5 -1.5 1.5s-0.5 1.83301 -0.5 2.5c-0.666992 1.33301 -1.16699 2.5 -1.5 3.5s-0.833008 1.83301 -1.5 2.5
c-0.666992 1.33301 -1.16699 2.5 -1.5 3.5s-0.5 2.16699 -0.5 3.5c-0.666992 0.666992 -1.16699 1.66699 -1.5 3s-0.5 2.33301 -0.5 3c-4 9.33301 -7.66699 18.833 -11 28.5l-10 29.5c-3.33301 10 -6.5 20.5 -9.5 31.5l-9.5 34.5l-2 2l-7.5 -36.5
c-2.33301 -11.667 -5.16602 -23.167 -8.49902 -34.5c-2.66699 -11.333 -6 -22.666 -10 -33.999l-12 -34v2v0zM267.999 760.999l65 137h115l-108 -137h-72v0v0z" />
    <glyph glyph-name="Acircumflex" unicode="&#xc2;" horiz-adv-x="667" 
d="M-1 0l275 716h102l292 -716h-107l-84 218h-299l-79 -218h-100v0v0zM284 504l-79.001 -211.001h243l-75 199c-0.666992 0 -1.16699 0.5 -1.5 1.5s-0.5 1.83301 -0.5 2.5c-0.666992 1.33301 -1.16699 2.5 -1.5 3.5s-0.833008 1.83301 -1.5 2.5
c-0.666992 1.33301 -1.16699 2.5 -1.5 3.5s-0.5 2.16699 -0.5 3.5c-0.666992 0.666992 -1.16699 1.66699 -1.5 3s-0.5 2.33301 -0.5 3c-4 9.33301 -7.66699 18.833 -11 28.5l-10 29.5c-3.33301 10 -6.5 20.5 -9.5 31.5l-9.5 34.5l-2 2l-7.5 -36.5
c-2.33301 -11.667 -5.16602 -23.167 -8.49902 -34.5c-2.66699 -11.333 -6 -22.666 -10 -33.999l-12 -34v2v0zM334.999 843.999l-56 -83h-100l106 137h93l110 -137h-100l-53 83v0v0z" />
    <glyph glyph-name="Atilde" unicode="&#xc3;" horiz-adv-x="667" 
d="M-1 0l275 716h102l292 -716h-107l-84 218h-299l-79 -218h-100v0v0zM284 504l-79.001 -211.001h243l-75 199c-0.666992 0 -1.16699 0.5 -1.5 1.5s-0.5 1.83301 -0.5 2.5c-0.666992 1.33301 -1.16699 2.5 -1.5 3.5s-0.833008 1.83301 -1.5 2.5
c-0.666992 1.33301 -1.16699 2.5 -1.5 3.5s-0.5 2.16699 -0.5 3.5c-0.666992 0.666992 -1.16699 1.66699 -1.5 3s-0.5 2.33301 -0.5 3c-4 9.33301 -7.66699 18.833 -11 28.5l-10 29.5c-3.33301 10 -6.5 20.5 -9.5 31.5l-9.5 34.5l-2 2l-7.5 -36.5
c-2.33301 -11.667 -5.16602 -23.167 -8.49902 -34.5c-2.66699 -11.333 -6 -22.666 -10 -33.999l-12 -34v2v0zM432.999 886.999l64 0.00390625c-0.666992 -16.667 -2.5 -30.834 -5.5 -42.501s-7.16699 -21.167 -12.5 -28.5c-4.66699 -8 -9.83398 -14.5 -15.501 -19.5
s-11.5 -9.16699 -17.5 -12.5c-4.66699 -2.66699 -9.16699 -4.83398 -13.5 -6.50098s-8.5 -2.83398 -12.5 -3.50098s-7.66699 -1 -11 -1h-8c-4.66699 0 -9.5 0.333008 -14.5 1s-10.5 2 -16.5 4c-6 1.33301 -12.5 3.5 -19.5 6.5s-14.167 6.83301 -21.5 11.5l-18 12
c-5.33301 2 -10 3.83301 -14 5.5s-7.66699 2.83398 -11 3.50098c-2.66699 0.666992 -5.16699 1.16699 -7.5 1.5s-4.5 0.5 -6.5 0.5h-1h-1c-0.666992 -0.666992 -1.33398 -1 -2.00098 -1h-3c-0.666992 0 -1.5 -0.166992 -2.5 -0.5s-1.83301 -0.5 -2.5 -0.5l-3 -1.5l-3 -1.5
c-2.66699 -1.33301 -5 -3 -7 -5s-4 -4.66699 -6 -8c-2 -2.66699 -3.5 -6.33398 -4.5 -11.001s-1.5 -10 -1.5 -16v0v0v-1v0v0v0v0v0v-1v0v0v0l-65 2c-0.666992 17.333 1.33301 33 6 47s12 25.333 22 34c10 9.33301 20.5 16.333 31.5 21s22.5 7.33398 34.5 8.00098h0.5h1.5
h1.5h1.5h3.5h2.5h2h2c0 -0.666992 0.333008 -1 1 -1h2c3.33301 -0.666992 7 -1.5 11 -2.5s8 -2.16699 12 -3.5l14.5 -5c5.66699 -2 11.834 -4.66699 18.501 -8c9.33301 -4.66699 17 -8.33398 23 -11.001s10.667 -4.66699 14 -6c3.33301 -0.666992 6.5 -1.5 9.5 -2.5
s5.83301 -1.5 8.5 -1.5h0.5h1.5h1.5h1.5c5.33301 0 9.83301 0.666992 13.5 2s6.83398 3.33301 9.50098 6c3.33301 3.33301 6 7.66602 8 12.999s3.33301 12.333 4 21v2v0z" />
    <glyph glyph-name="Adieresis" unicode="&#xc4;" horiz-adv-x="667" 
d="M-1 0l275 716h102l292 -716h-107l-84 218h-299l-79 -218h-100v0v0zM284 504l-79.001 -211.001h243l-75 199c-0.666992 0 -1.16699 0.5 -1.5 1.5s-0.5 1.83301 -0.5 2.5c-0.666992 1.33301 -1.16699 2.5 -1.5 3.5s-0.833008 1.83301 -1.5 2.5
c-0.666992 1.33301 -1.16699 2.5 -1.5 3.5s-0.5 2.16699 -0.5 3.5c-0.666992 0.666992 -1.16699 1.66699 -1.5 3s-0.5 2.33301 -0.5 3c-4 9.33301 -7.66699 18.833 -11 28.5l-10 29.5c-3.33301 10 -6.5 20.5 -9.5 31.5l-9.5 34.5l-2 2l-7.5 -36.5
c-2.33301 -11.667 -5.16602 -23.167 -8.49902 -34.5c-2.66699 -11.333 -6 -22.666 -10 -33.999l-12 -34v2v0zM197.999 780.999v100h90v-100h-90v0v0zM378.999 780.999v100h90v-100h-90v0v0z" />
    <glyph glyph-name="Aring" unicode="&#xc5;" horiz-adv-x="667" 
d="M-1 0l275 716h102l292 -716h-107l-84 218h-299l-79 -218h-100v0v0zM284 504l-79.001 -211.001h243l-75 199c-0.666992 0 -1.16699 0.5 -1.5 1.5s-0.5 1.83301 -0.5 2.5c-0.666992 1.33301 -1.16699 2.5 -1.5 3.5s-0.833008 1.83301 -1.5 2.5
c-0.666992 1.33301 -1.16699 2.5 -1.5 3.5s-0.5 2.16699 -0.5 3.5c-0.666992 0.666992 -1.16699 1.66699 -1.5 3s-0.5 2.33301 -0.5 3c-4 9.33301 -7.66699 18.833 -11 28.5l-10 29.5c-3.33301 10 -6.5 20.5 -9.5 31.5l-9.5 34.5l-2 2l-7.5 -36.5
c-2.33301 -11.667 -5.16602 -23.167 -8.49902 -34.5c-2.66699 -11.333 -6 -22.666 -10 -33.999l-12 -34v2v0zM332.999 921.999c12 -1.33301 23.333 -4.16699 34 -8.5s20.334 -10.833 29.001 -19.5s15.167 -18.334 19.5 -29.001s6.5 -22 6.5 -34
c0 -12.667 -2.16699 -24.167 -6.5 -34.5s-10.833 -19.833 -19.5 -28.5s-18.334 -15.167 -29.001 -19.5s-22 -6.5 -34 -6.5c-12.667 0 -24.167 2.16699 -34.5 6.5s-19.5 10.833 -27.5 19.5c-8.66699 8.66699 -15 18.167 -19 28.5s-6 21.833 -6 34.5c0 12 2 23.333 6 34
s10.333 20.334 19 29.001c8 8.66699 17.167 15.167 27.5 19.5s21.833 6.5 34.5 6.5v2v0zM281.999 833.998c0 -9.33301 1.33398 -17.166 4.00098 -23.499s6.66699 -12.166 12 -17.499c5.33301 -4.66699 11 -8.33398 17 -11.001s12.333 -4 19 -4
c7.33301 0 14.166 1.33301 20.499 4s11.833 6.33398 16.5 11.001c5.33301 5.33301 9.16602 11.166 11.499 17.499s3.5 13.166 3.5 20.499s-1.16699 14 -3.5 20s-6.16602 11.667 -11.499 17c-4.66699 5.33301 -10.167 9.33301 -16.5 12s-13.166 4 -20.499 4
s-14 -1.33301 -20 -4s-11.667 -6.66699 -17 -12c-4.66699 -5.33301 -8.33398 -11 -11.001 -17s-4 -12.333 -4 -19v2v0z" />
    <glyph glyph-name="AE" unicode="&#xc6;" horiz-adv-x="1000" 
d="M0 0l345 716h587v-85h-360v-220h335v-84h-335v-243h373v-84h-468v207h-276l-98 -207h-103v0v0zM406 631l-165 -340h236v340h-71v0v0z" />
    <glyph glyph-name="Ccedilla" unicode="&#xc7;" horiz-adv-x="722" 
d="M398 -12l-6.00195 -25.0049c13.333 -1.33301 25 -4.16602 35 -8.49902s18.333 -9.83301 25 -16.5c6 -6.66699 10.833 -13.667 14.5 -21s5.83398 -15 6.50098 -23v-0.5c0 -0.333008 0.333008 -0.833008 1 -1.5v-0.5v-1.5v-1.5v-1.5v-0.5v-1.5
c0 -17.333 -3.5 -31.666 -10.5 -42.999s-17.167 -20.333 -30.5 -27c-14 -6 -28.5 -11 -43.5 -15s-30.5 -6.66699 -46.5 -8h-6.5c-2.33301 0 -4.5 -0.333008 -6.5 -1h-6h-6h-6c-2 0 -4 -0.333008 -6 -1h-6h-6h-6h-6h-5.5h-4.5c-2 0.666992 -3.83301 1 -5.5 1h-4.5h-5.5h-4.5
l4 62h1.5h1.5h0.5h1.5h1.5c0.333008 0 0.833008 -0.333008 1.5 -1h2h2h3.5c1 0 2.16699 -0.333008 3.5 -1h5h5h5c2 0 4 -0.333008 6 -1h6h7h3.5h3.5c1.33301 0.666992 2.66602 1 3.99902 1h5h4.5h5.5c1.33301 0.666992 3 1 5 1h6c5.33301 0.666992 10.333 2 15 4
s9.33398 4.33301 14.001 7s8.16699 5.83398 10.5 9.50098s3.5 8.16699 3.5 13.5c0 6.66699 -1.83301 12.334 -5.5 17.001s-9.16699 8.33398 -16.5 11.001s-16 4.83398 -26 6.50098s-21.667 2.5 -35 2.5l25 68c-46.667 4.66699 -86.667 16 -120 34s-60.666 42.333 -81.999 73
c-20.667 31.333 -37.334 63.5 -50.001 96.5s-21 67.5 -25 103.5c-0.666992 5.33301 -1.16699 10.5 -1.5 15.5s-0.5 9.83301 -0.5 14.5c-0.666992 5.33301 -1 10.5 -1 15.5v14.5c0 60 7.33301 112 22 156s36.334 80 65.001 108c29.333 28 60 50.333 92 67
s65.333 27.667 100 33c2.66699 0 5.16699 0.166992 7.5 0.5s4.83301 0.833008 7.5 1.5c2 0 4.16699 0.166992 6.5 0.5s4.83301 0.5 7.5 0.5h7.5c2.33301 0 4.83301 0.333008 7.5 1h6.5h7.5c31.333 0 61.5 -4.16699 90.5 -12.5s56.5 -20.5 82.5 -36.5
s48.167 -37.333 66.5 -64s32.833 -58.667 43.5 -96l-93 -20c-1.33301 2.66699 -2.83301 6 -4.5 10s-3.16699 8.33301 -4.5 13c-2 4 -4 8.33301 -6 13l-6 14c-6.66699 12 -14.834 23.667 -24.501 35s-21.167 22 -34.5 32c-12.667 10 -28.334 17.667 -47.001 23s-40 8 -64 8
c-41.333 0 -76.666 -6.16699 -105.999 -18.5s-52.666 -30.833 -69.999 -55.5c-16.667 -24.667 -30 -50.5 -40 -77.5s-16.667 -55.167 -20 -84.5c0 -2 -0.166992 -4 -0.5 -6s-0.5 -4 -0.5 -6c-0.666992 -2.66699 -1 -5 -1 -7v-6v-13v-12
c0 -8.66699 0.333008 -18.334 1 -29.001s1.33398 -22.667 2.00098 -36c1.33301 -12.667 3.5 -25.834 6.5 -39.501s6.83301 -27.5 11.5 -41.5c0 -1.33301 0.166992 -2.66602 0.5 -3.99902s0.833008 -2.66602 1.5 -3.99902c0.666992 -0.666992 1.16699 -1.5 1.5 -2.5
s0.833008 -2.16699 1.5 -3.5c7.33301 -20 17.666 -38 30.999 -54s29.333 -30 48 -42s38.5 -21 59.5 -27s43.167 -9 66.5 -9c20 0 38.5 2 55.5 6s32.5 10 46.5 18c13.333 8 25.333 16.5 36 25.5s19.667 18.5 27 28.5c1.33301 1.33301 2.5 2.83301 3.5 4.5
s1.83301 3.16699 2.5 4.5c1.33301 1.33301 2.5 2.83301 3.5 4.5s1.83301 3.16699 2.5 4.5c5.33301 8.66699 9.83301 17 13.5 25s6.5 15.667 8.5 23l5.5 20.5l4.5 17.5l95 -22c-10.667 -41.333 -25.167 -77 -43.5 -107s-40.5 -54.333 -66.5 -73s-53.667 -32.834 -83 -42.501
s-60.333 -15.167 -93 -16.5v0v0z" />
    <glyph glyph-name="Egrave" unicode="&#xc8;" horiz-adv-x="667" 
d="M79 0v716h518v-85h-423v-219h396v-85h-396v-242h440v-85h-535v0v0zM334 898l65 -137h-72l-108 137h115v0v0z" />
    <glyph glyph-name="Eacute" unicode="&#xc9;" horiz-adv-x="667" 
d="M79 0v716h518v-85h-423v-219h396v-85h-396v-242h440v-85h-535v0v0zM278 761l65 137h115l-108 -137h-72v0v0z" />
    <glyph glyph-name="Ecircumflex" unicode="&#xca;" horiz-adv-x="667" 
d="M79 0v716h518v-85h-423v-219h396v-85h-396v-242h440v-85h-535v0v0zM345 844l-56 -83h-100l106 137h93l110 -137h-100l-53 83v0v0z" />
    <glyph glyph-name="Edieresis" unicode="&#xcb;" horiz-adv-x="667" 
d="M79 0v716h518v-85h-423v-219h396v-85h-396v-242h440v-85h-535v0v0zM208 781v100h90v-100h-90v0v0zM389 781v100h90v-100h-90v0v0z" />
    <glyph glyph-name="Igrave" unicode="&#xcc;" 
d="M92 0v716h95v-716h-95v0v0zM130 898l65 -137h-72l-108 137h115v0v0z" />
    <glyph glyph-name="Iacute" unicode="&#xcd;" 
d="M92 0v716h95v-716h-95v0v0zM84 761l65 137h115l-108 -137h-72v0v0z" />
    <glyph glyph-name="Icircumflex" unicode="&#xce;" 
d="M92 0v716h95v-716h-95v0v0zM141 844l-56 -83h-100l106 137h93l110 -137h-100l-53 83v0v0z" />
    <glyph glyph-name="Idieresis" unicode="&#xcf;" 
d="M92 0v716h95v-716h-95v0v0zM4 781v100h90v-100h-90v0v0zM185 781v100h90v-100h-90v0v0z" />
    <glyph glyph-name="Eth" unicode="&#xd0;" horiz-adv-x="722" 
d="M80 0l-0.000976562 316h-79v85h79v315h247c9.33301 -1.33301 18.5 -2.16602 27.5 -2.49902s18.5 -0.5 28.5 -0.5c9.33301 -0.666992 18.833 -1.5 28.5 -2.5s19.5 -2.16699 29.5 -3.5c12.667 -2.66699 25.167 -6 37.5 -10s24.833 -9 37.5 -15
c12 -6 23.833 -13.667 35.5 -23s22.834 -20 33.501 -32c0.666992 -0.666992 1.16699 -1.33398 1.5 -2.00098s0.833008 -1 1.5 -1c0.666992 -0.666992 1.16699 -1.33398 1.5 -2.00098s0.833008 -1.33398 1.5 -2.00098c1.33301 -1.33301 2.5 -2.66602 3.5 -3.99902
s1.83301 -2.66602 2.5 -3.99902c9.33301 -12 18.166 -26 26.499 -42s16.5 -34 24.5 -54s14 -43 18 -69s6 -55 6 -87c0 -32.667 -2.33301 -63.5 -7 -92.5s-11.667 -55.5 -21 -79.5c-9.33301 -24.667 -20.166 -46.667 -32.499 -66s-26.166 -36.333 -41.499 -51
c-6.66699 -6.66699 -13.5 -12.667 -20.5 -18s-14.167 -10 -21.5 -14c-7.33301 -4.66699 -14.833 -8.66699 -22.5 -12s-15.167 -6.33301 -22.5 -9c-14 -4.66699 -27.833 -8.5 -41.5 -11.5s-27.167 -4.83301 -40.5 -5.5c-12.667 -0.666992 -24.334 -1 -35.001 -1h-28h-258v0v0
zM174.999 316v-231.003h153v-2v0v0h1v0v0h21c7.33301 0 15.333 0.333008 24 1c8.66699 0 17.334 0.666992 26.001 2s17.334 3.33301 26.001 6c18.667 5.33301 36.5 13.833 53.5 25.5s33.167 26.834 48.5 45.501c15.333 19.333 26.833 45.5 34.5 78.5s11.5 72.833 11.5 119.5
c0 22.667 -1 43 -3 61s-4.66699 33.667 -8 47c-4 13.333 -8 25.333 -12 36s-8.33301 20 -13 28c-0.666992 1.33301 -1.33398 2.33301 -2.00098 3s-1 1.66699 -1 3c-0.666992 0.666992 -1.33398 1.5 -2.00098 2.5s-1.33398 1.83301 -2.00098 2.5
c-0.666992 1.33301 -1.5 2.83301 -2.5 4.5s-2.16699 3.16699 -3.5 4.5c-11.333 15.333 -23.5 28 -36.5 38s-26.833 17.333 -41.5 22s-29.167 8.33398 -43.5 11.001s-29.166 4.33398 -44.499 5.00098h-4h-4h-5h-4h-4h-4h-5h-4l-150 2v-230h195v-85h-195v0v0z" />
    <glyph glyph-name="Ntilde" unicode="&#xd1;" horiz-adv-x="722" 
d="M79 0v716h97l374 -562h2v562h90v-716h-97l-374 562h-2v-562h-90v0v0zM471 887l64 0.00390625c-0.666992 -16.667 -2.5 -30.834 -5.5 -42.501s-7.16699 -21.167 -12.5 -28.5c-4.66699 -8 -9.83398 -14.5 -15.501 -19.5s-11.5 -9.16699 -17.5 -12.5
c-4.66699 -2.66699 -9.16699 -4.83398 -13.5 -6.50098s-8.5 -2.83398 -12.5 -3.50098s-7.66699 -1 -11 -1h-8c-4.66699 0 -9.5 0.333008 -14.5 1s-10.5 2 -16.5 4c-6 1.33301 -12.5 3.5 -19.5 6.5s-14.167 6.83301 -21.5 11.5l-18 12c-5.33301 2 -10 3.83301 -14 5.5
s-7.66699 2.83398 -11 3.50098c-2.66699 0.666992 -5.16699 1.16699 -7.5 1.5s-4.5 0.5 -6.5 0.5h-1h-1c-0.666992 -0.666992 -1.33398 -1 -2.00098 -1h-3c-0.666992 0 -1.5 -0.166992 -2.5 -0.5s-1.83301 -0.5 -2.5 -0.5l-3 -1.5l-3 -1.5c-2.66699 -1.33301 -5 -3 -7 -5
s-4 -4.66699 -6 -8c-2 -2.66699 -3.5 -6.33398 -4.5 -11.001s-1.5 -10 -1.5 -16v0v0v-1v0v0v0v0v0v-1v0v0v0l-65 2c-0.666992 17.333 1.33301 33 6 47s12 25.333 22 34c10 9.33301 20.5 16.333 31.5 21s22.5 7.33398 34.5 8.00098h0.5h1.5h1.5h1.5h3.5h2.5h2h2
c0 -0.666992 0.333008 -1 1 -1h2c3.33301 -0.666992 7 -1.5 11 -2.5s8 -2.16699 12 -3.5l14.5 -5c5.66699 -2 11.834 -4.66699 18.501 -8c9.33301 -4.66699 17 -8.33398 23 -11.001s10.667 -4.66699 14 -6c3.33301 -0.666992 6.5 -1.5 9.5 -2.5s5.83301 -1.5 8.5 -1.5h0.5
h1.5h1.5h1.5c5.33301 0 9.83301 0.666992 13.5 2s6.83398 3.33301 9.50098 6c3.33301 3.33301 6 7.66602 8 12.999s3.33301 12.333 4 21v2v0z" />
    <glyph glyph-name="Ograve" unicode="&#xd2;" 
 />
    <glyph glyph-name="Oacute" unicode="&#xd3;" horiz-adv-x="778" 
d="M47 349c0 62.667 8.5 117.67 25.5 165.003s42.5 86.666 76.5 117.999s71 54.833 111 70.5s83.333 23.5 130 23.5c48.667 0 93.334 -8.16699 134.001 -24.5s77.334 -41.166 110.001 -74.499c32.667 -32.667 57.167 -71.834 73.5 -117.501s24.5 -97.167 24.5 -154.5
c0 -58 -8.33301 -109.667 -25 -155s-41.667 -84 -75 -116c-32.667 -32.667 -69.334 -56.834 -110.001 -72.501s-84.667 -23.5 -132 -23.5c-56 0 -105.333 9.16699 -148 27.5s-78.667 45.833 -108 82.5c-28.667 37.333 -50.334 76.666 -65.001 117.999s-22 85 -22 131v2v0z
M145 347.003c0 -42.667 5.49902 -80.832 16.499 -114.499s27.833 -63.167 50.5 -88.5c22.667 -26 48.667 -45.333 78 -58s62.333 -19 99 -19c32.667 0 63.167 5.83301 91.5 17.5s54.833 29.167 79.5 52.5s43.167 53.166 55.5 89.499s18.5 79.166 18.5 128.499
c0 51.333 -6.33301 95.5 -19 132.5s-31.667 66.833 -57 89.5c-24.667 22.667 -51 39.667 -79 51s-57.333 17 -88 17c-18.667 0 -37.334 -2.16699 -56.001 -6.5s-36.667 -10.5 -54 -18.5c-18 -8 -34 -18 -48 -30s-26.333 -25.667 -37 -41c-4 -5.33301 -7.66699 -11 -11 -17
s-6.33301 -12 -9 -18c-1.33301 -2.66699 -2.66602 -5.66699 -3.99902 -9s-2.66602 -6.33301 -3.99902 -9c-0.666992 -3.33301 -1.5 -6.5 -2.5 -9.5s-2.16699 -6.16699 -3.5 -9.5c-4.66699 -14.667 -8.16699 -28.667 -10.5 -42s-3.83301 -26.666 -4.5 -39.999
c-0.666992 -12.667 -1.16699 -23.167 -1.5 -31.5s-0.5 -14.5 -0.5 -18.5v2v0zM333.999 761.005l65 137h115l-108 -137h-72v0v0z" />
    <glyph glyph-name="Ocircumflex" unicode="&#xd4;" horiz-adv-x="778" 
d="M47 349c0 62.667 8.5 117.67 25.5 165.003s42.5 86.666 76.5 117.999s71 54.833 111 70.5s83.333 23.5 130 23.5c48.667 0 93.334 -8.16699 134.001 -24.5s77.334 -41.166 110.001 -74.499c32.667 -32.667 57.167 -71.834 73.5 -117.501s24.5 -97.167 24.5 -154.5
c0 -58 -8.33301 -109.667 -25 -155s-41.667 -84 -75 -116c-32.667 -32.667 -69.334 -56.834 -110.001 -72.501s-84.667 -23.5 -132 -23.5c-56 0 -105.333 9.16699 -148 27.5s-78.667 45.833 -108 82.5c-28.667 37.333 -50.334 76.666 -65.001 117.999s-22 85 -22 131v2v0z
M145 347.003c0 -42.667 5.49902 -80.832 16.499 -114.499s27.833 -63.167 50.5 -88.5c22.667 -26 48.667 -45.333 78 -58s62.333 -19 99 -19c32.667 0 63.167 5.83301 91.5 17.5s54.833 29.167 79.5 52.5s43.167 53.166 55.5 89.499s18.5 79.166 18.5 128.499
c0 51.333 -6.33301 95.5 -19 132.5s-31.667 66.833 -57 89.5c-24.667 22.667 -51 39.667 -79 51s-57.333 17 -88 17c-18.667 0 -37.334 -2.16699 -56.001 -6.5s-36.667 -10.5 -54 -18.5c-18 -8 -34 -18 -48 -30s-26.333 -25.667 -37 -41c-4 -5.33301 -7.66699 -11 -11 -17
s-6.33301 -12 -9 -18c-1.33301 -2.66699 -2.66602 -5.66699 -3.99902 -9s-2.66602 -6.33301 -3.99902 -9c-0.666992 -3.33301 -1.5 -6.5 -2.5 -9.5s-2.16699 -6.16699 -3.5 -9.5c-4.66699 -14.667 -8.16699 -28.667 -10.5 -42s-3.83301 -26.666 -4.5 -39.999
c-0.666992 -12.667 -1.16699 -23.167 -1.5 -31.5s-0.5 -14.5 -0.5 -18.5v2v0zM390.999 844.005l-56 -83h-100l106 137h93l110 -137h-100l-53 83v0v0z" />
    <glyph glyph-name="Otilde" unicode="&#xd5;" horiz-adv-x="778" 
d="M47 349c0 62.667 8.5 117.67 25.5 165.003s42.5 86.666 76.5 117.999s71 54.833 111 70.5s83.333 23.5 130 23.5c48.667 0 93.334 -8.16699 134.001 -24.5s77.334 -41.166 110.001 -74.499c32.667 -32.667 57.167 -71.834 73.5 -117.501s24.5 -97.167 24.5 -154.5
c0 -58 -8.33301 -109.667 -25 -155s-41.667 -84 -75 -116c-32.667 -32.667 -69.334 -56.834 -110.001 -72.501s-84.667 -23.5 -132 -23.5c-56 0 -105.333 9.16699 -148 27.5s-78.667 45.833 -108 82.5c-28.667 37.333 -50.334 76.666 -65.001 117.999s-22 85 -22 131v2v0z
M145 347.003c0 -42.667 5.49902 -80.832 16.499 -114.499s27.833 -63.167 50.5 -88.5c22.667 -26 48.667 -45.333 78 -58s62.333 -19 99 -19c32.667 0 63.167 5.83301 91.5 17.5s54.833 29.167 79.5 52.5s43.167 53.166 55.5 89.499s18.5 79.166 18.5 128.499
c0 51.333 -6.33301 95.5 -19 132.5s-31.667 66.833 -57 89.5c-24.667 22.667 -51 39.667 -79 51s-57.333 17 -88 17c-18.667 0 -37.334 -2.16699 -56.001 -6.5s-36.667 -10.5 -54 -18.5c-18 -8 -34 -18 -48 -30s-26.333 -25.667 -37 -41c-4 -5.33301 -7.66699 -11 -11 -17
s-6.33301 -12 -9 -18c-1.33301 -2.66699 -2.66602 -5.66699 -3.99902 -9s-2.66602 -6.33301 -3.99902 -9c-0.666992 -3.33301 -1.5 -6.5 -2.5 -9.5s-2.16699 -6.16699 -3.5 -9.5c-4.66699 -14.667 -8.16699 -28.667 -10.5 -42s-3.83301 -26.666 -4.5 -39.999
c-0.666992 -12.667 -1.16699 -23.167 -1.5 -31.5s-0.5 -14.5 -0.5 -18.5v2v0zM488.999 887.005l64 0.00390625c-0.666992 -16.667 -2.5 -30.834 -5.5 -42.501s-7.16699 -21.167 -12.5 -28.5c-4.66699 -8 -9.83398 -14.5 -15.501 -19.5s-11.5 -9.16699 -17.5 -12.5
c-4.66699 -2.66699 -9.16699 -4.83398 -13.5 -6.50098s-8.5 -2.83398 -12.5 -3.50098s-7.66699 -1 -11 -1h-8c-4.66699 0 -9.5 0.333008 -14.5 1s-10.5 2 -16.5 4c-6 1.33301 -12.5 3.5 -19.5 6.5s-14.167 6.83301 -21.5 11.5l-18 12c-5.33301 2 -10 3.83301 -14 5.5
s-7.66699 2.83398 -11 3.50098c-2.66699 0.666992 -5.16699 1.16699 -7.5 1.5s-4.5 0.5 -6.5 0.5h-1h-1c-0.666992 -0.666992 -1.33398 -1 -2.00098 -1h-3c-0.666992 0 -1.5 -0.166992 -2.5 -0.5s-1.83301 -0.5 -2.5 -0.5l-3 -1.5l-3 -1.5c-2.66699 -1.33301 -5 -3 -7 -5
s-4 -4.66699 -6 -8c-2 -2.66699 -3.5 -6.33398 -4.5 -11.001s-1.5 -10 -1.5 -16v0v0v-1v0v0v0v0v0v-1v0v0v0l-65 2c-0.666992 17.333 1.33301 33 6 47s12 25.333 22 34c10 9.33301 20.5 16.333 31.5 21s22.5 7.33398 34.5 8.00098h0.5h1.5h1.5h1.5h3.5h2.5h2h2
c0 -0.666992 0.333008 -1 1 -1h2c3.33301 -0.666992 7 -1.5 11 -2.5s8 -2.16699 12 -3.5l14.5 -5c5.66699 -2 11.834 -4.66699 18.501 -8c9.33301 -4.66699 17 -8.33398 23 -11.001s10.667 -4.66699 14 -6c3.33301 -0.666992 6.5 -1.5 9.5 -2.5s5.83301 -1.5 8.5 -1.5h0.5
h1.5h1.5h1.5c5.33301 0 9.83301 0.666992 13.5 2s6.83398 3.33301 9.50098 6c3.33301 3.33301 6 7.66602 8 12.999s3.33301 12.333 4 21v2v0z" />
    <glyph glyph-name="Odieresis" unicode="&#xd6;" horiz-adv-x="778" 
d="M47 349c0 62.667 8.5 117.67 25.5 165.003s42.5 86.666 76.5 117.999s71 54.833 111 70.5s83.333 23.5 130 23.5c48.667 0 93.334 -8.16699 134.001 -24.5s77.334 -41.166 110.001 -74.499c32.667 -32.667 57.167 -71.834 73.5 -117.501s24.5 -97.167 24.5 -154.5
c0 -58 -8.33301 -109.667 -25 -155s-41.667 -84 -75 -116c-32.667 -32.667 -69.334 -56.834 -110.001 -72.501s-84.667 -23.5 -132 -23.5c-56 0 -105.333 9.16699 -148 27.5s-78.667 45.833 -108 82.5c-28.667 37.333 -50.334 76.666 -65.001 117.999s-22 85 -22 131v2v0z
M145 347.003c0 -42.667 5.49902 -80.832 16.499 -114.499s27.833 -63.167 50.5 -88.5c22.667 -26 48.667 -45.333 78 -58s62.333 -19 99 -19c32.667 0 63.167 5.83301 91.5 17.5s54.833 29.167 79.5 52.5s43.167 53.166 55.5 89.499s18.5 79.166 18.5 128.499
c0 51.333 -6.33301 95.5 -19 132.5s-31.667 66.833 -57 89.5c-24.667 22.667 -51 39.667 -79 51s-57.333 17 -88 17c-18.667 0 -37.334 -2.16699 -56.001 -6.5s-36.667 -10.5 -54 -18.5c-18 -8 -34 -18 -48 -30s-26.333 -25.667 -37 -41c-4 -5.33301 -7.66699 -11 -11 -17
s-6.33301 -12 -9 -18c-1.33301 -2.66699 -2.66602 -5.66699 -3.99902 -9s-2.66602 -6.33301 -3.99902 -9c-0.666992 -3.33301 -1.5 -6.5 -2.5 -9.5s-2.16699 -6.16699 -3.5 -9.5c-4.66699 -14.667 -8.16699 -28.667 -10.5 -42s-3.83301 -26.666 -4.5 -39.999
c-0.666992 -12.667 -1.16699 -23.167 -1.5 -31.5s-0.5 -14.5 -0.5 -18.5v2v0zM253.999 781.005v100h90v-100h-90v0v0zM434.999 781.005v100h90v-100h-90v0v0z" />
    <glyph glyph-name="multiply" unicode="&#xd7;" 
 />
    <glyph glyph-name="Oslash" unicode="&#xd8;" horiz-adv-x="778" 
d="M611 650l82.0039 91.9951l49 -41l-86 -96c1.33301 -3.33301 2.83301 -6.33301 4.5 -9s3.16699 -5.33398 4.5 -8.00098s2.83301 -5.16699 4.5 -7.5l5.5 -7.5c7.33301 -11.333 14.166 -24 20.499 -38s12.5 -29.667 18.5 -47c6 -16.667 10.5 -36 13.5 -58
s4.5 -46.667 4.5 -74c0 -60 -8.5 -113 -25.5 -159s-42.5 -84.667 -76.5 -116s-70.833 -54.666 -110.5 -69.999s-82.167 -23 -127.5 -23c-24 0 -45.5 1.33301 -64.5 4s-36.167 6.33398 -51.5 11.001c-14.667 5.33301 -28.334 11.333 -41.001 18s-24 13.334 -34 20.001
c-2.66699 1.33301 -5.33398 2.83301 -8.00098 4.5s-5 3.5 -7 5.5c-2.66699 1.33301 -5.16699 2.83301 -7.5 4.5s-4.5 3.5 -6.5 5.5l-82 -90l-49 41l86 96c-0.666992 0 -1.33398 0.5 -2.00098 1.5s-1.33398 1.83301 -2.00098 2.5s-1.16699 1.33398 -1.5 2.00098
s-0.5 1.33398 -0.5 2.00098c-0.666992 0 -1.16699 0.333008 -1.5 1s-0.833008 1.33398 -1.5 2.00098c-9.33301 15.333 -18.166 31 -26.499 47s-16.166 32.333 -23.499 49c-6.66699 17.333 -11.834 37.666 -15.501 60.999s-5.5 49.333 -5.5 78
c0 55.333 7.83301 105.333 23.5 150s38.834 84.334 69.501 119.001c31.333 34 67.833 59.667 109.5 77s88.834 26 141.501 26c23.333 0 44.666 -1.5 63.999 -4.5s36.333 -7.5 51 -13.5c15.333 -6 29.166 -12 41.499 -18s23.5 -12.667 33.5 -20c2.66699 -2 5.16699 -4 7.5 -6
s4.83301 -4 7.5 -6l7.5 -5.5c2.33301 -1.66699 4.83301 -3.16699 7.5 -4.5v2v0zM593.004 533.995l-362.998 -406.002c2 -2.66699 4 -5 6 -7s4.33301 -4 7 -6c1.33301 -0.666992 2.5 -1.5 3.5 -2.5s2.16699 -1.83301 3.5 -2.5c1.33301 -1.33301 2.66602 -2.33301 3.99902 -3
s2.66602 -1.66699 3.99902 -3c7.33301 -4.66699 15.333 -9.16699 24 -13.5s18.334 -8.5 29.001 -12.5s22.5 -6.83301 35.5 -8.5s27.167 -2.5 42.5 -2.5c35.333 0 67.666 6.16699 96.999 18.5s55.333 30.833 78 55.5c23.333 25.333 40.833 55.5 52.5 90.5
s17.5 75.5 17.5 121.5c0 18.667 -1 36.334 -3 53.001s-4.66699 32.334 -8 47.001c-4 14.667 -8.5 28.5 -13.5 41.5s-10.5 25.5 -16.5 37.5v2v0zM189.006 176.993l362.999 408.001c-0.666992 -0.666992 -1.16699 -1 -1.5 -1s-0.833008 0.333008 -1.5 1
c-0.666992 0 -1.16699 0.166992 -1.5 0.5s-0.5 0.833008 -0.5 1.5c-10 7.33301 -20.167 14.333 -30.5 21s-21.166 13 -32.499 19c-10.667 6 -23.834 10.5 -39.501 13.5s-33.5 4.5 -53.5 4.5c-5.33301 0 -10.833 -0.166992 -16.5 -0.5s-11.5 -0.833008 -17.5 -1.5
s-12 -1.66699 -18 -3s-11.667 -2.66602 -17 -3.99902c-22.667 -6 -44.167 -15.833 -64.5 -29.5s-39.5 -31.167 -57.5 -52.5c-18.667 -20.667 -32.5 -47.5 -41.5 -80.5s-13.5 -72.167 -13.5 -117.5c0 -22.667 1 -42.667 3 -60s5 -32.333 9 -45s8.33301 -24.5 13 -35.5
s9.33398 -21.167 14.001 -30.5c0 -0.666992 0.166992 -1.5 0.5 -2.5s0.833008 -2.16699 1.5 -3.5c0.666992 -0.666992 1.16699 -1.33398 1.5 -2.00098s0.833008 -1.33398 1.5 -2.00098v2v0z" />
    <glyph glyph-name="Ugrave" unicode="&#xd9;" horiz-adv-x="722" 
d="M547 716h94.999v-414c0 -9.33301 -0.166992 -19.333 -0.5 -30s-0.833008 -22 -1.5 -34c0 -6 -0.333008 -12 -1 -18s-1.66699 -12 -3 -18c-0.666992 -6.66699 -1.66699 -13 -3 -19l-4 -18c-6 -22.667 -15.333 -44.167 -28 -64.5s-28.667 -39.833 -48 -58.5
c-18.667 -18.667 -44 -32.334 -76 -41.001s-70.333 -13 -115 -13c-51.333 0 -94.5 5.33301 -129.5 16s-61.833 27 -80.5 49s-33.667 45.333 -45 70s-18.666 50.334 -21.999 77.001c-1.33301 8.66699 -2.5 17.167 -3.5 25.5s-1.5 16.833 -1.5 25.5
c-0.666992 8.66699 -1 17 -1 25v24v416h95v-413v-21v-21c0 -6.66699 0.5 -13.5 1.5 -20.5s1.83301 -14.167 2.5 -21.5c2.66699 -18.667 7.5 -36.5 14.5 -53.5s16.5 -33.167 28.5 -48.5s29 -26.833 51 -34.5s49.333 -11.5 82 -11.5c44 0 79.5 5.5 106.5 16.5
s45.5 27.5 55.5 49.5s17.667 46.667 23 74s8 57.333 8 90v415v0v0zM351.999 898l65 -137h-72l-108 137h115v0v0z" />
    <glyph glyph-name="Uacute" unicode="&#xda;" horiz-adv-x="722" 
d="M547 716h94.999v-414c0 -9.33301 -0.166992 -19.333 -0.5 -30s-0.833008 -22 -1.5 -34c0 -6 -0.333008 -12 -1 -18s-1.66699 -12 -3 -18c-0.666992 -6.66699 -1.66699 -13 -3 -19l-4 -18c-6 -22.667 -15.333 -44.167 -28 -64.5s-28.667 -39.833 -48 -58.5
c-18.667 -18.667 -44 -32.334 -76 -41.001s-70.333 -13 -115 -13c-51.333 0 -94.5 5.33301 -129.5 16s-61.833 27 -80.5 49s-33.667 45.333 -45 70s-18.666 50.334 -21.999 77.001c-1.33301 8.66699 -2.5 17.167 -3.5 25.5s-1.5 16.833 -1.5 25.5
c-0.666992 8.66699 -1 17 -1 25v24v416h95v-413v-21v-21c0 -6.66699 0.5 -13.5 1.5 -20.5s1.83301 -14.167 2.5 -21.5c2.66699 -18.667 7.5 -36.5 14.5 -53.5s16.5 -33.167 28.5 -48.5s29 -26.833 51 -34.5s49.333 -11.5 82 -11.5c44 0 79.5 5.5 106.5 16.5
s45.5 27.5 55.5 49.5s17.667 46.667 23 74s8 57.333 8 90v415v0v0zM305.999 761l65 137h115l-108 -137h-72v0v0z" />
    <glyph glyph-name="Ucircumflex" unicode="&#xdb;" horiz-adv-x="722" 
d="M547 716h94.999v-414c0 -9.33301 -0.166992 -19.333 -0.5 -30s-0.833008 -22 -1.5 -34c0 -6 -0.333008 -12 -1 -18s-1.66699 -12 -3 -18c-0.666992 -6.66699 -1.66699 -13 -3 -19l-4 -18c-6 -22.667 -15.333 -44.167 -28 -64.5s-28.667 -39.833 -48 -58.5
c-18.667 -18.667 -44 -32.334 -76 -41.001s-70.333 -13 -115 -13c-51.333 0 -94.5 5.33301 -129.5 16s-61.833 27 -80.5 49s-33.667 45.333 -45 70s-18.666 50.334 -21.999 77.001c-1.33301 8.66699 -2.5 17.167 -3.5 25.5s-1.5 16.833 -1.5 25.5
c-0.666992 8.66699 -1 17 -1 25v24v416h95v-413v-21v-21c0 -6.66699 0.5 -13.5 1.5 -20.5s1.83301 -14.167 2.5 -21.5c2.66699 -18.667 7.5 -36.5 14.5 -53.5s16.5 -33.167 28.5 -48.5s29 -26.833 51 -34.5s49.333 -11.5 82 -11.5c44 0 79.5 5.5 106.5 16.5
s45.5 27.5 55.5 49.5s17.667 46.667 23 74s8 57.333 8 90v415v0v0zM362.999 844l-56 -83h-100l106 137h93l110 -137h-100l-53 83v0v0z" />
    <glyph glyph-name="Udieresis" unicode="&#xdc;" horiz-adv-x="722" 
d="M547 716h94.999v-414c0 -9.33301 -0.166992 -19.333 -0.5 -30s-0.833008 -22 -1.5 -34c0 -6 -0.333008 -12 -1 -18s-1.66699 -12 -3 -18c-0.666992 -6.66699 -1.66699 -13 -3 -19l-4 -18c-6 -22.667 -15.333 -44.167 -28 -64.5s-28.667 -39.833 -48 -58.5
c-18.667 -18.667 -44 -32.334 -76 -41.001s-70.333 -13 -115 -13c-51.333 0 -94.5 5.33301 -129.5 16s-61.833 27 -80.5 49s-33.667 45.333 -45 70s-18.666 50.334 -21.999 77.001c-1.33301 8.66699 -2.5 17.167 -3.5 25.5s-1.5 16.833 -1.5 25.5
c-0.666992 8.66699 -1 17 -1 25v24v416h95v-413v-21v-21c0 -6.66699 0.5 -13.5 1.5 -20.5s1.83301 -14.167 2.5 -21.5c2.66699 -18.667 7.5 -36.5 14.5 -53.5s16.5 -33.167 28.5 -48.5s29 -26.833 51 -34.5s49.333 -11.5 82 -11.5c44 0 79.5 5.5 106.5 16.5
s45.5 27.5 55.5 49.5s17.667 46.667 23 74s8 57.333 8 90v415v0v0zM225.999 781v100h90v-100h-90v0v0zM406.999 781v100h90v-100h-90v0v0z" />
    <glyph glyph-name="Yacute" unicode="&#xdd;" 
 />
    <glyph glyph-name="Thorn" unicode="&#xde;" horiz-adv-x="667" 
d="M77 0l0.00488281 715.993h95v-145h175c7.33301 -1.33301 14.5 -2.16602 21.5 -2.49902s14.5 -0.5 22.5 -0.5s16 -0.166992 24 -0.5s16 -1.16602 24 -2.49902c5.33301 -0.666992 10.5 -1.5 15.5 -2.5s10.167 -2.16699 15.5 -3.5
c4.66699 -1.33301 9.66699 -2.66602 15 -3.99902s10.333 -2.66602 15 -3.99902c10 -3.33301 19.5 -7.5 28.5 -12.5s17.5 -10.833 25.5 -17.5c9.33301 -8 17.666 -16.5 24.999 -25.5s13.666 -18.833 18.999 -29.5s9.83301 -21.167 13.5 -31.5s6.5 -21.166 8.5 -32.499
c0 -3.33301 0.166992 -6.66602 0.5 -9.99902s0.833008 -6.66602 1.5 -9.99902v-5.5c0 -1.66699 0.333008 -3.16699 1 -4.5v-5.5v-4.5c0 -14.667 -1.16699 -29 -3.5 -43s-5.83301 -28 -10.5 -42s-10.834 -27 -18.501 -39s-16.834 -23.333 -27.501 -34
c-6.66699 -6.66699 -13.834 -12.667 -21.501 -18s-16.167 -10 -25.5 -14l-13.5 -6c-4.33301 -2 -8.5 -3.66699 -12.5 -5l-13.5 -4l-13.5 -4c-8.66699 -2 -17.5 -3.66699 -26.5 -5s-17.833 -2.33301 -26.5 -3s-16.667 -1.16699 -24 -1.5s-14.333 -0.5 -21 -0.5l-193 2v-145
h-95v0v0zM172.005 485.993l-0.000976562 -256.002h184c4.66699 -1.33301 9.66699 -2 15 -2s11.333 0.333008 18 1c6 0 12.333 0.5 19 1.5s13.334 2.5 20.001 4.5c12 3.33301 23.667 8 35 14s22 13.333 32 22c10 9.33301 17.5 21.166 22.5 35.499s7.5 31.833 7.5 52.5
c0 3.33301 -0.166992 6.5 -0.5 9.5s-0.833008 6.16699 -1.5 9.5s-1.16699 6.83301 -1.5 10.5s-1.16602 7.5 -2.49902 11.5c-1.33301 4.66699 -3 9.33398 -5 14.001s-4.33301 9.33398 -7 14.001s-5.83398 9.16699 -9.50098 13.5s-7.5 8.5 -11.5 12.5
c-8.66699 7.33301 -17.667 13.333 -27 18s-19.333 7.33398 -30 8.00098c-10.667 1.33301 -22.167 2.33301 -34.5 3s-25.833 1 -40.5 1l-182 2v0v0z" />
    <glyph glyph-name="germandbls" unicode="&#xdf;" horiz-adv-x="611" 
d="M72 0l0.00585938 487.004c0 14 0.333008 27.5 1 40.5s2 24.833 4 35.5c1.33301 11.333 3.5 22 6.5 32s6.5 19.333 10.5 28c6 14 13.667 26.333 23 37s20.333 20 33 28c12 8 24.5 14.667 37.5 20s26.5 9.33301 40.5 12c4 1.33301 8.16699 2.16602 12.5 2.49902
s8.83301 0.833008 13.5 1.5s9.16699 1.16699 13.5 1.5s8.83301 0.5 13.5 0.5c29.333 0 55.166 -3.66699 77.499 -11s41.166 -18.333 56.499 -33s27 -30 35 -46s12 -32.667 12 -50c0 -4.66699 -0.166992 -9.33398 -0.5 -14.001s-0.833008 -9 -1.5 -13
c-0.666992 -2 -1.16699 -4 -1.5 -6s-0.833008 -4 -1.5 -6c-0.666992 -2.66699 -1.33398 -5 -2.00098 -7l-2 -6c-2 -6.66699 -4.5 -13.167 -7.5 -19.5s-6.5 -13.166 -10.5 -20.499c-4 -6.66699 -8 -13.834 -12 -21.501s-8.66699 -15.834 -14 -24.501
c-2.66699 -5.33301 -5.5 -10.666 -8.5 -15.999s-5.5 -10.666 -7.5 -15.999s-3.5 -10.5 -4.5 -15.5s-1.5 -9.5 -1.5 -13.5c0 -3.33301 0.166992 -6.5 0.5 -9.5s0.833008 -5.83301 1.5 -8.5c1.33301 -2.66699 2.66602 -5.16699 3.99902 -7.5s3 -4.83301 5 -7.5
c3.33301 -4 7.16602 -8 11.499 -12s9.83301 -8.33301 16.5 -13c6 -4.66699 13.333 -9.66699 22 -15l29 -18c14.667 -9.33301 28 -19 40 -29s22.667 -20.667 32 -32c9.33301 -10.667 16.333 -23.167 21 -37.5s7 -30.166 7 -47.499c0 -21.333 -4.16699 -41.5 -12.5 -60.5
s-20.5 -36.833 -36.5 -53.5s-34.833 -28.834 -56.5 -36.501s-46.167 -11.5 -73.5 -11.5c-18 0 -34.333 1.66699 -49 5s-28 8 -40 14c-12 7.33301 -22.5 14.833 -31.5 22.5s-17.167 15.834 -24.5 24.501c-4 4 -7.66699 8.16699 -11 12.5s-6.33301 8.83301 -9 13.5
c-2.66699 4 -5 8 -7 12s-3.66699 7.66699 -5 11l76 37c9.33301 -18 18.333 -32.5 27 -43.5s17.334 -19.167 26.001 -24.5c8 -4.66699 16 -8.16699 24 -10.5s15.667 -3.5 23 -3.5c12 0 23.333 2 34 6s20.334 10.333 29.001 19c9.33301 8.66699 16.166 18 20.499 28
s6.5 20.667 6.5 32c0 4 -0.166992 8 -0.5 12s-1.16602 7.33301 -2.49902 10c-0.666992 1.33301 -1.33398 2.83301 -2.00098 4.5s-1.33398 3.5 -2.00098 5.5c-0.666992 1.33301 -1.33398 2.83301 -2.00098 4.5s-1.66699 3.16699 -3 4.5c-2.66699 4 -6.5 8.5 -11.5 13.5
s-11.167 9.83301 -18.5 14.5c-6.66699 5.33301 -14.667 11.166 -24 17.499l-32 21.5c-22 15.333 -39.667 29.166 -53 41.499s-22 23.5 -26 33.5c-4.66699 9.33301 -8 18 -10 26s-3 15 -3 21v4v5c0 1.33301 0.166992 2.66602 0.5 3.99902s0.5 2.66602 0.5 3.99902
c0 2.66699 0.5 5.33398 1.5 8.00098s1.83301 5.33398 2.5 8.00098c1.33301 5.33301 3 10.5 5 15.5s4.33301 9.83301 7 14.5c2.66699 5.33301 5.5 10.666 8.5 15.999l10.5 18c6.66699 11.333 12.5 21.666 17.5 30.999s9.5 18.333 13.5 27s7 17 9 25s3 16 3 24
c0 10.667 -2.33301 20.5 -7 29.5s-11.667 17.167 -21 24.5s-19.833 12.833 -31.5 16.5s-24.5 5.5 -38.5 5.5c-21.333 0 -39.333 -3 -54 -9s-26 -15 -34 -27s-14.333 -24.667 -19 -38s-7.66699 -27 -9 -41c-0.666992 -4.66699 -1.16699 -9.5 -1.5 -14.5
s-0.5 -10.167 -0.5 -15.5v-14v-13v-481h-88v0v0z" />
    <glyph glyph-name="agrave" unicode="&#xe0;" horiz-adv-x="556" 
d="M139 359l-86.0039 10.9971c1.33301 3.33301 2.5 7.5 3.5 12.5s2.5 10.833 4.5 17.5c1.33301 6 3.5 12.333 6.5 19s6.83301 13.334 11.5 20.001c6.66699 11.333 15.5 22 26.5 32s24.5 19.667 40.5 29c15.333 9.33301 34.833 16.333 58.5 21s51.167 7 82.5 7
c44 0 79.833 -4.16699 107.5 -12.5s46.834 -20.833 57.501 -37.5c11.333 -16.667 20 -34.334 26 -53.001s9.33301 -38 10 -58v-4v-4v-5v-4v-8.5v-8.5v-116c0 -29.333 0.166992 -54.666 0.5 -75.999s0.833008 -38.666 1.5 -51.999s2.33398 -26 5.00098 -38
s6.33398 -23 11.001 -33c0.666992 -2 1.33398 -3.83301 2.00098 -5.5s1.33398 -3.16699 2.00098 -4.5c1.33301 -2 2.5 -3.66699 3.5 -5s1.83301 -2.33301 2.5 -3h-92c-3.33301 5.33301 -6 11 -8 17s-3.66699 12 -5 18c-0.666992 5.33301 -1.5 10.333 -2.5 15l-2.5 12
c-18.667 -16 -36.5 -29 -53.5 -39s-33.167 -17.333 -48.5 -22c-16 -4 -31.333 -7.16699 -46 -9.5s-29 -3.5 -43 -3.5c-28.667 0 -53.834 3.33301 -75.501 10s-40.167 17 -55.5 31s-26.833 29.833 -34.5 47.5s-11.5 37.167 -11.5 58.5s2.83301 40 8.5 56s14.5 29.333 26.5 40
c12 11.333 24.5 21 37.5 29s26.5 14.333 40.5 19c8.66699 2.66699 17.167 5 25.5 7s16.5 3.66699 24.5 5s15.5 2.5 22.5 3.5s13.167 1.83301 18.5 2.5c2 0 5.83301 0.5 11.5 1.5s13.167 1.83301 22.5 2.5c9.33301 1.33301 19 2.83301 29 4.5s20.333 3.5 31 5.5
c5.33301 1.33301 10.833 2.5 16.5 3.5s11.5 2.16699 17.5 3.5l15.5 4c5 1.33301 9.83301 3 14.5 5v4.5v5.5v3v3v2.5v2.5v1.5v1.5v0.5v1.5v1.5v1.5v0.5v1.5c-0.666992 12 -3.16699 23.667 -7.5 35s-10.166 22 -17.499 32s-19.5 17.667 -36.5 23s-38.5 8 -64.5 8
c-22.667 0 -41.667 -2 -57 -6s-27.333 -9.66699 -36 -17c-8.66699 -8 -15.834 -16.167 -21.501 -24.5s-10.167 -17.166 -13.5 -26.499c-0.666992 -0.666992 -1.16699 -1.66699 -1.5 -3s-0.5 -2.33301 -0.5 -3c-0.666992 -1.33301 -1.16699 -2.5 -1.5 -3.5
s-0.5 -2.16699 -0.5 -3.5c-0.666992 -2 -1.16699 -4 -1.5 -6s-0.833008 -4 -1.5 -6v2v0zM399.996 227.997v31.9971c-5.33301 -3.33301 -11.333 -6 -18 -8l-21 -6l-24 -6c-8 -2 -16 -3.66699 -24 -5c-4.66699 -0.666992 -9.5 -1.5 -14.5 -2.5s-10.167 -2.16699 -15.5 -3.5
l-14.5 -2c-5 -0.666992 -9.5 -1.33398 -13.5 -2.00098c-2.66699 -0.666992 -5.16699 -1.16699 -7.5 -1.5s-4.83301 -0.5 -7.5 -0.5c-2.66699 -0.666992 -5.16699 -1.16699 -7.5 -1.5s-4.83301 -0.833008 -7.5 -1.5c-12 -2 -23.333 -5 -34 -9s-20.667 -8.66699 -30 -14
c-10 -6 -17.333 -14 -22 -24s-7 -22 -7 -36v-4.5v-4.5c0 -1.33301 0.166992 -2.66602 0.5 -3.99902s0.833008 -2.66602 1.5 -3.99902c1.33301 -8 4.33301 -15.667 9 -23s11 -14.666 19 -21.999c8 -6.66699 18.167 -11.667 30.5 -15s26.833 -5 43.5 -5
c4 0 8.83301 0.333008 14.5 1s11.834 1.33398 18.501 2.00098c7.33301 1.33301 14.666 3 21.999 5s15 4.66699 23 8c4 1.33301 8 3.16602 12 5.49902s8 4.83301 12 7.5c2 1.33301 4 2.83301 6 4.5s4 3.16699 6 4.5c1.33301 2 3 3.83301 5 5.5s4 3.5 6 5.5
c8.66699 9.33301 15.667 19 21 29s9 20 11 30s3.66699 20.333 5 31s2 21.334 2 32.001v2v0zM268.996 727.994l65 -137h-72l-108 137h115v0v0z" />
    <glyph glyph-name="aacute" unicode="&#xe1;" horiz-adv-x="556" 
d="M139 359l-86.0039 10.9971c1.33301 3.33301 2.5 7.5 3.5 12.5s2.5 10.833 4.5 17.5c1.33301 6 3.5 12.333 6.5 19s6.83301 13.334 11.5 20.001c6.66699 11.333 15.5 22 26.5 32s24.5 19.667 40.5 29c15.333 9.33301 34.833 16.333 58.5 21s51.167 7 82.5 7
c44 0 79.833 -4.16699 107.5 -12.5s46.834 -20.833 57.501 -37.5c11.333 -16.667 20 -34.334 26 -53.001s9.33301 -38 10 -58v-4v-4v-5v-4v-8.5v-8.5v-116c0 -29.333 0.166992 -54.666 0.5 -75.999s0.833008 -38.666 1.5 -51.999s2.33398 -26 5.00098 -38
s6.33398 -23 11.001 -33c0.666992 -2 1.33398 -3.83301 2.00098 -5.5s1.33398 -3.16699 2.00098 -4.5c1.33301 -2 2.5 -3.66699 3.5 -5s1.83301 -2.33301 2.5 -3h-92c-3.33301 5.33301 -6 11 -8 17s-3.66699 12 -5 18c-0.666992 5.33301 -1.5 10.333 -2.5 15l-2.5 12
c-18.667 -16 -36.5 -29 -53.5 -39s-33.167 -17.333 -48.5 -22c-16 -4 -31.333 -7.16699 -46 -9.5s-29 -3.5 -43 -3.5c-28.667 0 -53.834 3.33301 -75.501 10s-40.167 17 -55.5 31s-26.833 29.833 -34.5 47.5s-11.5 37.167 -11.5 58.5s2.83301 40 8.5 56s14.5 29.333 26.5 40
c12 11.333 24.5 21 37.5 29s26.5 14.333 40.5 19c8.66699 2.66699 17.167 5 25.5 7s16.5 3.66699 24.5 5s15.5 2.5 22.5 3.5s13.167 1.83301 18.5 2.5c2 0 5.83301 0.5 11.5 1.5s13.167 1.83301 22.5 2.5c9.33301 1.33301 19 2.83301 29 4.5s20.333 3.5 31 5.5
c5.33301 1.33301 10.833 2.5 16.5 3.5s11.5 2.16699 17.5 3.5l15.5 4c5 1.33301 9.83301 3 14.5 5v4.5v5.5v3v3v2.5v2.5v1.5v1.5v0.5v1.5v1.5v1.5v0.5v1.5c-0.666992 12 -3.16699 23.667 -7.5 35s-10.166 22 -17.499 32s-19.5 17.667 -36.5 23s-38.5 8 -64.5 8
c-22.667 0 -41.667 -2 -57 -6s-27.333 -9.66699 -36 -17c-8.66699 -8 -15.834 -16.167 -21.501 -24.5s-10.167 -17.166 -13.5 -26.499c-0.666992 -0.666992 -1.16699 -1.66699 -1.5 -3s-0.5 -2.33301 -0.5 -3c-0.666992 -1.33301 -1.16699 -2.5 -1.5 -3.5
s-0.5 -2.16699 -0.5 -3.5c-0.666992 -2 -1.16699 -4 -1.5 -6s-0.833008 -4 -1.5 -6v2v0zM399.996 227.997v31.9971c-5.33301 -3.33301 -11.333 -6 -18 -8l-21 -6l-24 -6c-8 -2 -16 -3.66699 -24 -5c-4.66699 -0.666992 -9.5 -1.5 -14.5 -2.5s-10.167 -2.16699 -15.5 -3.5
l-14.5 -2c-5 -0.666992 -9.5 -1.33398 -13.5 -2.00098c-2.66699 -0.666992 -5.16699 -1.16699 -7.5 -1.5s-4.83301 -0.5 -7.5 -0.5c-2.66699 -0.666992 -5.16699 -1.16699 -7.5 -1.5s-4.83301 -0.833008 -7.5 -1.5c-12 -2 -23.333 -5 -34 -9s-20.667 -8.66699 -30 -14
c-10 -6 -17.333 -14 -22 -24s-7 -22 -7 -36v-4.5v-4.5c0 -1.33301 0.166992 -2.66602 0.5 -3.99902s0.833008 -2.66602 1.5 -3.99902c1.33301 -8 4.33301 -15.667 9 -23s11 -14.666 19 -21.999c8 -6.66699 18.167 -11.667 30.5 -15s26.833 -5 43.5 -5
c4 0 8.83301 0.333008 14.5 1s11.834 1.33398 18.501 2.00098c7.33301 1.33301 14.666 3 21.999 5s15 4.66699 23 8c4 1.33301 8 3.16602 12 5.49902s8 4.83301 12 7.5c2 1.33301 4 2.83301 6 4.5s4 3.16699 6 4.5c1.33301 2 3 3.83301 5 5.5s4 3.5 6 5.5
c8.66699 9.33301 15.667 19 21 29s9 20 11 30s3.66699 20.333 5 31s2 21.334 2 32.001v2v0zM222.996 590.994l65 137h115l-108 -137h-72v0v0z" />
    <glyph glyph-name="acircumflex" unicode="&#xe2;" horiz-adv-x="556" 
d="M139 359l-86.0039 10.9971c1.33301 3.33301 2.5 7.5 3.5 12.5s2.5 10.833 4.5 17.5c1.33301 6 3.5 12.333 6.5 19s6.83301 13.334 11.5 20.001c6.66699 11.333 15.5 22 26.5 32s24.5 19.667 40.5 29c15.333 9.33301 34.833 16.333 58.5 21s51.167 7 82.5 7
c44 0 79.833 -4.16699 107.5 -12.5s46.834 -20.833 57.501 -37.5c11.333 -16.667 20 -34.334 26 -53.001s9.33301 -38 10 -58v-4v-4v-5v-4v-8.5v-8.5v-116c0 -29.333 0.166992 -54.666 0.5 -75.999s0.833008 -38.666 1.5 -51.999s2.33398 -26 5.00098 -38
s6.33398 -23 11.001 -33c0.666992 -2 1.33398 -3.83301 2.00098 -5.5s1.33398 -3.16699 2.00098 -4.5c1.33301 -2 2.5 -3.66699 3.5 -5s1.83301 -2.33301 2.5 -3h-92c-3.33301 5.33301 -6 11 -8 17s-3.66699 12 -5 18c-0.666992 5.33301 -1.5 10.333 -2.5 15l-2.5 12
c-18.667 -16 -36.5 -29 -53.5 -39s-33.167 -17.333 -48.5 -22c-16 -4 -31.333 -7.16699 -46 -9.5s-29 -3.5 -43 -3.5c-28.667 0 -53.834 3.33301 -75.501 10s-40.167 17 -55.5 31s-26.833 29.833 -34.5 47.5s-11.5 37.167 -11.5 58.5s2.83301 40 8.5 56s14.5 29.333 26.5 40
c12 11.333 24.5 21 37.5 29s26.5 14.333 40.5 19c8.66699 2.66699 17.167 5 25.5 7s16.5 3.66699 24.5 5s15.5 2.5 22.5 3.5s13.167 1.83301 18.5 2.5c2 0 5.83301 0.5 11.5 1.5s13.167 1.83301 22.5 2.5c9.33301 1.33301 19 2.83301 29 4.5s20.333 3.5 31 5.5
c5.33301 1.33301 10.833 2.5 16.5 3.5s11.5 2.16699 17.5 3.5l15.5 4c5 1.33301 9.83301 3 14.5 5v4.5v5.5v3v3v2.5v2.5v1.5v1.5v0.5v1.5v1.5v1.5v0.5v1.5c-0.666992 12 -3.16699 23.667 -7.5 35s-10.166 22 -17.499 32s-19.5 17.667 -36.5 23s-38.5 8 -64.5 8
c-22.667 0 -41.667 -2 -57 -6s-27.333 -9.66699 -36 -17c-8.66699 -8 -15.834 -16.167 -21.501 -24.5s-10.167 -17.166 -13.5 -26.499c-0.666992 -0.666992 -1.16699 -1.66699 -1.5 -3s-0.5 -2.33301 -0.5 -3c-0.666992 -1.33301 -1.16699 -2.5 -1.5 -3.5
s-0.5 -2.16699 -0.5 -3.5c-0.666992 -2 -1.16699 -4 -1.5 -6s-0.833008 -4 -1.5 -6v2v0zM399.996 227.997v31.9971c-5.33301 -3.33301 -11.333 -6 -18 -8l-21 -6l-24 -6c-8 -2 -16 -3.66699 -24 -5c-4.66699 -0.666992 -9.5 -1.5 -14.5 -2.5s-10.167 -2.16699 -15.5 -3.5
l-14.5 -2c-5 -0.666992 -9.5 -1.33398 -13.5 -2.00098c-2.66699 -0.666992 -5.16699 -1.16699 -7.5 -1.5s-4.83301 -0.5 -7.5 -0.5c-2.66699 -0.666992 -5.16699 -1.16699 -7.5 -1.5s-4.83301 -0.833008 -7.5 -1.5c-12 -2 -23.333 -5 -34 -9s-20.667 -8.66699 -30 -14
c-10 -6 -17.333 -14 -22 -24s-7 -22 -7 -36v-4.5v-4.5c0 -1.33301 0.166992 -2.66602 0.5 -3.99902s0.833008 -2.66602 1.5 -3.99902c1.33301 -8 4.33301 -15.667 9 -23s11 -14.666 19 -21.999c8 -6.66699 18.167 -11.667 30.5 -15s26.833 -5 43.5 -5
c4 0 8.83301 0.333008 14.5 1s11.834 1.33398 18.501 2.00098c7.33301 1.33301 14.666 3 21.999 5s15 4.66699 23 8c4 1.33301 8 3.16602 12 5.49902s8 4.83301 12 7.5c2 1.33301 4 2.83301 6 4.5s4 3.16699 6 4.5c1.33301 2 3 3.83301 5 5.5s4 3.5 6 5.5
c8.66699 9.33301 15.667 19 21 29s9 20 11 30s3.66699 20.333 5 31s2 21.334 2 32.001v2v0zM279.996 673.994l-56 -83h-100l106 137h93l110 -137h-100l-53 83v0v0z" />
    <glyph glyph-name="atilde" unicode="&#xe3;" horiz-adv-x="556" 
d="M139 359l-86.0039 10.9971c1.33301 3.33301 2.5 7.5 3.5 12.5s2.5 10.833 4.5 17.5c1.33301 6 3.5 12.333 6.5 19s6.83301 13.334 11.5 20.001c6.66699 11.333 15.5 22 26.5 32s24.5 19.667 40.5 29c15.333 9.33301 34.833 16.333 58.5 21s51.167 7 82.5 7
c44 0 79.833 -4.16699 107.5 -12.5s46.834 -20.833 57.501 -37.5c11.333 -16.667 20 -34.334 26 -53.001s9.33301 -38 10 -58v-4v-4v-5v-4v-8.5v-8.5v-116c0 -29.333 0.166992 -54.666 0.5 -75.999s0.833008 -38.666 1.5 -51.999s2.33398 -26 5.00098 -38
s6.33398 -23 11.001 -33c0.666992 -2 1.33398 -3.83301 2.00098 -5.5s1.33398 -3.16699 2.00098 -4.5c1.33301 -2 2.5 -3.66699 3.5 -5s1.83301 -2.33301 2.5 -3h-92c-3.33301 5.33301 -6 11 -8 17s-3.66699 12 -5 18c-0.666992 5.33301 -1.5 10.333 -2.5 15l-2.5 12
c-18.667 -16 -36.5 -29 -53.5 -39s-33.167 -17.333 -48.5 -22c-16 -4 -31.333 -7.16699 -46 -9.5s-29 -3.5 -43 -3.5c-28.667 0 -53.834 3.33301 -75.501 10s-40.167 17 -55.5 31s-26.833 29.833 -34.5 47.5s-11.5 37.167 -11.5 58.5s2.83301 40 8.5 56s14.5 29.333 26.5 40
c12 11.333 24.5 21 37.5 29s26.5 14.333 40.5 19c8.66699 2.66699 17.167 5 25.5 7s16.5 3.66699 24.5 5s15.5 2.5 22.5 3.5s13.167 1.83301 18.5 2.5c2 0 5.83301 0.5 11.5 1.5s13.167 1.83301 22.5 2.5c9.33301 1.33301 19 2.83301 29 4.5s20.333 3.5 31 5.5
c5.33301 1.33301 10.833 2.5 16.5 3.5s11.5 2.16699 17.5 3.5l15.5 4c5 1.33301 9.83301 3 14.5 5v4.5v5.5v3v3v2.5v2.5v1.5v1.5v0.5v1.5v1.5v1.5v0.5v1.5c-0.666992 12 -3.16699 23.667 -7.5 35s-10.166 22 -17.499 32s-19.5 17.667 -36.5 23s-38.5 8 -64.5 8
c-22.667 0 -41.667 -2 -57 -6s-27.333 -9.66699 -36 -17c-8.66699 -8 -15.834 -16.167 -21.501 -24.5s-10.167 -17.166 -13.5 -26.499c-0.666992 -0.666992 -1.16699 -1.66699 -1.5 -3s-0.5 -2.33301 -0.5 -3c-0.666992 -1.33301 -1.16699 -2.5 -1.5 -3.5
s-0.5 -2.16699 -0.5 -3.5c-0.666992 -2 -1.16699 -4 -1.5 -6s-0.833008 -4 -1.5 -6v2v0zM399.996 227.997v31.9971c-5.33301 -3.33301 -11.333 -6 -18 -8l-21 -6l-24 -6c-8 -2 -16 -3.66699 -24 -5c-4.66699 -0.666992 -9.5 -1.5 -14.5 -2.5s-10.167 -2.16699 -15.5 -3.5
l-14.5 -2c-5 -0.666992 -9.5 -1.33398 -13.5 -2.00098c-2.66699 -0.666992 -5.16699 -1.16699 -7.5 -1.5s-4.83301 -0.5 -7.5 -0.5c-2.66699 -0.666992 -5.16699 -1.16699 -7.5 -1.5s-4.83301 -0.833008 -7.5 -1.5c-12 -2 -23.333 -5 -34 -9s-20.667 -8.66699 -30 -14
c-10 -6 -17.333 -14 -22 -24s-7 -22 -7 -36v-4.5v-4.5c0 -1.33301 0.166992 -2.66602 0.5 -3.99902s0.833008 -2.66602 1.5 -3.99902c1.33301 -8 4.33301 -15.667 9 -23s11 -14.666 19 -21.999c8 -6.66699 18.167 -11.667 30.5 -15s26.833 -5 43.5 -5
c4 0 8.83301 0.333008 14.5 1s11.834 1.33398 18.501 2.00098c7.33301 1.33301 14.666 3 21.999 5s15 4.66699 23 8c4 1.33301 8 3.16602 12 5.49902s8 4.83301 12 7.5c2 1.33301 4 2.83301 6 4.5s4 3.16699 6 4.5c1.33301 2 3 3.83301 5 5.5s4 3.5 6 5.5
c8.66699 9.33301 15.667 19 21 29s9 20 11 30s3.66699 20.333 5 31s2 21.334 2 32.001v2v0zM377.996 716.994l64 0.00390625c-0.666992 -16.667 -2.5 -30.834 -5.5 -42.501s-7.16699 -21.167 -12.5 -28.5c-4.66699 -8 -9.83398 -14.5 -15.501 -19.5
s-11.5 -9.16699 -17.5 -12.5c-4.66699 -2.66699 -9.16699 -4.83398 -13.5 -6.50098s-8.5 -2.83398 -12.5 -3.50098s-7.66699 -1 -11 -1h-8c-4.66699 0 -9.5 0.333008 -14.5 1s-10.5 2 -16.5 4c-6 1.33301 -12.5 3.5 -19.5 6.5s-14.167 6.83301 -21.5 11.5l-18 12
c-5.33301 2 -10 3.83301 -14 5.5s-7.66699 2.83398 -11 3.50098c-2.66699 0.666992 -5.16699 1.16699 -7.5 1.5s-4.5 0.5 -6.5 0.5h-1h-1c-0.666992 -0.666992 -1.33398 -1 -2.00098 -1h-3c-0.666992 0 -1.5 -0.166992 -2.5 -0.5s-1.83301 -0.5 -2.5 -0.5l-3 -1.5l-3 -1.5
c-2.66699 -1.33301 -5 -3 -7 -5s-4 -4.66699 -6 -8c-2 -2.66699 -3.5 -6.33398 -4.5 -11.001s-1.5 -10 -1.5 -16v0v0v-1v0v0v0v0v0v-1v0v0v0l-65 2c-0.666992 17.333 1.33301 33 6 47s12 25.333 22 34c10 9.33301 20.5 16.333 31.5 21s22.5 7.33398 34.5 8.00098h0.5h1.5
h1.5h1.5h3.5h2.5h2h2c0 -0.666992 0.333008 -1 1 -1h2c3.33301 -0.666992 7 -1.5 11 -2.5s8 -2.16699 12 -3.5l14.5 -5c5.66699 -2 11.834 -4.66699 18.501 -8c9.33301 -4.66699 17 -8.33398 23 -11.001s10.667 -4.66699 14 -6c3.33301 -0.666992 6.5 -1.5 9.5 -2.5
s5.83301 -1.5 8.5 -1.5h0.5h1.5h1.5h1.5c5.33301 0 9.83301 0.666992 13.5 2s6.83398 3.33301 9.50098 6c3.33301 3.33301 6 7.66602 8 12.999s3.33301 12.333 4 21v2v0z" />
    <glyph glyph-name="adieresis" unicode="&#xe4;" horiz-adv-x="556" 
d="M139 359l-86.0039 10.9971c1.33301 3.33301 2.5 7.5 3.5 12.5s2.5 10.833 4.5 17.5c1.33301 6 3.5 12.333 6.5 19s6.83301 13.334 11.5 20.001c6.66699 11.333 15.5 22 26.5 32s24.5 19.667 40.5 29c15.333 9.33301 34.833 16.333 58.5 21s51.167 7 82.5 7
c44 0 79.833 -4.16699 107.5 -12.5s46.834 -20.833 57.501 -37.5c11.333 -16.667 20 -34.334 26 -53.001s9.33301 -38 10 -58v-4v-4v-5v-4v-8.5v-8.5v-116c0 -29.333 0.166992 -54.666 0.5 -75.999s0.833008 -38.666 1.5 -51.999s2.33398 -26 5.00098 -38
s6.33398 -23 11.001 -33c0.666992 -2 1.33398 -3.83301 2.00098 -5.5s1.33398 -3.16699 2.00098 -4.5c1.33301 -2 2.5 -3.66699 3.5 -5s1.83301 -2.33301 2.5 -3h-92c-3.33301 5.33301 -6 11 -8 17s-3.66699 12 -5 18c-0.666992 5.33301 -1.5 10.333 -2.5 15l-2.5 12
c-18.667 -16 -36.5 -29 -53.5 -39s-33.167 -17.333 -48.5 -22c-16 -4 -31.333 -7.16699 -46 -9.5s-29 -3.5 -43 -3.5c-28.667 0 -53.834 3.33301 -75.501 10s-40.167 17 -55.5 31s-26.833 29.833 -34.5 47.5s-11.5 37.167 -11.5 58.5s2.83301 40 8.5 56s14.5 29.333 26.5 40
c12 11.333 24.5 21 37.5 29s26.5 14.333 40.5 19c8.66699 2.66699 17.167 5 25.5 7s16.5 3.66699 24.5 5s15.5 2.5 22.5 3.5s13.167 1.83301 18.5 2.5c2 0 5.83301 0.5 11.5 1.5s13.167 1.83301 22.5 2.5c9.33301 1.33301 19 2.83301 29 4.5s20.333 3.5 31 5.5
c5.33301 1.33301 10.833 2.5 16.5 3.5s11.5 2.16699 17.5 3.5l15.5 4c5 1.33301 9.83301 3 14.5 5v4.5v5.5v3v3v2.5v2.5v1.5v1.5v0.5v1.5v1.5v1.5v0.5v1.5c-0.666992 12 -3.16699 23.667 -7.5 35s-10.166 22 -17.499 32s-19.5 17.667 -36.5 23s-38.5 8 -64.5 8
c-22.667 0 -41.667 -2 -57 -6s-27.333 -9.66699 -36 -17c-8.66699 -8 -15.834 -16.167 -21.501 -24.5s-10.167 -17.166 -13.5 -26.499c-0.666992 -0.666992 -1.16699 -1.66699 -1.5 -3s-0.5 -2.33301 -0.5 -3c-0.666992 -1.33301 -1.16699 -2.5 -1.5 -3.5
s-0.5 -2.16699 -0.5 -3.5c-0.666992 -2 -1.16699 -4 -1.5 -6s-0.833008 -4 -1.5 -6v2v0zM399.996 227.997v31.9971c-5.33301 -3.33301 -11.333 -6 -18 -8l-21 -6l-24 -6c-8 -2 -16 -3.66699 -24 -5c-4.66699 -0.666992 -9.5 -1.5 -14.5 -2.5s-10.167 -2.16699 -15.5 -3.5
l-14.5 -2c-5 -0.666992 -9.5 -1.33398 -13.5 -2.00098c-2.66699 -0.666992 -5.16699 -1.16699 -7.5 -1.5s-4.83301 -0.5 -7.5 -0.5c-2.66699 -0.666992 -5.16699 -1.16699 -7.5 -1.5s-4.83301 -0.833008 -7.5 -1.5c-12 -2 -23.333 -5 -34 -9s-20.667 -8.66699 -30 -14
c-10 -6 -17.333 -14 -22 -24s-7 -22 -7 -36v-4.5v-4.5c0 -1.33301 0.166992 -2.66602 0.5 -3.99902s0.833008 -2.66602 1.5 -3.99902c1.33301 -8 4.33301 -15.667 9 -23s11 -14.666 19 -21.999c8 -6.66699 18.167 -11.667 30.5 -15s26.833 -5 43.5 -5
c4 0 8.83301 0.333008 14.5 1s11.834 1.33398 18.501 2.00098c7.33301 1.33301 14.666 3 21.999 5s15 4.66699 23 8c4 1.33301 8 3.16602 12 5.49902s8 4.83301 12 7.5c2 1.33301 4 2.83301 6 4.5s4 3.16699 6 4.5c1.33301 2 3 3.83301 5 5.5s4 3.5 6 5.5
c8.66699 9.33301 15.667 19 21 29s9 20 11 30s3.66699 20.333 5 31s2 21.334 2 32.001v2v0zM142.996 610.994v100h90v-100h-90v0v0zM323.996 610.994v100h90v-100h-90v0v0z" />
    <glyph glyph-name="aring" unicode="&#xe5;" horiz-adv-x="556" 
d="M139 359l-86.0039 10.9971c1.33301 3.33301 2.5 7.5 3.5 12.5s2.5 10.833 4.5 17.5c1.33301 6 3.5 12.333 6.5 19s6.83301 13.334 11.5 20.001c6.66699 11.333 15.5 22 26.5 32s24.5 19.667 40.5 29c15.333 9.33301 34.833 16.333 58.5 21s51.167 7 82.5 7
c44 0 79.833 -4.16699 107.5 -12.5s46.834 -20.833 57.501 -37.5c11.333 -16.667 20 -34.334 26 -53.001s9.33301 -38 10 -58v-4v-4v-5v-4v-8.5v-8.5v-116c0 -29.333 0.166992 -54.666 0.5 -75.999s0.833008 -38.666 1.5 -51.999s2.33398 -26 5.00098 -38
s6.33398 -23 11.001 -33c0.666992 -2 1.33398 -3.83301 2.00098 -5.5s1.33398 -3.16699 2.00098 -4.5c1.33301 -2 2.5 -3.66699 3.5 -5s1.83301 -2.33301 2.5 -3h-92c-3.33301 5.33301 -6 11 -8 17s-3.66699 12 -5 18c-0.666992 5.33301 -1.5 10.333 -2.5 15l-2.5 12
c-18.667 -16 -36.5 -29 -53.5 -39s-33.167 -17.333 -48.5 -22c-16 -4 -31.333 -7.16699 -46 -9.5s-29 -3.5 -43 -3.5c-28.667 0 -53.834 3.33301 -75.501 10s-40.167 17 -55.5 31s-26.833 29.833 -34.5 47.5s-11.5 37.167 -11.5 58.5s2.83301 40 8.5 56s14.5 29.333 26.5 40
c12 11.333 24.5 21 37.5 29s26.5 14.333 40.5 19c8.66699 2.66699 17.167 5 25.5 7s16.5 3.66699 24.5 5s15.5 2.5 22.5 3.5s13.167 1.83301 18.5 2.5c2 0 5.83301 0.5 11.5 1.5s13.167 1.83301 22.5 2.5c9.33301 1.33301 19 2.83301 29 4.5s20.333 3.5 31 5.5
c5.33301 1.33301 10.833 2.5 16.5 3.5s11.5 2.16699 17.5 3.5l15.5 4c5 1.33301 9.83301 3 14.5 5v4.5v5.5v3v3v2.5v2.5v1.5v1.5v0.5v1.5v1.5v1.5v0.5v1.5c-0.666992 12 -3.16699 23.667 -7.5 35s-10.166 22 -17.499 32s-19.5 17.667 -36.5 23s-38.5 8 -64.5 8
c-22.667 0 -41.667 -2 -57 -6s-27.333 -9.66699 -36 -17c-8.66699 -8 -15.834 -16.167 -21.501 -24.5s-10.167 -17.166 -13.5 -26.499c-0.666992 -0.666992 -1.16699 -1.66699 -1.5 -3s-0.5 -2.33301 -0.5 -3c-0.666992 -1.33301 -1.16699 -2.5 -1.5 -3.5
s-0.5 -2.16699 -0.5 -3.5c-0.666992 -2 -1.16699 -4 -1.5 -6s-0.833008 -4 -1.5 -6v2v0zM399.996 227.997v31.9971c-5.33301 -3.33301 -11.333 -6 -18 -8l-21 -6l-24 -6c-8 -2 -16 -3.66699 -24 -5c-4.66699 -0.666992 -9.5 -1.5 -14.5 -2.5s-10.167 -2.16699 -15.5 -3.5
l-14.5 -2c-5 -0.666992 -9.5 -1.33398 -13.5 -2.00098c-2.66699 -0.666992 -5.16699 -1.16699 -7.5 -1.5s-4.83301 -0.5 -7.5 -0.5c-2.66699 -0.666992 -5.16699 -1.16699 -7.5 -1.5s-4.83301 -0.833008 -7.5 -1.5c-12 -2 -23.333 -5 -34 -9s-20.667 -8.66699 -30 -14
c-10 -6 -17.333 -14 -22 -24s-7 -22 -7 -36v-4.5v-4.5c0 -1.33301 0.166992 -2.66602 0.5 -3.99902s0.833008 -2.66602 1.5 -3.99902c1.33301 -8 4.33301 -15.667 9 -23s11 -14.666 19 -21.999c8 -6.66699 18.167 -11.667 30.5 -15s26.833 -5 43.5 -5
c4 0 8.83301 0.333008 14.5 1s11.834 1.33398 18.501 2.00098c7.33301 1.33301 14.666 3 21.999 5s15 4.66699 23 8c4 1.33301 8 3.16602 12 5.49902s8 4.83301 12 7.5c2 1.33301 4 2.83301 6 4.5s4 3.16699 6 4.5c1.33301 2 3 3.83301 5 5.5s4 3.5 6 5.5
c8.66699 9.33301 15.667 19 21 29s9 20 11 30s3.66699 20.333 5 31s2 21.334 2 32.001v2v0zM277.996 751.994c12 -1.33301 23.333 -4.16699 34 -8.5s20.334 -10.833 29.001 -19.5s15.167 -18.334 19.5 -29.001s6.5 -22 6.5 -34c0 -12.667 -2.16699 -24.167 -6.5 -34.5
s-10.833 -19.833 -19.5 -28.5s-18.334 -15.167 -29.001 -19.5s-22 -6.5 -34 -6.5c-12.667 0 -24.167 2.16699 -34.5 6.5s-19.5 10.833 -27.5 19.5c-8.66699 8.66699 -15 18.167 -19 28.5s-6 21.833 -6 34.5c0 12 2 23.333 6 34s10.333 20.334 19 29.001
c8 8.66699 17.167 15.167 27.5 19.5s21.833 6.5 34.5 6.5v2v0zM226.996 663.993c0 -9.33301 1.33398 -17.166 4.00098 -23.499s6.66699 -12.166 12 -17.499c5.33301 -4.66699 11 -8.33398 17 -11.001s12.333 -4 19 -4c7.33301 0 14.166 1.33301 20.499 4
s11.833 6.33398 16.5 11.001c5.33301 5.33301 9.16602 11.166 11.499 17.499s3.5 13.166 3.5 20.499s-1.16699 14 -3.5 20s-6.16602 11.667 -11.499 17c-4.66699 5.33301 -10.167 9.33301 -16.5 12s-13.166 4 -20.499 4s-14 -1.33301 -20 -4s-11.667 -6.66699 -17 -12
c-4.66699 -5.33301 -8.33398 -11 -11.001 -17s-4 -12.333 -4 -19v2v0z" />
    <glyph glyph-name="ae" unicode="&#xe6;" horiz-adv-x="889" 
d="M135 358l-85.998 9.99902c1.33301 3.33301 2.5 7.5 3.5 12.5s2.5 10.5 4.5 16.5s4.33301 12.167 7 18.5s6 12.833 10 19.5c6.66699 11.333 15.5 22.333 26.5 33s23.833 21 38.5 31c15.333 9.33301 34.166 16.5 56.499 21.5s48.5 7.5 78.5 7.5
c22 0 41.5 -1.16699 58.5 -3.5s31.5 -5.5 43.5 -9.5s22.333 -8.16699 31 -12.5s16 -9.16602 22 -14.499c3.33301 -2.66699 6.16602 -5.5 8.49902 -8.5l6.5 -8.5c2 -2.66699 3.83301 -5 5.5 -7s2.83398 -4 3.50098 -6c1.33301 2 3.16602 4.16699 5.49902 6.5l7.5 7.5
c3.33301 2.66699 6.5 5.33398 9.5 8.00098s6.5 5.33398 10.5 8.00098c7.33301 5.33301 15.333 10.166 24 14.499s18.334 8.5 29.001 12.5s22.667 7.16699 36 9.5s28.333 3.5 45 3.5c40.667 0 75.667 -7 105 -21s53 -34.667 71 -62c18 -28 31.333 -57.833 40 -89.5
s13 -65.167 13 -100.5v-2.5v-3.5v-2v-2v-1.5v-0.5v-1.5v-1.5v-1.5v-0.5v-1.5v-1.5l-374 2c0 -19.333 0.666992 -35.666 2 -48.999s3.33301 -24.333 6 -33s6.16699 -16.834 10.5 -24.501s9.5 -14.834 15.5 -21.501c0 -0.666992 0.166992 -1.33398 0.5 -2.00098
s0.833008 -1.33398 1.5 -2.00098s1.33398 -1.16699 2.00098 -1.5s1.33398 -0.833008 2.00098 -1.5c5.33301 -6 11.666 -11.5 18.999 -16.5s15.333 -9.5 24 -13.5c9.33301 -4.66699 19.333 -8 30 -10s22.334 -3 35.001 -3c15.333 0 29.333 1.83301 42 5.5
s23.667 8.83398 33 15.501c9.33301 7.33301 17.5 14.666 24.5 21.999s12.833 15 17.5 23c1.33301 2 2.33301 4 3 6s1.66699 4 3 6l2.5 5c1 2 1.83301 4 2.5 6c1.33301 4 2.5 7.83301 3.5 11.5s1.83301 6.83398 2.5 9.50098l91 -10c-6.66699 -22.667 -16 -44 -28 -64
s-26.667 -38.667 -44 -56s-39 -30.166 -65 -38.499s-56.333 -12.5 -91 -12.5c-16.667 0 -33.334 1.66699 -50.001 5s-33 7.66602 -49 12.999c-16.667 6 -32.667 15.5 -48 28.5s-30.666 29.167 -45.999 48.5c-12.667 -12.667 -26.334 -24.5 -41.001 -35.5
s-30.667 -21.5 -48 -31.5c-17.333 -9.33301 -36.5 -16.333 -57.5 -21s-43.833 -7 -68.5 -7c-23.333 0 -44 2 -62 6s-33.333 10 -46 18s-23.334 16.667 -32.001 26s-15.667 19.333 -21 30c-2 3.33301 -3.66699 6.5 -5 9.5s-2.66602 6.16699 -3.99902 9.5
c-1.33301 2.66699 -2.33301 5.66699 -3 9s-1.33398 6.33301 -2.00098 9c-0.666992 6 -1.33398 11.5 -2.00098 16.5s-1 9.5 -1 13.5c0 13.333 1.5 25.833 4.5 37.5s7.5 22.834 13.5 33.501s13.833 20.5 23.5 29.5s21.5 17.5 35.5 25.5c0.666992 0 1.16699 0.166992 1.5 0.5
l1.5 1.5c0.666992 0 1.33398 0.166992 2.00098 0.5s1.33398 0.833008 2.00098 1.5c8 4 16.5 7.5 25.5 10.5l26.5 8.5c4.66699 1.33301 9.5 2.5 14.5 3.5s10.5 2.16699 16.5 3.5c5.33301 0.666992 11.166 1.66699 17.499 3s12.833 2.33301 19.5 3c2 0 4 0.166992 6 0.5
s4 0.833008 6 1.5c2 0 4.16699 0.166992 6.5 0.5s4.83301 0.833008 7.5 1.5c5.33301 0.666992 10.166 1.16699 14.499 1.5s8.5 0.833008 12.5 1.5l11.5 2l10.5 2l11.5 2c3.66699 0.666992 6.83398 1.33398 9.50098 2.00098l10 2l10 2c2 0.666992 4.33301 1.33398 7 2.00098
l8 2c2.66699 0.666992 5.5 1.5 8.5 2.5s5.83301 1.83301 8.5 2.5v3.5v2.5v2v2l0.5 1c0.333008 0.666992 0.5 1.33398 0.5 2.00098v3.5v2.5v3.5v2.5c0 16.667 -1.83301 31.5 -5.5 44.5s-9.16699 24.167 -16.5 33.5c-6.66699 9.33301 -17.834 16.333 -33.501 21
s-35.167 7 -58.5 7c-26 0 -47.667 -2.16699 -65 -6.5s-30 -11.166 -38 -20.499c-8 -8.66699 -14.667 -17.834 -20 -27.501s-9.33301 -20.167 -12 -31.5c0 -0.666992 -0.166992 -1.33398 -0.5 -2.00098l-0.5 -1c-0.666992 -0.666992 -1 -1.33398 -1 -2.00098v-2v-2v-1
c-0.666992 -0.666992 -1 -1.33398 -1 -2.00098v-2v2v0zM388.002 259.999c-5.33301 -3.33301 -11.332 -6.16992 -17.999 -8.50293s-13.667 -4.5 -21 -6.5c-4 -0.666992 -8 -1.5 -12 -2.5s-7.66699 -1.83301 -11 -2.5c-4 -1.33301 -8 -2.33301 -12 -3l-12 -2
c-6.66699 -0.666992 -13 -1.5 -19 -2.5s-12 -2.16699 -18 -3.5c-6 -0.666992 -11.667 -1.5 -17 -2.5s-10.666 -2.16699 -15.999 -3.5c-2.66699 -0.666992 -5.83398 -1.16699 -9.50098 -1.5s-7.16699 -1.16602 -10.5 -2.49902c-2 -0.666992 -3.83301 -1.16699 -5.5 -1.5
s-3.16699 -0.5 -4.5 -0.5c-2 -0.666992 -3.83301 -1.16699 -5.5 -1.5s-3.5 -0.833008 -5.5 -1.5c-8 -2.66699 -15.667 -6 -23 -10s-14.333 -8.66699 -21 -14c-6.66699 -6 -11.5 -13.167 -14.5 -21.5s-4.5 -18.166 -4.5 -29.499v-7.5
c0 -2.33301 0.333008 -5.16602 1 -8.49902c0.666992 -2.66699 1.5 -5.5 2.5 -8.5s1.83301 -6.16699 2.5 -9.5c2.66699 -6 6.5 -11.833 11.5 -17.5s10.833 -11.167 17.5 -16.5c7.33301 -4.66699 16.5 -8.33398 27.5 -11.001s23.833 -4 38.5 -4
c15.333 0 30.166 1.83301 44.499 5.5s28.166 8.83398 41.499 15.501c13.333 7.33301 25 16 35 26s18 21.333 24 34v0.5c0 0.333008 0.333008 0.833008 1 1.5v0.5v0.5c0 0.666992 0.166992 1.16699 0.5 1.5l1.5 1.5c2 6.66699 3.83301 13.667 5.5 21s2.83398 15 3.50098 23
s1.16699 18 1.5 30s0.5 25.667 0.5 41v2v0zM475.003 308.995h284.999c-0.666992 2.66699 -1.16699 6.16699 -1.5 10.5s-1.16602 9.83301 -2.49902 16.5c-0.666992 6.66699 -2 13.5 -4 20.5s-4.66699 13.833 -8 20.5c-4 10 -9.5 19.5 -16.5 28.5s-15.167 17.5 -24.5 25.5
s-21 14.167 -35 18.5s-30.333 6.5 -49 6.5c-24.667 0 -45.667 -3.83301 -63 -11.5s-31.666 -19.167 -42.999 -34.5c-10.667 -14.667 -19.334 -30.5 -26.001 -47.5s-10.667 -34.5 -12 -52.5v-1.5v-0.5v0v0v-1v0v2v0z" />
    <glyph glyph-name="ccedilla" unicode="&#xe7;" horiz-adv-x="500" 
d="M286 -12l-6 -24.001c10 -1.33301 18.833 -3 26.5 -5s14.167 -4.66699 19.5 -8s10 -7 14 -11s7.33301 -8 10 -12c2 -4 3.66699 -8 5 -12s2.33301 -8 3 -12c0.666992 -3.33301 1.16699 -6.16602 1.5 -8.49902s0.5 -3.83301 0.5 -4.5c0 -13.333 -2.33301 -24.833 -7 -34.5
s-11.667 -17.5 -21 -23.5s-19 -11 -29 -15s-20.667 -7 -32 -9c-4.66699 -1.33301 -9.33398 -2.16602 -14.001 -2.49902s-9.33398 -0.833008 -14.001 -1.5h-6.5c-2.33301 0 -4.5 -0.333008 -6.5 -1h-6h-6h-5.5h-4.5h-4h-4c-2.66699 0.666992 -5.16699 1.16699 -7.5 1.5
s-4.83301 0.5 -7.5 0.5c-2.66699 0.666992 -5.5 1.16699 -8.5 1.5s-6.16699 0.5 -9.5 0.5l2 58c2.66699 0 5.16699 -0.166992 7.5 -0.5s4.5 -0.833008 6.5 -1.5h3.5c1 0 2.16699 -0.333008 3.5 -1h3h3h2c0.666992 0 1.33398 -0.333008 2.00098 -1h2h2h4h4h3.5h2.5h1.5h1.5
h0.5h1.5c7.33301 0.666992 14 1.66699 20 3s12 3.33301 18 6s10.5 6 13.5 10s4.5 9 4.5 15c0 4.66699 -1 8.83398 -3 12.501s-5 6.5 -9 8.5s-8.16699 3.66699 -12.5 5l-13.5 4c-3.33301 0.666992 -6.66602 1.16699 -9.99902 1.5s-6.66602 0.5 -9.99902 0.5h-8h-6l16 64
c-28.667 4.66699 -54.167 13.834 -76.5 27.501s-41.833 31.834 -58.5 54.501c-16.667 23.333 -29 49.666 -37 78.999s-12 62.333 -12 99c0 7.33301 0.166992 15.166 0.5 23.499s0.833008 16.833 1.5 25.5l4 28c1.33301 9.33301 3.33301 18.666 6 27.999l4 13.5l4 13.5
l6 12.5l6 13.5c4 9.33301 8.83301 18 14.5 26s11.834 15.667 18.501 23c7.33301 8 15.333 15.5 24 22.5s18 12.833 28 17.5c9.33301 5.33301 19 9.66602 29 12.999s20 6.33301 30 9c5.33301 1.33301 10.5 2.33301 15.5 3l14.5 2c2.66699 0 5.33398 0.166992 8.00098 0.5
s5.33398 0.5 8.00098 0.5c2 0.666992 4.33301 1 7 1h8c6 0 12.333 -0.166992 19 -0.5s13.667 -1.16602 21 -2.49902c7.33301 -0.666992 14.666 -2 21.999 -4s15 -4.33301 23 -7s16 -6.16699 24 -10.5s16 -9.16602 24 -14.499s15.5 -11.5 22.5 -18.5s13.5 -14.833 19.5 -23.5
c5.33301 -8 9.83301 -15.667 13.5 -23s6.5 -14.666 8.5 -21.999c2 -6.66699 3.83301 -13.334 5.5 -20.001l4.5 -18l-86 -12c-4.66699 17.333 -10.667 32.666 -18 45.999s-16.333 24.333 -27 33c-10.667 8 -22.167 14.167 -34.5 18.5s-25.5 6.5 -39.5 6.5
c-22.667 0 -42.5 -3.33301 -59.5 -10s-30.833 -16.667 -41.5 -30s-19.334 -27.333 -26.001 -42s-11.667 -29.667 -15 -45c-1.33301 -6.66699 -2.5 -13.167 -3.5 -19.5s-1.83301 -12.5 -2.5 -18.5s-1 -11.833 -1 -17.5v-16.5v-15.5c0 -6.33301 0.333008 -14.166 1 -23.499
c0.666992 -8.66699 2 -18 4 -28s4.66699 -20 8 -30c4 -12.667 9.5 -24.834 16.5 -36.501s15.5 -22.834 25.5 -33.501s22.5 -18.667 37.5 -24s32.5 -8 52.5 -8c16 0 30.167 1.83301 42.5 5.5s22.833 8.83398 31.5 15.501c8.66699 7.33301 16.167 14.666 22.5 21.999
s11.833 15.333 16.5 24c3.33301 6 6 12 8 18s3.66699 12 5 18s2.33301 11.167 3 15.5s1.33398 7.83301 2.00098 10.5l86 -9c-4.66699 -29.333 -11.667 -54.5 -21 -75.5s-21.333 -38.5 -36 -52.5s-29.834 -25.5 -45.501 -34.5s-31.834 -15.167 -48.501 -18.5
c-4.66699 -1.33301 -9.16699 -2.5 -13.5 -3.5s-8.83301 -1.83301 -13.5 -2.5s-9.33398 -1.16699 -14.001 -1.5s-9 -0.833008 -13 -1.5v0v0z" />
    </font>
</defs>
</svg>
