<svg xmlns="http://www.w3.org/2000/svg" width="24" height="20" viewBox="0 0 24 20"><g><g><path fill="#2aacc8" d="M23.997 14.007v-.916c0-.917-1.157-1.833-1.157-1.833-2.09-.62-3.293-1.66-3.853-2.266v-.615c.68.08 2.051-.408 1.455-.701-.289-.142-.462-.401-.57-.656.07-.196.123-.401.135-.62l.015-.271a.372.372 0 0 0 .117.024.39.39 0 0 0 .386-.393v-.785a.39.39 0 0 0-.386-.393c-.01 0-.02.006-.032.007l.029-.508c.077-1.401-.954-2.607-2.31-2.607-1.355 0-2.388 1.206-2.311 2.607l.028.508c-.011-.001-.021-.007-.033-.007a.39.39 0 0 0-.385.393v.785a.39.39 0 0 0 .385.393.371.371 0 0 0 .117-.024l.014.27c.01.193.048.377.105.552-.106.277-.284.57-.599.725-.613.302.861.811 1.516.694v.622c-.532.576-1.651 1.536-3.547 2.163l3.151 2.852zm-9.408-7.174V5.58a.63.63 0 0 0-.634-.627c-.019 0-.034.009-.053.01l.047-.81c.128-2.235-1.569-4.159-3.797-4.159-2.229 0-3.927 1.924-3.801 4.16l.045.81c-.018-.002-.034-.01-.053-.01a.63.63 0 0 0-.634.626v1.253a.63.63 0 0 0 .634.626c.068 0 .13-.019.191-.038l.024.431c.067 1.181.73 2.187 1.68 2.771v1.364c-.922.97-2.9 2.627-6.335 3.616 0 0-1.903 1.462-1.903 2.924v1.462h20.298v-1.462c0-1.462-1.903-2.924-1.903-2.924-3.435-.99-5.414-2.647-6.335-3.616v-1.366c.948-.585 1.61-1.59 1.677-2.769l.025-.431c.062.02.124.038.193.038a.63.63 0 0 0 .634-.626z"/></g></g></svg>