<svg xmlns="http://www.w3.org/2000/svg" width="41" height="37" viewBox="0 0 41 37"><g><g><path fill="#3cc3b5" d="M19.896.01c1.473 0 2.675 1.006 2.939 2.38h.077l9.656 10.741h-4.832l-6.667-7.42c-.367.151-.754.263-1.173.263-.412 0-.807-.112-1.166-.263l-6.674 7.42H7.23l9.65-10.74h.076c.271-1.375 1.473-2.382 2.94-2.382zM2.407 15.514H38.6a2.393 2.393 0 0 1 2.409 2.389v1.192c0 1.26-.978 2.25-2.22 2.35l-3.812 13.157c-1.209 2.387-2.409 2.387-3.617 2.387H9.64c-1.2 0-2.41 0-3.617-2.387L2.22 21.445c-1.25-.1-2.228-1.09-2.228-2.349v-1.192a2.398 2.398 0 0 1 2.416-2.39zm6.786 5.964c-1.338 0-2.209.996-1.927 2.237l1.697 7.422c.283 1.246 1.603 2.27 2.938 2.27h.608c1.338 0 2.204-1.024 1.92-2.27l-1.696-7.422c-.282-1.24-1.602-2.237-2.94-2.237zm11.31 0a2.398 2.398 0 0 0-2.415 2.39v7.157c0 1.323 1.078 2.383 2.416 2.383a2.388 2.388 0 0 0 2.408-2.383v-7.158a2.393 2.393 0 0 0-2.408-2.389zm10.703 0c-1.337 0-2.655.996-2.939 2.237l-1.697 7.422c-.282 1.246.584 2.27 1.92 2.27h.608c1.338 0 2.656-1.024 2.94-2.27l1.696-7.422c.282-1.24-.583-2.237-1.92-2.237z"/></g></g></svg>