<svg xmlns="http://www.w3.org/2000/svg" width="27" height="39" viewBox="0 0 27 39"><defs><linearGradient id="8bswa" x1="13.9" x2="12.95" y1="38.81" y2=".75" gradientUnits="userSpaceOnUse"><stop offset="0" stop-color="#646464" stop-opacity=".75"/><stop offset=".35" stop-color="#040404" stop-opacity=".75"/><stop offset=".75" stop-color="#040404" stop-opacity=".75"/><stop offset="1" stop-color="#bfbfbf" stop-opacity=".75"/></linearGradient><filter id="8bswb" width="200%" height="200%" x="-50%" y="-50%"><feGaussianBlur in="SourceGraphic" result="FeGaussianBlur1036Out" stdDeviation="0 0"/></filter><mask id="8bswc"><path fill="#fff" d="M25.671 19.82h.074l-.43.74c-.077.146-.165.284-.248.427-4.482 7.718-8.92 15.429-9.651 16.685-.893 1.53-3.02 1.505-3.914 0-.55-.927-5.175-8.854-9.79-16.79-.055-.098-.116-.193-.17-.292l-.426-.734h.073a13.403 13.403 0 0 1-1.244-5.63C-.055 6.785 5.98.75 13.422.75c7.443 0 13.476 6.034 13.476 13.477 0 1.998-.446 3.888-1.227 5.594zM13.358 7.465a6.763 6.763 0 1 0 0 13.525 6.763 6.763 0 0 0 0-13.525z"/></mask><clipPath id="8bswd"><path fill="#fff" d="M25.671 19.82h.074l-.43.74c-.077.146-.165.284-.248.427-4.482 7.718-8.92 15.429-9.651 16.685-.893 1.53-3.02 1.505-3.914 0-.55-.927-5.175-8.854-9.79-16.79-.055-.098-.116-.193-.17-.292l-.426-.734h.073a13.403 13.403 0 0 1-1.244-5.63C-.055 6.785 5.98.75 13.422.75c7.443 0 13.476 6.034 13.476 13.477 0 1.998-.446 3.888-1.227 5.594zM13.358 7.465a6.763 6.763 0 1 0 0 13.525 6.763 6.763 0 0 0 0-13.525z"/></clipPath></defs><g><g><path fill="#f5962f" d="M25.671 19.82h.074l-.43.74c-.077.146-.165.284-.248.427-4.482 7.718-8.92 15.429-9.651 16.685-.893 1.53-3.02 1.505-3.914 0-.55-.927-5.175-8.854-9.79-16.79-.055-.098-.116-.193-.17-.292l-.426-.734h.073a13.403 13.403 0 0 1-1.244-5.63C-.055 6.785 5.98.75 13.422.75c7.443 0 13.476 6.034 13.476 13.477 0 1.998-.446 3.888-1.227 5.594zM13.358 7.465a6.763 6.763 0 1 0 0 13.525 6.763 6.763 0 0 0 0-13.525z"/><path fill="url(#8bswa)" d="M25.671 19.82h.074l-.43.74c-.077.146-.165.284-.248.427-4.482 7.718-8.92 15.429-9.651 16.685-.893 1.53-3.02 1.505-3.914 0-.55-.927-5.175-8.854-9.79-16.79-.055-.098-.116-.193-.17-.292l-.426-.734h.073a13.403 13.403 0 0 1-1.244-5.63C-.055 6.785 5.98.75 13.422.75c7.443 0 13.476 6.034 13.476 13.477 0 1.998-.446 3.888-1.227 5.594zM13.358 7.465a6.763 6.763 0 1 0 0 13.525 6.763 6.763 0 0 0 0-13.525z"/><path fill="#fff" fill-opacity=".2" d="M-1 40V-1h28v41zm26.671-19.18a13.404 13.404 0 0 0 1.227-5.593c0-7.443-6.033-13.477-13.476-13.477C5.979 1.75-.055 7.784-.055 15.227c0 2.012.453 3.914 1.244 5.629h-.073l.427.734c.053.1.114.194.17.292 4.614 7.936 9.239 15.863 9.789 16.79.893 1.505 3.021 1.53 3.914 0 .732-1.256 5.169-8.967 9.651-16.685.083-.143.17-.281.248-.427l.43-.74zm-5.55-5.593a6.763 6.763 0 1 1-13.525 0 6.763 6.763 0 0 1 13.525 0z" filter="url(#8bswb)" mask="url(&quot;#8bswc&quot;)"/><path fill="none" stroke="#f55114" stroke-linecap="round" stroke-linejoin="round" stroke-miterlimit="50" stroke-width="2" d="M25.671 19.82h.074l-.43.74c-.077.146-.165.284-.248.427-4.482 7.718-8.92 15.429-9.651 16.685-.893 1.53-3.02 1.505-3.914 0-.55-.927-5.175-8.854-9.79-16.79-.055-.098-.116-.193-.17-.292l-.426-.734h.073a13.403 13.403 0 0 1-1.244-5.63C-.055 6.785 5.98.75 13.422.75c7.443 0 13.476 6.034 13.476 13.477 0 1.998-.446 3.888-1.227 5.594zM13.358 7.465a6.763 6.763 0 1 0 0 13.525 6.763 6.763 0 0 0 0-13.525z" clip-path="url(&quot;#8bswd&quot;)"/></g></g></svg>