<svg xmlns="http://www.w3.org/2000/svg" viewBox="0 0 20 26"><path fill="#fff" d="M18.63 4.076l-5.197-3a2 2 0 00-2.732.732L7.2 7.87a2 2 0 00.732 2.732l.866.5 1-1.732a1 1 0 01-.366-1.366l2.5-4.33a1 1 0 011.366-.366l3.464 2a1 1 0 01.366 1.366l-2.5 4.33a1 1 0 01-1.366.366l-1 1.732.866.5a2 2 0 002.732-.732l3.5-6.062a2 2 0 00-.732-2.732zM8.896 16.933l4-6.929a1 1 0 00-1.732-1l-4 6.929a1 1 0 101.732 1zm-1.098-4.099l-.866-.5a2 2 0 00-2.732.733L.7 19.129a2 2 0 00.732 2.732l5.196 3a2 2 0 002.732-.732l3.5-6.062a2 2 0 00-.732-2.733l-.866-.5-1 1.733a1 1 0 01.366 1.366l-2.5 4.33a1 1 0 01-1.366.366l-3.464-2a1 1 0 01-.366-1.366l2.5-4.33a1 1 0 011.366-.366z"/></svg>